<?xml version="1.0" encoding="UTF-8" standalone="no"?>
<!DOCTYPE svg PUBLIC "-//W3C//DTD SVG 1.1//EN"
 "http://www.w3.org/Graphics/SVG/1.1/DTD/svg11.dtd">
<!-- Generated by graphviz version 2.50.0 (0)
 -->
<!-- Pages: 1 -->
<svg width="950pt" height="978pt"
 viewBox="0.00 0.00 950.00 978.00" xmlns="http://www.w3.org/2000/svg" xmlns:xlink="http://www.w3.org/1999/xlink">
<g id="graph0" class="graph" transform="scale(1 1) rotate(0) translate(4 974)">
<polygon fill="white" stroke="transparent" points="-4,4 -4,-974 946,-974 946,4 -4,4"/>
<g id="clust1" class="cluster">
<title>cluster_legend</title>
<path fill="none" stroke="#999999" d="M20,-878C20,-878 298,-878 298,-878 304,-878 310,-884 310,-890 310,-890 310,-930 310,-930 310,-936 304,-942 298,-942 298,-942 20,-942 20,-942 14,-942 8,-936 8,-930 8,-930 8,-890 8,-890 8,-884 14,-878 20,-878"/>
</g>
<g id="clust4" class="cluster">
<title>cluster_attention.Tile&#45;2</title>
<path fill="#e8f5e9" stroke="black" stroke-dasharray="5,2" d="M252,-380C252,-380 384,-380 384,-380 390,-380 396,-386 396,-392 396,-392 396,-454 396,-454 396,-460 390,-466 384,-466 384,-466 252,-466 252,-466 246,-466 240,-460 240,-454 240,-454 240,-392 240,-392 240,-386 246,-380 252,-380"/>
<text text-anchor="middle" x="318" y="-454.8" font-family="Helvetica,sans-Serif" font-size="9.00" fill="#666666">2</text>
</g>
<g id="clust3" class="cluster">
<title>cluster_attention.Tile&#45;1</title>
<path fill="#e8f5e9" stroke="black" stroke-dasharray="5,2" d="M478,-132C478,-132 610,-132 610,-132 616,-132 622,-138 622,-144 622,-144 622,-206 622,-206 622,-212 616,-218 610,-218 610,-218 478,-218 478,-218 472,-218 466,-212 466,-206 466,-206 466,-144 466,-144 466,-138 472,-132 478,-132"/>
<text text-anchor="middle" x="544" y="-206.8" font-family="Helvetica,sans-Serif" font-size="9.00" fill="#666666">1</text>
</g>
<g id="clust2" class="cluster">
<title>cluster_attention.Tile&#45;0</title>
<path fill="#e8f5e9" stroke="black" stroke-dasharray="5,2" d="M665,-8C665,-8 799,-8 799,-8 805,-8 811,-14 811,-20 811,-20 811,-82 811,-82 811,-88 805,-94 799,-94 799,-94 665,-94 665,-94 659,-94 653,-88 653,-82 653,-82 653,-20 653,-20 653,-14 659,-8 665,-8"/>
<text text-anchor="middle" x="732" y="-82.8" font-family="Helvetica,sans-Serif" font-size="9.00" fill="#666666">0</text>
</g>
<g id="clust5" class="cluster">
<title>cluster_attention.Tile&#45;3</title>
<path fill="#e8f5e9" stroke="black" stroke-dasharray="5,2" d="M701,-132C701,-132 763,-132 763,-132 769,-132 775,-138 775,-144 775,-144 775,-206 775,-206 775,-212 769,-218 763,-218 763,-218 701,-218 701,-218 695,-218 689,-212 689,-206 689,-206 689,-144 689,-144 689,-138 695,-132 701,-132"/>
<text text-anchor="middle" x="732" y="-206.8" font-family="Helvetica,sans-Serif" font-size="9.00" fill="#666666">3</text>
</g>
<g id="clust6" class="cluster">
<title>cluster_attention.Tile&#45;4</title>
<path fill="#e8f5e9" stroke="black" stroke-dasharray="5,2" d="M513,-256C513,-256 575,-256 575,-256 581,-256 587,-262 587,-268 587,-268 587,-330 587,-330 587,-336 581,-342 575,-342 575,-342 513,-342 513,-342 507,-342 501,-336 501,-330 501,-330 501,-268 501,-268 501,-262 507,-256 513,-256"/>
<text text-anchor="middle" x="544" y="-330.8" font-family="Helvetica,sans-Serif" font-size="9.00" fill="#666666">4</text>
</g>
<g id="clust7" class="cluster">
<title>cluster_attention.Tile&#45;7</title>
<path fill="#e8f5e9" stroke="black" stroke-dasharray="5,2" d="M291,-504C291,-504 353,-504 353,-504 359,-504 365,-510 365,-516 365,-516 365,-578 365,-578 365,-584 359,-590 353,-590 353,-590 291,-590 291,-590 285,-590 279,-584 279,-578 279,-578 279,-516 279,-516 279,-510 285,-504 291,-504"/>
<text text-anchor="middle" x="322" y="-578.8" font-family="Helvetica,sans-Serif" font-size="9.00" fill="#666666">7</text>
</g>
<g id="clust9" class="cluster">
<title>cluster_attention.Tile&#45;5</title>
<path fill="#fffde7" stroke="black" stroke-dasharray="5,2" d="M544,-380C544,-380 766,-380 766,-380 772,-380 778,-386 778,-392 778,-392 778,-454 778,-454 778,-460 772,-466 766,-466 766,-466 544,-466 544,-466 538,-466 532,-460 532,-454 532,-454 532,-392 532,-392 532,-386 538,-380 544,-380"/>
<text text-anchor="middle" x="655" y="-454.8" font-family="Helvetica,sans-Serif" font-size="9.00" fill="#666666">5</text>
</g>
<g id="clust10" class="cluster">
<title>cluster_attention.Tile&#45;8</title>
<path fill="#e8f5e9" stroke="black" stroke-dasharray="5,2" d="M346,-628C346,-628 428,-628 428,-628 434,-628 440,-634 440,-640 440,-640 440,-702 440,-702 440,-708 434,-714 428,-714 428,-714 346,-714 346,-714 340,-714 334,-708 334,-702 334,-702 334,-640 334,-640 334,-634 340,-628 346,-628"/>
<text text-anchor="middle" x="387" y="-702.8" font-family="Helvetica,sans-Serif" font-size="9.00" fill="#666666">8</text>
</g>
<g id="clust11" class="cluster">
<title>cluster_attention.Tile&#45;6</title>
<path fill="#fffde7" stroke="black" stroke-dasharray="5,2" d="M419,-504C419,-504 657,-504 657,-504 663,-504 669,-510 669,-516 669,-516 669,-578 669,-578 669,-584 663,-590 657,-590 657,-590 419,-590 419,-590 413,-590 407,-584 407,-578 407,-578 407,-516 407,-516 407,-510 413,-504 419,-504"/>
<text text-anchor="middle" x="538" y="-578.8" font-family="Helvetica,sans-Serif" font-size="9.00" fill="#666666">6</text>
</g>
<g id="clust13" class="cluster">
<title>cluster_attention.Tile&#45;9</title>
<path fill="#e8f5e9" stroke="black" stroke-dasharray="5,2" d="M356,-752C356,-752 418,-752 418,-752 424,-752 430,-758 430,-764 430,-764 430,-826 430,-826 430,-832 424,-838 418,-838 418,-838 356,-838 356,-838 350,-838 344,-832 344,-826 344,-826 344,-764 344,-764 344,-758 350,-752 356,-752"/>
<text text-anchor="middle" x="387" y="-826.8" font-family="Helvetica,sans-Serif" font-size="9.00" fill="#666666">9</text>
</g>
<g id="clust8" class="cluster">
<title>cluster_attention.Tile&#45;14</title>
<path fill="#e8f5e9" stroke="black" stroke-dasharray="5,2" d="M735,-256C735,-256 797,-256 797,-256 803,-256 809,-262 809,-268 809,-268 809,-330 809,-330 809,-336 803,-342 797,-342 797,-342 735,-342 735,-342 729,-342 723,-336 723,-330 723,-330 723,-268 723,-268 723,-262 729,-256 735,-256"/>
<text text-anchor="middle" x="766" y="-330.8" font-family="Helvetica,sans-Serif" font-size="9.00" fill="#666666">14</text>
</g>
<g id="clust12" class="cluster">
<title>cluster_attention.Tile&#45;15</title>
<path fill="#fffde7" stroke="black" stroke-dasharray="5,2" d="M824,-380C824,-380 922,-380 922,-380 928,-380 934,-386 934,-392 934,-392 934,-454 934,-454 934,-460 928,-466 922,-466 922,-466 824,-466 824,-466 818,-466 812,-460 812,-454 812,-454 812,-392 812,-392 812,-386 818,-380 824,-380"/>
<text text-anchor="middle" x="873" y="-454.8" font-family="Helvetica,sans-Serif" font-size="9.00" fill="#666666">15</text>
</g>
<g id="clust14" class="cluster">
<title>cluster_attention.Tile&#45;10</title>
<path fill="#ffcccc" stroke="black" stroke-dasharray="5,2" d="M356,-876C356,-876 418,-876 418,-876 424,-876 430,-882 430,-888 430,-888 430,-950 430,-950 430,-956 424,-962 418,-962 418,-962 356,-962 356,-962 350,-962 344,-956 344,-950 344,-950 344,-888 344,-888 344,-882 350,-876 356,-876"/>
<text text-anchor="middle" x="387" y="-950.8" font-family="Helvetica,sans-Serif" font-size="9.00" fill="#666666">10</text>
</g>
<!-- legend -->
<g id="node1" class="node">
<title>legend</title>
<polygon fill="#ffffee" stroke="black" points="295.5,-934 16.5,-934 16.5,-886 301.5,-886 301.5,-928 295.5,-934"/>
<polyline fill="none" stroke="black" points="295.5,-934 295.5,-928 "/>
<polyline fill="none" stroke="black" points="301.5,-928 295.5,-928 "/>
<text text-anchor="middle" x="159" y="-922.8" font-family="Helvetica,sans-Serif" font-size="9.00">Costs shown are for ILP&#45;optimal DAG path(s).</text>
<text text-anchor="middle" x="159" y="-912.8" font-family="Helvetica,sans-Serif" font-size="9.00">Total traffic: 1,056 KB (1,081,344 bytes)</text>
<text text-anchor="middle" x="159" y="-902.8" font-family="Helvetica,sans-Serif" font-size="9.00">2 optimal solutions found (same cost).</text>
<text text-anchor="middle" x="159" y="-892.8" font-family="Helvetica,sans-Serif" font-size="9.00">Green = in ALL solutions &#160;| &#160;Yellow = in SOME &#160;| &#160;Gray = not chosen</text>
</g>
<!-- function&#45;0&#45;attention_Tile_input -->
<g id="node2" class="node">
<title>function&#45;0&#45;attention_Tile_input</title>
<polygon fill="#c8e6c9" stroke="transparent" points="669.5,-20 669.5,-64 794.5,-64 794.5,-20 669.5,-20"/>
<text text-anchor="start" x="677" y="-49" font-family="Helvetica,sans-Serif" font-size="10.00">Tile.input(&quot;Q&quot;, 128, 64, 2)</text>
<text text-anchor="start" x="723.5" y="-29.6" font-family="Helvetica,sans-Serif" font-size="8.00">0 KB</text>
<polygon fill="none" stroke="#2e7d32" points="669.5,-20 669.5,-64 794.5,-64 794.5,-20 669.5,-20"/>
</g>
<!-- function&#45;1&#45;attention_Tile_input -->
<g id="node3" class="node">
<title>function&#45;1&#45;attention_Tile_input</title>
<polygon fill="#c8e6c9" stroke="transparent" points="482,-144 482,-188 606,-188 606,-144 482,-144"/>
<text text-anchor="start" x="489" y="-173" font-family="Helvetica,sans-Serif" font-size="10.00">Tile.input(&quot;K&quot;, 64, 128, 2)</text>
<text text-anchor="start" x="535" y="-153.6" font-family="Helvetica,sans-Serif" font-size="8.00">0 KB</text>
<polygon fill="none" stroke="#2e7d32" points="482,-144 482,-188 606,-188 606,-144 482,-144"/>
</g>
<!-- function&#45;2&#45;attention_Tile_input -->
<g id="node4" class="node">
<title>function&#45;2&#45;attention_Tile_input</title>
<polygon fill="#c8e6c9" stroke="transparent" points="256,-392 256,-436 380,-436 380,-392 256,-392"/>
<text text-anchor="start" x="263" y="-421" font-family="Helvetica,sans-Serif" font-size="10.00">Tile.input(&quot;V&quot;, 128, 64, 2)</text>
<text text-anchor="start" x="309" y="-401.6" font-family="Helvetica,sans-Serif" font-size="8.00">0 KB</text>
<polygon fill="none" stroke="#2e7d32" points="256,-392 256,-436 380,-436 380,-392 256,-392"/>
</g>
<!-- function&#45;0&#45;attention_Tile_LDS -->
<g id="node5" class="node">
<title>function&#45;0&#45;attention_Tile_LDS</title>
<polygon fill="#c8e6c9" stroke="transparent" points="705.5,-144 705.5,-188 758.5,-188 758.5,-144 705.5,-144"/>
<text text-anchor="start" x="713" y="-173" font-family="Helvetica,sans-Serif" font-size="10.00">Tile.LDS</text>
<text text-anchor="start" x="721.5" y="-153.6" font-family="Helvetica,sans-Serif" font-size="8.00">16 KB</text>
<polygon fill="none" stroke="#2e7d32" points="705.5,-144 705.5,-188 758.5,-188 758.5,-144 705.5,-144"/>
</g>
<!-- function&#45;0&#45;attention_Tile_LDS&#45;&gt;function&#45;0&#45;attention_Tile_input -->
<g id="edge1" class="edge">
<title>function&#45;0&#45;attention_Tile_LDS&#45;&gt;function&#45;0&#45;attention_Tile_input</title>
<path fill="none" stroke="black" d="M732,-139.72C732,-121.97 732,-98 732,-78.35"/>
<polygon fill="black" stroke="black" points="735.5,-78.25 732,-68.25 728.5,-78.25 735.5,-78.25"/>
</g>
<!-- function&#45;1&#45;attention_Tile_LDS -->
<g id="node6" class="node">
<title>function&#45;1&#45;attention_Tile_LDS</title>
<polygon fill="#c8e6c9" stroke="transparent" points="517.5,-268 517.5,-312 570.5,-312 570.5,-268 517.5,-268"/>
<text text-anchor="start" x="525" y="-297" font-family="Helvetica,sans-Serif" font-size="10.00">Tile.LDS</text>
<text text-anchor="start" x="531" y="-277.6" font-family="Helvetica,sans-Serif" font-size="8.00">128 KB</text>
<polygon fill="none" stroke="#2e7d32" points="517.5,-268 517.5,-312 570.5,-312 570.5,-268 517.5,-268"/>
</g>
<!-- function&#45;1&#45;attention_Tile_LDS&#45;&gt;function&#45;1&#45;attention_Tile_input -->
<g id="edge2" class="edge">
<title>function&#45;1&#45;attention_Tile_LDS&#45;&gt;function&#45;1&#45;attention_Tile_input</title>
<path fill="none" stroke="black" d="M544,-263.72C544,-245.97 544,-222 544,-202.35"/>
<polygon fill="black" stroke="black" points="547.5,-202.25 544,-192.25 540.5,-202.25 547.5,-202.25"/>
</g>
<!-- function&#45;2&#45;attention_Tile_LDS -->
<g id="node7" class="node">
<title>function&#45;2&#45;attention_Tile_LDS</title>
<polygon fill="#c8e6c9" stroke="transparent" points="295.5,-516 295.5,-560 348.5,-560 348.5,-516 295.5,-516"/>
<text text-anchor="start" x="303" y="-545" font-family="Helvetica,sans-Serif" font-size="10.00">Tile.LDS</text>
<text text-anchor="start" x="309" y="-525.6" font-family="Helvetica,sans-Serif" font-size="8.00">128 KB</text>
<polygon fill="none" stroke="#2e7d32" points="295.5,-516 295.5,-560 348.5,-560 348.5,-516 295.5,-516"/>
</g>
<!-- function&#45;2&#45;attention_Tile_LDS&#45;&gt;function&#45;2&#45;attention_Tile_input -->
<g id="edge3" class="edge">
<title>function&#45;2&#45;attention_Tile_LDS&#45;&gt;function&#45;2&#45;attention_Tile_input</title>
<path fill="none" stroke="black" d="M321.17,-511.72C320.59,-493.97 319.8,-470 319.16,-450.35"/>
<polygon fill="black" stroke="black" points="322.65,-450.13 318.83,-440.25 315.66,-450.36 322.65,-450.13"/>
</g>
<!-- function&#45;0&#45;attention_Tile_LDR -->
<g id="node8" class="node">
<title>function&#45;0&#45;attention_Tile_LDR</title>
<polygon fill="#c8e6c9" stroke="transparent" points="739,-268 739,-312 793,-312 793,-268 739,-268"/>
<text text-anchor="start" x="746" y="-297" font-family="Helvetica,sans-Serif" font-size="10.00">Tile.LDR</text>
<text text-anchor="start" x="755" y="-277.6" font-family="Helvetica,sans-Serif" font-size="8.00">16 KB</text>
<polygon fill="none" stroke="#2e7d32" points="739,-268 739,-312 793,-312 793,-268 739,-268"/>
</g>
<!-- function&#45;0&#45;attention_Tile_LDR&#45;&gt;function&#45;0&#45;attention_Tile_LDS -->
<g id="edge4" class="edge">
<title>function&#45;0&#45;attention_Tile_LDR&#45;&gt;function&#45;0&#45;attention_Tile_LDS</title>
<path fill="none" stroke="black" d="M758.96,-263.72C753.99,-245.89 747.26,-221.77 741.78,-202.08"/>
<polygon fill="black" stroke="black" points="745.09,-200.94 739.04,-192.25 738.35,-202.82 745.09,-200.94"/>
</g>
<!-- function&#45;0&#45;attention_Tile_WGMMA -->
<g id="node9" class="node">
<title>function&#45;0&#45;attention_Tile_WGMMA</title>
<polygon fill="#e0e0e0" stroke="transparent" points="548,-401.5 548,-426.5 622,-426.5 622,-401.5 548,-401.5"/>
<text text-anchor="start" x="555" y="-411" font-family="Helvetica,sans-Serif" font-size="10.00" fill="#888888">Tile.WGMMA</text>
<polygon fill="none" stroke="#bdbdbd" points="548,-401.5 548,-426.5 622,-426.5 622,-401.5 548,-401.5"/>
</g>
<!-- function&#45;0&#45;attention_Tile_WGMMA&#45;&gt;function&#45;0&#45;attention_Tile_LDS -->
<g id="edge5" class="edge">
<title>function&#45;0&#45;attention_Tile_WGMMA&#45;&gt;function&#45;0&#45;attention_Tile_LDS</title>
<path fill="none" stroke="black" d="M595.34,-395.7C619.49,-355.28 679.99,-254.03 711.78,-200.84"/>
<polygon fill="black" stroke="black" points="714.87,-202.5 716.99,-192.12 708.86,-198.91 714.87,-202.5"/>
</g>
<!-- function&#45;0&#45;attention_Tile_WGMMA&#45;&gt;function&#45;1&#45;attention_Tile_LDS -->
<g id="edge6" class="edge">
<title>function&#45;0&#45;attention_Tile_WGMMA&#45;&gt;function&#45;1&#45;attention_Tile_LDS</title>
<path fill="none" stroke="black" d="M579.21,-395.78C573.14,-377.7 563.42,-348.77 555.73,-325.89"/>
<polygon fill="black" stroke="black" points="558.97,-324.55 552.46,-316.18 552.33,-326.78 558.97,-324.55"/>
</g>
<!-- function&#45;3&#45;attention_Tile_WGMMA -->
<g id="node10" class="node">
<title>function&#45;3&#45;attention_Tile_WGMMA</title>
<polygon fill="#fff9c4" stroke="transparent" points="688,-392 688,-436 762,-436 762,-392 688,-392"/>
<text text-anchor="start" x="695" y="-421" font-family="Helvetica,sans-Serif" font-size="10.00">Tile.WGMMA</text>
<text text-anchor="start" x="711.5" y="-401.6" font-family="Helvetica,sans-Serif" font-size="8.00">128 KB</text>
<polygon fill="none" stroke="#f9a825" points="688,-392 688,-436 762,-436 762,-392 688,-392"/>
</g>
<!-- function&#45;3&#45;attention_Tile_WGMMA&#45;&gt;function&#45;1&#45;attention_Tile_LDS -->
<g id="edge12" class="edge">
<title>function&#45;3&#45;attention_Tile_WGMMA&#45;&gt;function&#45;1&#45;attention_Tile_LDS</title>
<path fill="none" stroke="black" d="M687.5,-387.72C658.25,-368.01 617.6,-340.61 587.03,-320.01"/>
<polygon fill="black" stroke="black" points="588.94,-317.07 578.7,-314.39 585.03,-322.88 588.94,-317.07"/>
</g>
<!-- function&#45;3&#45;attention_Tile_WGMMA&#45;&gt;function&#45;0&#45;attention_Tile_LDR -->
<g id="edge11" class="edge">
<title>function&#45;3&#45;attention_Tile_WGMMA&#45;&gt;function&#45;0&#45;attention_Tile_LDR</title>
<path fill="none" stroke="black" d="M733.5,-387.72C739.51,-369.81 747.67,-345.55 754.3,-325.81"/>
<polygon fill="black" stroke="black" points="757.65,-326.84 757.52,-316.25 751.01,-324.61 757.65,-326.84"/>
</g>
<!-- function&#45;1&#45;attention_Tile_WGMMA -->
<g id="node11" class="node">
<title>function&#45;1&#45;attention_Tile_WGMMA</title>
<polygon fill="#c8e6c9" stroke="transparent" points="350,-640 350,-684 424,-684 424,-640 350,-640"/>
<text text-anchor="start" x="357" y="-669" font-family="Helvetica,sans-Serif" font-size="10.00">Tile.WGMMA</text>
<text text-anchor="start" x="373.5" y="-649.6" font-family="Helvetica,sans-Serif" font-size="8.00">128 KB</text>
<polygon fill="none" stroke="#2e7d32" points="350,-640 350,-684 424,-684 424,-640 350,-640"/>
</g>
<!-- function&#45;1&#45;attention_Tile_WGMMA&#45;&gt;function&#45;2&#45;attention_Tile_LDS -->
<g id="edge8" class="edge">
<title>function&#45;1&#45;attention_Tile_WGMMA&#45;&gt;function&#45;2&#45;attention_Tile_LDS</title>
<path fill="none" stroke="black" d="M373.53,-635.72C363.9,-617.65 350.83,-593.11 340.26,-573.27"/>
<polygon fill="black" stroke="black" points="343.24,-571.43 335.45,-564.25 337.06,-574.72 343.24,-571.43"/>
</g>
<!-- function&#45;2&#45;attention_Tile_WGMMA -->
<g id="node12" class="node">
<title>function&#45;2&#45;attention_Tile_WGMMA</title>
<polygon fill="#fff9c4" stroke="transparent" points="423,-516 423,-560 497,-560 497,-516 423,-516"/>
<text text-anchor="start" x="430" y="-545" font-family="Helvetica,sans-Serif" font-size="10.00">Tile.WGMMA</text>
<text text-anchor="start" x="446.5" y="-525.6" font-family="Helvetica,sans-Serif" font-size="8.00">128 KB</text>
<polygon fill="none" stroke="#f9a825" points="423,-516 423,-560 497,-560 497,-516 423,-516"/>
</g>
<!-- function&#45;1&#45;attention_Tile_WGMMA&#45;&gt;function&#45;2&#45;attention_Tile_WGMMA -->
<g id="edge7" class="edge">
<title>function&#45;1&#45;attention_Tile_WGMMA&#45;&gt;function&#45;2&#45;attention_Tile_WGMMA</title>
<path fill="none" stroke="black" d="M402.13,-635.72C412.99,-617.56 427.76,-592.89 439.65,-573"/>
<polygon fill="black" stroke="black" points="442.76,-574.62 444.89,-564.25 436.76,-571.03 442.76,-574.62"/>
</g>
<!-- function&#45;2&#45;attention_Tile_WGMMA&#45;&gt;function&#45;1&#45;attention_Tile_LDS -->
<g id="edge10" class="edge">
<title>function&#45;2&#45;attention_Tile_WGMMA&#45;&gt;function&#45;1&#45;attention_Tile_LDS</title>
<path fill="none" stroke="black" d="M468.67,-511.6C483.77,-467.38 514.91,-376.21 532.04,-326.02"/>
<polygon fill="black" stroke="black" points="535.45,-326.86 535.37,-316.26 528.83,-324.59 535.45,-326.86"/>
</g>
<!-- function&#45;1&#45;attention_Tile_Elementwise -->
<g id="node14" class="node">
<title>function&#45;1&#45;attention_Tile_Elementwise</title>
<polygon fill="#fff9c4" stroke="transparent" points="828,-392 828,-436 918,-436 918,-392 828,-392"/>
<text text-anchor="start" x="835" y="-421" font-family="Helvetica,sans-Serif" font-size="10.00">Tile.Elementwise</text>
<text text-anchor="start" x="864" y="-401.6" font-family="Helvetica,sans-Serif" font-size="8.00">0 KB</text>
<polygon fill="none" stroke="#f9a825" points="828,-392 828,-436 918,-436 918,-392 828,-392"/>
</g>
<!-- function&#45;2&#45;attention_Tile_WGMMA&#45;&gt;function&#45;1&#45;attention_Tile_Elementwise -->
<g id="edge9" class="edge">
<title>function&#45;2&#45;attention_Tile_WGMMA&#45;&gt;function&#45;1&#45;attention_Tile_Elementwise</title>
<path fill="none" stroke="black" d="M505.17,-513.34C513.28,-509.79 521.77,-506.48 530,-504 641.81,-470.29 680.22,-505.83 790,-466 803.82,-460.99 817.82,-453.5 830.29,-445.8"/>
<polygon fill="black" stroke="black" points="832.53,-448.52 839.07,-440.18 828.76,-442.62 832.53,-448.52"/>
</g>
<!-- function&#45;0&#45;attention_Tile_Elementwise -->
<g id="node13" class="node">
<title>function&#45;0&#45;attention_Tile_Elementwise</title>
<polygon fill="#fff9c4" stroke="transparent" points="563,-516 563,-560 653,-560 653,-516 563,-516"/>
<text text-anchor="start" x="570" y="-545" font-family="Helvetica,sans-Serif" font-size="10.00">Tile.Elementwise</text>
<text text-anchor="start" x="599" y="-525.6" font-family="Helvetica,sans-Serif" font-size="8.00">0 KB</text>
<polygon fill="none" stroke="#f9a825" points="563,-516 563,-560 653,-560 653,-516 563,-516"/>
</g>
<!-- function&#45;0&#45;attention_Tile_Elementwise&#45;&gt;function&#45;0&#45;attention_Tile_WGMMA -->
<g id="edge13" class="edge">
<title>function&#45;0&#45;attention_Tile_Elementwise&#45;&gt;function&#45;0&#45;attention_Tile_WGMMA</title>
<path fill="none" stroke="black" d="M603.23,-511.72C599.4,-491.4 594.03,-462.9 590.11,-442.1"/>
<polygon fill="black" stroke="black" points="593.5,-441.19 588.21,-432.01 586.62,-442.49 593.5,-441.19"/>
</g>
<!-- function&#45;1&#45;attention_Tile_Elementwise&#45;&gt;function&#45;0&#45;attention_Tile_LDR -->
<g id="edge14" class="edge">
<title>function&#45;1&#45;attention_Tile_Elementwise&#45;&gt;function&#45;0&#45;attention_Tile_LDR</title>
<path fill="none" stroke="black" d="M850.83,-387.72C834.62,-369.24 812.48,-344 794.88,-323.93"/>
<polygon fill="black" stroke="black" points="797.37,-321.46 788.14,-316.25 792.1,-326.07 797.37,-321.46"/>
</g>
<!-- function&#45;0&#45;attention_Tile_STS -->
<g id="node15" class="node">
<title>function&#45;0&#45;attention_Tile_STS</title>
<polygon fill="#c8e6c9" stroke="transparent" points="360.5,-764 360.5,-808 413.5,-808 413.5,-764 360.5,-764"/>
<text text-anchor="start" x="368" y="-793" font-family="Helvetica,sans-Serif" font-size="10.00">Tile.STS</text>
<text text-anchor="start" x="374" y="-773.6" font-family="Helvetica,sans-Serif" font-size="8.00">256 KB</text>
<polygon fill="none" stroke="#2e7d32" points="360.5,-764 360.5,-808 413.5,-808 413.5,-764 360.5,-764"/>
</g>
<!-- function&#45;0&#45;attention_Tile_STS&#45;&gt;function&#45;1&#45;attention_Tile_WGMMA -->
<g id="edge15" class="edge">
<title>function&#45;0&#45;attention_Tile_STS&#45;&gt;function&#45;1&#45;attention_Tile_WGMMA</title>
<path fill="none" stroke="black" d="M387,-759.72C387,-741.97 387,-718 387,-698.35"/>
<polygon fill="black" stroke="black" points="390.5,-698.25 387,-688.25 383.5,-698.25 390.5,-698.25"/>
</g>
<!-- function&#45;0&#45;attention_Tile_STG -->
<g id="node16" class="node">
<title>function&#45;0&#45;attention_Tile_STG</title>
<polygon fill="#c8e6c9" stroke="transparent" points="360,-888 360,-932 414,-932 414,-888 360,-888"/>
<text text-anchor="start" x="367" y="-917" font-family="Helvetica,sans-Serif" font-size="10.00">Tile.STG</text>
<text text-anchor="start" x="373.5" y="-897.6" font-family="Helvetica,sans-Serif" font-size="8.00">256 KB</text>
<polygon fill="none" stroke="#2e7d32" points="360,-888 360,-932 414,-932 414,-888 360,-888"/>
</g>
<!-- function&#45;0&#45;attention_Tile_STG&#45;&gt;function&#45;0&#45;attention_Tile_STS -->
<g id="edge16" class="edge">
<title>function&#45;0&#45;attention_Tile_STG&#45;&gt;function&#45;0&#45;attention_Tile_STS</title>
<path fill="none" stroke="black" d="M387,-883.72C387,-865.97 387,-842 387,-822.35"/>
<polygon fill="black" stroke="black" points="390.5,-822.25 387,-812.25 383.5,-822.25 390.5,-822.25"/>
</g>
</g>
</svg>
