<?xml version="1.0" encoding="UTF-8" standalone="no"?>
<!DOCTYPE svg PUBLIC "-//W3C//DTD SVG 1.1//EN"
 "http://www.w3.org/Graphics/SVG/1.1/DTD/svg11.dtd">
<!-- Generated by graphviz version 2.50.0 (0)
 -->
<!-- Pages: 1 -->
<svg width="628pt" height="648pt"
 viewBox="0.00 0.00 628.00 648.00" xmlns="http://www.w3.org/2000/svg" xmlns:xlink="http://www.w3.org/1999/xlink">
<g id="graph0" class="graph" transform="scale(1 1) rotate(0) translate(4 644)">
<polygon fill="white" stroke="transparent" points="-4,4 -4,-644 624,-644 624,4 -4,4"/>
<g id="clust8" class="cluster">
<title>cluster_attention.Tile&#45;12</title>
<path fill="#e8f5e9" stroke="black" stroke-dasharray="5,2" d="M304,-166C304,-166 366,-166 366,-166 372,-166 378,-172 378,-178 378,-178 378,-224 378,-224 378,-230 372,-236 366,-236 366,-236 304,-236 304,-236 298,-236 292,-230 292,-224 292,-224 292,-178 292,-178 292,-172 298,-166 304,-166"/>
<text text-anchor="middle" x="335" y="-224.8" font-family="Helvetica,sans-Serif" font-size="9.00" fill="#666666">12 &#160;(16 KB)</text>
</g>
<g id="clust12" class="cluster">
<title>cluster_attention.Tile&#45;13</title>
<path fill="#e8f5e9" stroke="black" stroke-dasharray="5,2" d="M278,-245C278,-245 376,-245 376,-245 382,-245 388,-251 388,-257 388,-257 388,-303 388,-303 388,-309 382,-315 376,-315 376,-315 278,-315 278,-315 272,-315 266,-309 266,-303 266,-303 266,-257 266,-257 266,-251 272,-245 278,-245"/>
<text text-anchor="middle" x="327" y="-303.8" font-family="Helvetica,sans-Serif" font-size="9.00" fill="#666666">13</text>
</g>
<g id="clust14" class="cluster">
<title>cluster_attention.Tile&#45;10</title>
<path fill="#ffcccc" stroke="black" stroke-dasharray="5,2" d="M295,-562C295,-562 357,-562 357,-562 363,-562 369,-568 369,-574 369,-574 369,-620 369,-620 369,-626 363,-632 357,-632 357,-632 295,-632 295,-632 289,-632 283,-626 283,-620 283,-620 283,-574 283,-574 283,-568 289,-562 295,-562"/>
<text text-anchor="middle" x="326" y="-620.8" font-family="Helvetica,sans-Serif" font-size="9.00" fill="#666666">10 &#160;(256 KB)</text>
</g>
<g id="clust1" class="cluster">
<title>cluster_legend</title>
<path fill="none" stroke="#999999" d="M20,-561C20,-561 258,-561 258,-561 264,-561 270,-567 270,-573 270,-573 270,-603 270,-603 270,-609 264,-615 258,-615 258,-615 20,-615 20,-615 14,-615 8,-609 8,-603 8,-603 8,-573 8,-573 8,-567 14,-561 20,-561"/>
</g>
<g id="clust4" class="cluster">
<title>cluster_attention.Tile&#45;2</title>
<path fill="#e8f5e9" stroke="black" stroke-dasharray="5,2" d="M109,-245C109,-245 241,-245 241,-245 247,-245 253,-251 253,-257 253,-257 253,-303 253,-303 253,-309 247,-315 241,-315 241,-315 109,-315 109,-315 103,-315 97,-309 97,-303 97,-303 97,-257 97,-257 97,-251 103,-245 109,-245"/>
<text text-anchor="middle" x="175" y="-303.8" font-family="Helvetica,sans-Serif" font-size="9.00" fill="#666666">2</text>
</g>
<g id="clust3" class="cluster">
<title>cluster_attention.Tile&#45;1</title>
<path fill="#e8f5e9" stroke="black" stroke-dasharray="5,2" d="M468,-87C468,-87 600,-87 600,-87 606,-87 612,-93 612,-99 612,-99 612,-145 612,-145 612,-151 606,-157 600,-157 600,-157 468,-157 468,-157 462,-157 456,-151 456,-145 456,-145 456,-99 456,-99 456,-93 462,-87 468,-87"/>
<text text-anchor="middle" x="534" y="-145.8" font-family="Helvetica,sans-Serif" font-size="9.00" fill="#666666">1</text>
</g>
<g id="clust2" class="cluster">
<title>cluster_attention.Tile&#45;0</title>
<path fill="#e8f5e9" stroke="black" stroke-dasharray="5,2" d="M301,-8C301,-8 435,-8 435,-8 441,-8 447,-14 447,-20 447,-20 447,-66 447,-66 447,-72 441,-78 435,-78 435,-78 301,-78 301,-78 295,-78 289,-72 289,-66 289,-66 289,-20 289,-20 289,-14 295,-8 301,-8"/>
<text text-anchor="middle" x="368" y="-66.8" font-family="Helvetica,sans-Serif" font-size="9.00" fill="#666666">0</text>
</g>
<g id="clust5" class="cluster">
<title>cluster_attention.Tile&#45;3</title>
<path fill="#e8f5e9" stroke="black" stroke-dasharray="5,2" d="M337,-87C337,-87 399,-87 399,-87 405,-87 411,-93 411,-99 411,-99 411,-145 411,-145 411,-151 405,-157 399,-157 399,-157 337,-157 337,-157 331,-157 325,-151 325,-145 325,-145 325,-99 325,-99 325,-93 331,-87 337,-87"/>
<text text-anchor="middle" x="368" y="-145.8" font-family="Helvetica,sans-Serif" font-size="9.00" fill="#666666">3 &#160;(16 KB)</text>
</g>
<g id="clust6" class="cluster">
<title>cluster_attention.Tile&#45;4</title>
<path fill="#e8f5e9" stroke="black" stroke-dasharray="5,2" d="M503,-166C503,-166 565,-166 565,-166 571,-166 577,-172 577,-178 577,-178 577,-224 577,-224 577,-230 571,-236 565,-236 565,-236 503,-236 503,-236 497,-236 491,-230 491,-224 491,-224 491,-178 491,-178 491,-172 497,-166 503,-166"/>
<text text-anchor="middle" x="534" y="-224.8" font-family="Helvetica,sans-Serif" font-size="9.00" fill="#666666">4 &#160;(128 KB)</text>
</g>
<g id="clust7" class="cluster">
<title>cluster_attention.Tile&#45;7</title>
<path fill="#e8f5e9" stroke="black" stroke-dasharray="5,2" d="M175,-324C175,-324 237,-324 237,-324 243,-324 249,-330 249,-336 249,-336 249,-382 249,-382 249,-388 243,-394 237,-394 237,-394 175,-394 175,-394 169,-394 163,-388 163,-382 163,-382 163,-336 163,-336 163,-330 169,-324 175,-324"/>
<text text-anchor="middle" x="206" y="-382.8" font-family="Helvetica,sans-Serif" font-size="9.00" fill="#666666">7 &#160;(128 KB)</text>
</g>
<g id="clust9" class="cluster">
<title>cluster_attention.Tile&#45;5</title>
<path fill="#f5f5f5" stroke="black" stroke-dasharray="5,2" d="M413,-245C413,-245 495,-245 495,-245 501,-245 507,-251 507,-257 507,-257 507,-303 507,-303 507,-309 501,-315 495,-315 495,-315 413,-315 413,-315 407,-315 401,-309 401,-303 401,-303 401,-257 401,-257 401,-251 407,-245 413,-245"/>
<text text-anchor="middle" x="454" y="-303.8" font-family="Helvetica,sans-Serif" font-size="9.00" fill="#666666">5</text>
</g>
<g id="clust10" class="cluster">
<title>cluster_attention.Tile&#45;8</title>
<path fill="#e8f5e9" stroke="black" stroke-dasharray="5,2" d="M285,-403C285,-403 367,-403 367,-403 373,-403 379,-409 379,-415 379,-415 379,-461 379,-461 379,-467 373,-473 367,-473 367,-473 285,-473 285,-473 279,-473 273,-467 273,-461 273,-461 273,-415 273,-415 273,-409 279,-403 285,-403"/>
<text text-anchor="middle" x="326" y="-461.8" font-family="Helvetica,sans-Serif" font-size="9.00" fill="#666666">8 &#160;(128 KB)</text>
</g>
<g id="clust11" class="cluster">
<title>cluster_attention.Tile&#45;6</title>
<path fill="#e8f5e9" stroke="black" stroke-dasharray="5,2" d="M336,-324C336,-324 553,-324 553,-324 559,-324 565,-330 565,-336 565,-336 565,-382 565,-382 565,-388 559,-394 553,-394 553,-394 336,-394 336,-394 330,-394 324,-388 324,-382 324,-382 324,-336 324,-336 324,-330 330,-324 336,-324"/>
<text text-anchor="middle" x="444.5" y="-382.8" font-family="Helvetica,sans-Serif" font-size="9.00" fill="#666666">6 &#160;(128 KB)</text>
</g>
<g id="clust13" class="cluster">
<title>cluster_attention.Tile&#45;9</title>
<path fill="#e8f5e9" stroke="black" stroke-dasharray="5,2" d="M295,-482C295,-482 357,-482 357,-482 363,-482 369,-488 369,-494 369,-494 369,-540 369,-540 369,-546 363,-552 357,-552 357,-552 295,-552 295,-552 289,-552 283,-546 283,-540 283,-540 283,-494 283,-494 283,-488 289,-482 295,-482"/>
<text text-anchor="middle" x="326" y="-540.8" font-family="Helvetica,sans-Serif" font-size="9.00" fill="#666666">9 &#160;(256 KB)</text>
</g>
<!-- legend -->
<g id="node1" class="node">
<title>legend</title>
<polygon fill="#ffffee" stroke="black" points="256,-607 16,-607 16,-569 262,-569 262,-601 256,-607"/>
<polyline fill="none" stroke="black" points="256,-607 256,-601 "/>
<polyline fill="none" stroke="black" points="262,-601 256,-601 "/>
<text text-anchor="middle" x="139" y="-595.8" font-family="Helvetica,sans-Serif" font-size="9.00">Costs shown are for the ILP&#45;selected optimal DAG path.</text>
<text text-anchor="middle" x="139" y="-585.8" font-family="Helvetica,sans-Serif" font-size="9.00">Total traffic: 1,056 KB (1,081,344 bytes)</text>
<text text-anchor="middle" x="139" y="-575.8" font-family="Helvetica,sans-Serif" font-size="9.00">Green = selected node &#160;| &#160;Gray = alternative (not chosen)</text>
</g>
<!-- function&#45;0&#45;attention_Tile_input -->
<g id="node2" class="node">
<title>function&#45;0&#45;attention_Tile_input</title>
<polygon fill="#c8e6c9" stroke="transparent" points="305.5,-21.5 305.5,-46.5 430.5,-46.5 430.5,-21.5 305.5,-21.5"/>
<text text-anchor="start" x="313" y="-31" font-family="Helvetica,sans-Serif" font-size="10.00">Tile.input(&quot;Q&quot;, 128, 64, 2)</text>
<polygon fill="none" stroke="#2e7d32" points="305.5,-21.5 305.5,-46.5 430.5,-46.5 430.5,-21.5 305.5,-21.5"/>
</g>
<!-- function&#45;1&#45;attention_Tile_input -->
<g id="node3" class="node">
<title>function&#45;1&#45;attention_Tile_input</title>
<polygon fill="#c8e6c9" stroke="transparent" points="472,-100.5 472,-125.5 596,-125.5 596,-100.5 472,-100.5"/>
<text text-anchor="start" x="479" y="-110" font-family="Helvetica,sans-Serif" font-size="10.00">Tile.input(&quot;K&quot;, 64, 128, 2)</text>
<polygon fill="none" stroke="#2e7d32" points="472,-100.5 472,-125.5 596,-125.5 596,-100.5 472,-100.5"/>
</g>
<!-- function&#45;2&#45;attention_Tile_input -->
<g id="node4" class="node">
<title>function&#45;2&#45;attention_Tile_input</title>
<polygon fill="#c8e6c9" stroke="transparent" points="113,-258.5 113,-283.5 237,-283.5 237,-258.5 113,-258.5"/>
<text text-anchor="start" x="120" y="-268" font-family="Helvetica,sans-Serif" font-size="10.00">Tile.input(&quot;V&quot;, 128, 64, 2)</text>
<polygon fill="none" stroke="#2e7d32" points="113,-258.5 113,-283.5 237,-283.5 237,-258.5 113,-258.5"/>
</g>
<!-- function&#45;0&#45;attention_Tile_LDS -->
<g id="node5" class="node">
<title>function&#45;0&#45;attention_Tile_LDS</title>
<polygon fill="#c8e6c9" stroke="transparent" points="341.5,-100.5 341.5,-125.5 394.5,-125.5 394.5,-100.5 341.5,-100.5"/>
<text text-anchor="start" x="349" y="-110" font-family="Helvetica,sans-Serif" font-size="10.00">Tile.LDS</text>
<polygon fill="none" stroke="#2e7d32" points="341.5,-100.5 341.5,-125.5 394.5,-125.5 394.5,-100.5 341.5,-100.5"/>
</g>
<!-- function&#45;0&#45;attention_Tile_LDS&#45;&gt;function&#45;0&#45;attention_Tile_input -->
<g id="edge1" class="edge">
<title>function&#45;0&#45;attention_Tile_LDS&#45;&gt;function&#45;0&#45;attention_Tile_input</title>
<path fill="none" stroke="black" d="M368,-94.91C368,-85.34 368,-73.18 368,-62.32"/>
<polygon fill="black" stroke="black" points="371.5,-62.04 368,-52.04 364.5,-62.04 371.5,-62.04"/>
</g>
<!-- function&#45;1&#45;attention_Tile_LDS -->
<g id="node6" class="node">
<title>function&#45;1&#45;attention_Tile_LDS</title>
<polygon fill="#c8e6c9" stroke="transparent" points="507.5,-179.5 507.5,-204.5 560.5,-204.5 560.5,-179.5 507.5,-179.5"/>
<text text-anchor="start" x="515" y="-189" font-family="Helvetica,sans-Serif" font-size="10.00">Tile.LDS</text>
<polygon fill="none" stroke="#2e7d32" points="507.5,-179.5 507.5,-204.5 560.5,-204.5 560.5,-179.5 507.5,-179.5"/>
</g>
<!-- function&#45;1&#45;attention_Tile_LDS&#45;&gt;function&#45;1&#45;attention_Tile_input -->
<g id="edge2" class="edge">
<title>function&#45;1&#45;attention_Tile_LDS&#45;&gt;function&#45;1&#45;attention_Tile_input</title>
<path fill="none" stroke="black" d="M534,-173.91C534,-164.34 534,-152.18 534,-141.32"/>
<polygon fill="black" stroke="black" points="537.5,-141.04 534,-131.04 530.5,-141.04 537.5,-141.04"/>
</g>
<!-- function&#45;2&#45;attention_Tile_LDS -->
<g id="node7" class="node">
<title>function&#45;2&#45;attention_Tile_LDS</title>
<polygon fill="#c8e6c9" stroke="transparent" points="179.5,-337.5 179.5,-362.5 232.5,-362.5 232.5,-337.5 179.5,-337.5"/>
<text text-anchor="start" x="187" y="-347" font-family="Helvetica,sans-Serif" font-size="10.00">Tile.LDS</text>
<polygon fill="none" stroke="#2e7d32" points="179.5,-337.5 179.5,-362.5 232.5,-362.5 232.5,-337.5 179.5,-337.5"/>
</g>
<!-- function&#45;2&#45;attention_Tile_LDS&#45;&gt;function&#45;2&#45;attention_Tile_input -->
<g id="edge3" class="edge">
<title>function&#45;2&#45;attention_Tile_LDS&#45;&gt;function&#45;2&#45;attention_Tile_input</title>
<path fill="none" stroke="black" d="M199.12,-331.91C195.19,-322.14 190.17,-309.68 185.73,-298.65"/>
<polygon fill="black" stroke="black" points="188.84,-297.01 181.86,-289.04 182.35,-299.62 188.84,-297.01"/>
</g>
<!-- function&#45;0&#45;attention_Tile_LDR -->
<g id="node8" class="node">
<title>function&#45;0&#45;attention_Tile_LDR</title>
<polygon fill="#c8e6c9" stroke="transparent" points="308,-179.5 308,-204.5 362,-204.5 362,-179.5 308,-179.5"/>
<text text-anchor="start" x="315" y="-189" font-family="Helvetica,sans-Serif" font-size="10.00">Tile.LDR</text>
<polygon fill="none" stroke="#2e7d32" points="308,-179.5 308,-204.5 362,-204.5 362,-179.5 308,-179.5"/>
</g>
<!-- function&#45;0&#45;attention_Tile_LDR&#45;&gt;function&#45;0&#45;attention_Tile_LDS -->
<g id="edge4" class="edge">
<title>function&#45;0&#45;attention_Tile_LDR&#45;&gt;function&#45;0&#45;attention_Tile_LDS</title>
<path fill="none" stroke="black" d="M342.32,-173.91C346.55,-164.04 351.96,-151.42 356.72,-140.31"/>
<polygon fill="black" stroke="black" points="359.97,-141.61 360.7,-131.04 353.54,-138.85 359.97,-141.61"/>
</g>
<!-- function&#45;0&#45;attention_Tile_WGMMA -->
<g id="node9" class="node">
<title>function&#45;0&#45;attention_Tile_WGMMA</title>
<polygon fill="#e0e0e0" stroke="transparent" points="417,-258.5 417,-283.5 491,-283.5 491,-258.5 417,-258.5"/>
<text text-anchor="start" x="424" y="-268" font-family="Helvetica,sans-Serif" font-size="10.00" fill="#888888">Tile.WGMMA</text>
<polygon fill="none" stroke="#bdbdbd" points="417,-258.5 417,-283.5 491,-283.5 491,-258.5 417,-258.5"/>
</g>
<!-- function&#45;0&#45;attention_Tile_WGMMA&#45;&gt;function&#45;0&#45;attention_Tile_LDS -->
<g id="edge5" class="edge">
<title>function&#45;0&#45;attention_Tile_WGMMA&#45;&gt;function&#45;0&#45;attention_Tile_LDS</title>
<path fill="none" stroke="black" d="M444.47,-252.71C429.42,-225.42 400.07,-172.17 382.43,-140.18"/>
<polygon fill="black" stroke="black" points="385.47,-138.44 377.57,-131.37 379.34,-141.82 385.47,-138.44"/>
</g>
<!-- function&#45;0&#45;attention_Tile_WGMMA&#45;&gt;function&#45;1&#45;attention_Tile_LDS -->
<g id="edge6" class="edge">
<title>function&#45;0&#45;attention_Tile_WGMMA&#45;&gt;function&#45;1&#45;attention_Tile_LDS</title>
<path fill="none" stroke="black" d="M471.75,-252.91C482.73,-242.34 496.99,-228.62 509.09,-216.98"/>
<polygon fill="black" stroke="black" points="511.52,-219.5 516.3,-210.04 506.66,-214.45 511.52,-219.5"/>
</g>
<!-- function&#45;1&#45;attention_Tile_WGMMA -->
<g id="node10" class="node">
<title>function&#45;1&#45;attention_Tile_WGMMA</title>
<polygon fill="#c8e6c9" stroke="transparent" points="289,-416.5 289,-441.5 363,-441.5 363,-416.5 289,-416.5"/>
<text text-anchor="start" x="296" y="-426" font-family="Helvetica,sans-Serif" font-size="10.00">Tile.WGMMA</text>
<polygon fill="none" stroke="#2e7d32" points="289,-416.5 289,-441.5 363,-441.5 363,-416.5 289,-416.5"/>
</g>
<!-- function&#45;1&#45;attention_Tile_WGMMA&#45;&gt;function&#45;2&#45;attention_Tile_LDS -->
<g id="edge8" class="edge">
<title>function&#45;1&#45;attention_Tile_WGMMA&#45;&gt;function&#45;2&#45;attention_Tile_LDS</title>
<path fill="none" stroke="black" d="M299.37,-410.91C282.2,-399.9 259.69,-385.45 241.07,-373.51"/>
<polygon fill="black" stroke="black" points="242.86,-370.5 232.56,-368.04 239.08,-376.39 242.86,-370.5"/>
</g>
<!-- function&#45;2&#45;attention_Tile_WGMMA -->
<g id="node11" class="node">
<title>function&#45;2&#45;attention_Tile_WGMMA</title>
<polygon fill="#c8e6c9" stroke="transparent" points="475,-337.5 475,-362.5 549,-362.5 549,-337.5 475,-337.5"/>
<text text-anchor="start" x="482" y="-347" font-family="Helvetica,sans-Serif" font-size="10.00">Tile.WGMMA</text>
<polygon fill="none" stroke="#2e7d32" points="475,-337.5 475,-362.5 549,-362.5 549,-337.5 475,-337.5"/>
</g>
<!-- function&#45;1&#45;attention_Tile_WGMMA&#45;&gt;function&#45;2&#45;attention_Tile_WGMMA -->
<g id="edge7" class="edge">
<title>function&#45;1&#45;attention_Tile_WGMMA&#45;&gt;function&#45;2&#45;attention_Tile_WGMMA</title>
<path fill="none" stroke="black" d="M371.21,-420.13C396.13,-414.76 427.15,-406.35 453,-394 463.97,-388.76 475,-381.41 484.51,-374.27"/>
<polygon fill="black" stroke="black" points="486.69,-377.01 492.43,-368.1 482.39,-371.48 486.69,-377.01"/>
</g>
<!-- function&#45;2&#45;attention_Tile_WGMMA&#45;&gt;function&#45;1&#45;attention_Tile_LDS -->
<g id="edge10" class="edge">
<title>function&#45;2&#45;attention_Tile_WGMMA&#45;&gt;function&#45;1&#45;attention_Tile_LDS</title>
<path fill="none" stroke="black" d="M514.44,-331.71C518.24,-304.77 525.6,-252.54 530.13,-220.42"/>
<polygon fill="black" stroke="black" points="533.62,-220.76 531.55,-210.37 526.69,-219.78 533.62,-220.76"/>
</g>
<!-- function&#45;1&#45;attention_Tile_Elementwise -->
<g id="node13" class="node">
<title>function&#45;1&#45;attention_Tile_Elementwise</title>
<polygon fill="#c8e6c9" stroke="transparent" points="282,-258.5 282,-283.5 372,-283.5 372,-258.5 282,-258.5"/>
<text text-anchor="start" x="289" y="-268" font-family="Helvetica,sans-Serif" font-size="10.00">Tile.Elementwise</text>
<polygon fill="none" stroke="#2e7d32" points="282,-258.5 282,-283.5 372,-283.5 372,-258.5 282,-258.5"/>
</g>
<!-- function&#45;2&#45;attention_Tile_WGMMA&#45;&gt;function&#45;1&#45;attention_Tile_Elementwise -->
<g id="edge9" class="edge">
<title>function&#45;2&#45;attention_Tile_WGMMA&#45;&gt;function&#45;1&#45;attention_Tile_Elementwise</title>
<path fill="none" stroke="black" d="M475.69,-331.95C468.3,-328.95 460.49,-326.12 453,-324 427.48,-316.77 418.82,-324.37 394,-315 381.04,-310.11 367.96,-302.46 356.84,-294.96"/>
<polygon fill="black" stroke="black" points="358.58,-291.9 348.38,-289.03 354.56,-297.63 358.58,-291.9"/>
</g>
<!-- function&#45;0&#45;attention_Tile_Elementwise -->
<g id="node12" class="node">
<title>function&#45;0&#45;attention_Tile_Elementwise</title>
<polygon fill="#e0e0e0" stroke="transparent" points="340,-337.5 340,-362.5 430,-362.5 430,-337.5 340,-337.5"/>
<text text-anchor="start" x="347" y="-347" font-family="Helvetica,sans-Serif" font-size="10.00" fill="#888888">Tile.Elementwise</text>
<polygon fill="none" stroke="#bdbdbd" points="340,-337.5 340,-362.5 430,-362.5 430,-337.5 340,-337.5"/>
</g>
<!-- function&#45;0&#45;attention_Tile_Elementwise&#45;&gt;function&#45;0&#45;attention_Tile_WGMMA -->
<g id="edge11" class="edge">
<title>function&#45;0&#45;attention_Tile_Elementwise&#45;&gt;function&#45;0&#45;attention_Tile_WGMMA</title>
<path fill="none" stroke="black" d="M400.31,-331.91C409.6,-321.54 421.62,-308.14 431.92,-296.64"/>
<polygon fill="black" stroke="black" points="434.66,-298.82 438.73,-289.04 429.45,-294.15 434.66,-298.82"/>
</g>
<!-- function&#45;1&#45;attention_Tile_Elementwise&#45;&gt;function&#45;0&#45;attention_Tile_LDR -->
<g id="edge12" class="edge">
<title>function&#45;1&#45;attention_Tile_Elementwise&#45;&gt;function&#45;0&#45;attention_Tile_LDR</title>
<path fill="none" stroke="black" d="M328.78,-252.91C329.77,-243.34 331.03,-231.18 332.16,-220.32"/>
<polygon fill="black" stroke="black" points="335.68,-220.35 333.23,-210.04 328.71,-219.63 335.68,-220.35"/>
</g>
<!-- function&#45;0&#45;attention_Tile_STS -->
<g id="node14" class="node">
<title>function&#45;0&#45;attention_Tile_STS</title>
<polygon fill="#c8e6c9" stroke="transparent" points="299.5,-495.5 299.5,-520.5 352.5,-520.5 352.5,-495.5 299.5,-495.5"/>
<text text-anchor="start" x="307" y="-505" font-family="Helvetica,sans-Serif" font-size="10.00">Tile.STS</text>
<polygon fill="none" stroke="#2e7d32" points="299.5,-495.5 299.5,-520.5 352.5,-520.5 352.5,-495.5 299.5,-495.5"/>
</g>
<!-- function&#45;0&#45;attention_Tile_STS&#45;&gt;function&#45;1&#45;attention_Tile_WGMMA -->
<g id="edge13" class="edge">
<title>function&#45;0&#45;attention_Tile_STS&#45;&gt;function&#45;1&#45;attention_Tile_WGMMA</title>
<path fill="none" stroke="black" d="M326,-489.91C326,-480.34 326,-468.18 326,-457.32"/>
<polygon fill="black" stroke="black" points="329.5,-457.04 326,-447.04 322.5,-457.04 329.5,-457.04"/>
</g>
<!-- function&#45;0&#45;attention_Tile_STG -->
<g id="node15" class="node">
<title>function&#45;0&#45;attention_Tile_STG</title>
<polygon fill="#c8e6c9" stroke="transparent" points="299,-575.5 299,-600.5 353,-600.5 353,-575.5 299,-575.5"/>
<text text-anchor="start" x="306" y="-585" font-family="Helvetica,sans-Serif" font-size="10.00">Tile.STG</text>
<polygon fill="none" stroke="#2e7d32" points="299,-575.5 299,-600.5 353,-600.5 353,-575.5 299,-575.5"/>
</g>
<!-- function&#45;0&#45;attention_Tile_STG&#45;&gt;function&#45;0&#45;attention_Tile_STS -->
<g id="edge14" class="edge">
<title>function&#45;0&#45;attention_Tile_STG&#45;&gt;function&#45;0&#45;attention_Tile_STS</title>
<path fill="none" stroke="black" d="M326,-569.69C326,-559.89 326,-547.42 326,-536.33"/>
<polygon fill="black" stroke="black" points="329.5,-536.26 326,-526.26 322.5,-536.26 329.5,-536.26"/>
</g>
</g>
</svg>
