<?xml version="1.0" encoding="UTF-8" standalone="no"?>
<!DOCTYPE svg PUBLIC "-//W3C//DTD SVG 1.1//EN"
 "http://www.w3.org/Graphics/SVG/1.1/DTD/svg11.dtd">
<!-- Generated by graphviz version 13.1.2 (20250808.2320)
 -->
<!-- Pages: 1 -->
<svg width="990pt" height="963pt"
 viewBox="0.00 0.00 990.00 963.00" xmlns="http://www.w3.org/2000/svg" xmlns:xlink="http://www.w3.org/1999/xlink">
<g id="graph0" class="graph" transform="scale(1 1) rotate(0) translate(4 959.25)">
<polygon fill="white" stroke="none" points="-4,4 -4,-959.25 986,-959.25 986,4 -4,4"/>
<g id="clust1" class="cluster">
<title>cluster_legend</title>
<path fill="none" stroke="#999999" d="M20,-872C20,-872 296,-872 296,-872 302,-872 308,-878 308,-884 308,-884 308,-923 308,-923 308,-929 302,-935 296,-935 296,-935 20,-935 20,-935 14,-935 8,-929 8,-923 8,-923 8,-884 8,-884 8,-878 14,-872 20,-872"/>
</g>
<g id="clust2" class="cluster">
<title>cluster_attention.Tile&#45;0</title>
<path fill="#e8f5e9" stroke="black" stroke-dasharray="5,2" d="M574,-8C574,-8 706,-8 706,-8 712,-8 718,-14 718,-20 718,-20 718,-65.75 718,-65.75 718,-71.75 712,-77.75 706,-77.75 706,-77.75 574,-77.75 574,-77.75 568,-77.75 562,-71.75 562,-65.75 562,-65.75 562,-20 562,-20 562,-14 568,-8 574,-8"/>
<text xml:space="preserve" text-anchor="middle" x="640" y="-65.2" font-family="Helvetica,sans-Serif" font-size="9.00" fill="#666666">0</text>
</g>
<g id="clust3" class="cluster">
<title>cluster_attention.Tile&#45;1</title>
<path fill="#e8f5e9" stroke="black" stroke-dasharray="5,2" d="M830,-224C830,-224 962,-224 962,-224 968,-224 974,-230 974,-236 974,-236 974,-281.75 974,-281.75 974,-287.75 968,-293.75 962,-293.75 962,-293.75 830,-293.75 830,-293.75 824,-293.75 818,-287.75 818,-281.75 818,-281.75 818,-236 818,-236 818,-230 824,-224 830,-224"/>
<text xml:space="preserve" text-anchor="middle" x="896" y="-281.2" font-family="Helvetica,sans-Serif" font-size="9.00" fill="#666666">1</text>
</g>
<g id="clust4" class="cluster">
<title>cluster_attention.Tile&#45;2</title>
<path fill="#e8f5e9" stroke="black" stroke-dasharray="5,2" d="M99,-440C99,-440 231,-440 231,-440 237,-440 243,-446 243,-452 243,-452 243,-497.75 243,-497.75 243,-503.75 237,-509.75 231,-509.75 231,-509.75 99,-509.75 99,-509.75 93,-509.75 87,-503.75 87,-497.75 87,-497.75 87,-452 87,-452 87,-446 93,-440 99,-440"/>
<text xml:space="preserve" text-anchor="middle" x="165" y="-497.2" font-family="Helvetica,sans-Serif" font-size="9.00" fill="#666666">2</text>
</g>
<g id="clust5" class="cluster">
<title>cluster_attention.Tile&#45;3</title>
<path fill="#e8f5e9" stroke="black" stroke-dasharray="5,2" d="M610,-116C610,-116 670,-116 670,-116 676,-116 682,-122 682,-128 682,-128 682,-173.75 682,-173.75 682,-179.75 676,-185.75 670,-185.75 670,-185.75 610,-185.75 610,-185.75 604,-185.75 598,-179.75 598,-173.75 598,-173.75 598,-128 598,-128 598,-122 604,-116 610,-116"/>
<text xml:space="preserve" text-anchor="middle" x="640" y="-173.2" font-family="Helvetica,sans-Serif" font-size="9.00" fill="#666666">3 &#160;(16 KB)</text>
</g>
<g id="clust6" class="cluster">
<title>cluster_attention.Tile&#45;4</title>
<path fill="#e8f5e9" stroke="black" stroke-dasharray="5,2" d="M866,-332C866,-332 926,-332 926,-332 932,-332 938,-338 938,-344 938,-344 938,-389.75 938,-389.75 938,-395.75 932,-401.75 926,-401.75 926,-401.75 866,-401.75 866,-401.75 860,-401.75 854,-395.75 854,-389.75 854,-389.75 854,-344 854,-344 854,-338 860,-332 866,-332"/>
<text xml:space="preserve" text-anchor="middle" x="896" y="-389.2" font-family="Helvetica,sans-Serif" font-size="9.00" fill="#666666">4 &#160;(128 KB)</text>
</g>
<g id="clust7" class="cluster">
<title>cluster_attention.Tile&#45;7</title>
<path fill="#e8f5e9" stroke="black" stroke-dasharray="5,2" d="M213,-548C213,-548 273,-548 273,-548 279,-548 285,-554 285,-560 285,-560 285,-605.75 285,-605.75 285,-611.75 279,-617.75 273,-617.75 273,-617.75 213,-617.75 213,-617.75 207,-617.75 201,-611.75 201,-605.75 201,-605.75 201,-560 201,-560 201,-554 207,-548 213,-548"/>
<text xml:space="preserve" text-anchor="middle" x="243" y="-605.2" font-family="Helvetica,sans-Serif" font-size="9.00" fill="#666666">7 &#160;(128 KB)</text>
</g>
<g id="clust8" class="cluster">
<title>cluster_attention.Tile&#45;12</title>
<path fill="#e8f5e9" stroke="black" stroke-dasharray="5,2" d="M524,-224C524,-224 586,-224 586,-224 592,-224 598,-230 598,-236 598,-236 598,-281.75 598,-281.75 598,-287.75 592,-293.75 586,-293.75 586,-293.75 524,-293.75 524,-293.75 518,-293.75 512,-287.75 512,-281.75 512,-281.75 512,-236 512,-236 512,-230 518,-224 524,-224"/>
<text xml:space="preserve" text-anchor="middle" x="555" y="-281.2" font-family="Helvetica,sans-Serif" font-size="9.00" fill="#666666">12 &#160;(16 KB)</text>
</g>
<g id="clust9" class="cluster">
<title>cluster_attention.Tile&#45;16</title>
<path fill="#f5f5f5" stroke="black" stroke-dasharray="5,2" d="M464,-332C464,-332 526,-332 526,-332 532,-332 538,-338 538,-344 538,-344 538,-389.75 538,-389.75 538,-395.75 532,-401.75 526,-401.75 526,-401.75 464,-401.75 464,-401.75 458,-401.75 452,-395.75 452,-389.75 452,-389.75 452,-344 452,-344 452,-338 458,-332 464,-332"/>
<text xml:space="preserve" text-anchor="middle" x="495" y="-389.2" font-family="Helvetica,sans-Serif" font-size="9.00" fill="#666666">16</text>
</g>
<g id="clust10" class="cluster">
<title>cluster_attention.Tile&#45;5</title>
<path fill="#fffde7" stroke="black" stroke-dasharray="5,2" d="M598,-440C598,-440 819,-440 819,-440 825,-440 831,-446 831,-452 831,-452 831,-497.75 831,-497.75 831,-503.75 825,-509.75 819,-509.75 819,-509.75 598,-509.75 598,-509.75 592,-509.75 586,-503.75 586,-497.75 586,-497.75 586,-452 586,-452 586,-446 592,-440 598,-440"/>
<text xml:space="preserve" text-anchor="middle" x="708.5" y="-497.2" font-family="Helvetica,sans-Serif" font-size="9.00" fill="#666666">5 &#160;(128 KB)</text>
</g>
<g id="clust11" class="cluster">
<title>cluster_attention.Tile&#45;8</title>
<path fill="#e8f5e9" stroke="black" stroke-dasharray="5,2" d="M344,-656C344,-656 426,-656 426,-656 432,-656 438,-662 438,-668 438,-668 438,-713.75 438,-713.75 438,-719.75 432,-725.75 426,-725.75 426,-725.75 344,-725.75 344,-725.75 338,-725.75 332,-719.75 332,-713.75 332,-713.75 332,-668 332,-668 332,-662 338,-656 344,-656"/>
<text xml:space="preserve" text-anchor="middle" x="385" y="-713.2" font-family="Helvetica,sans-Serif" font-size="9.00" fill="#666666">8 &#160;(128 KB)</text>
</g>
<g id="clust12" class="cluster">
<title>cluster_attention.Tile&#45;6</title>
<path fill="#fffde7" stroke="black" stroke-dasharray="5,2" d="M475,-548C475,-548 851,-548 851,-548 857,-548 863,-554 863,-560 863,-560 863,-605.75 863,-605.75 863,-611.75 857,-617.75 851,-617.75 851,-617.75 475,-617.75 475,-617.75 469,-617.75 463,-611.75 463,-605.75 463,-605.75 463,-560 463,-560 463,-554 469,-548 475,-548"/>
<text xml:space="preserve" text-anchor="middle" x="663" y="-605.2" font-family="Helvetica,sans-Serif" font-size="9.00" fill="#666666">6</text>
</g>
<g id="clust13" class="cluster">
<title>cluster_attention.Tile&#45;13</title>
<path fill="#fffde7" stroke="black" stroke-dasharray="5,2" d="M288,-440C288,-440 386,-440 386,-440 392,-440 398,-446 398,-452 398,-452 398,-497.75 398,-497.75 398,-503.75 392,-509.75 386,-509.75 386,-509.75 288,-509.75 288,-509.75 282,-509.75 276,-503.75 276,-497.75 276,-497.75 276,-452 276,-452 276,-446 282,-440 288,-440"/>
<text xml:space="preserve" text-anchor="middle" x="337" y="-497.2" font-family="Helvetica,sans-Serif" font-size="9.00" fill="#666666">13</text>
</g>
<g id="clust14" class="cluster">
<title>cluster_attention.Tile&#45;17</title>
<path fill="#f5f5f5" stroke="black" stroke-dasharray="5,2" d="M443,-440C443,-440 541,-440 541,-440 547,-440 553,-446 553,-452 553,-452 553,-497.75 553,-497.75 553,-503.75 547,-509.75 541,-509.75 541,-509.75 443,-509.75 443,-509.75 437,-509.75 431,-503.75 431,-497.75 431,-497.75 431,-452 431,-452 431,-446 437,-440 443,-440"/>
<text xml:space="preserve" text-anchor="middle" x="492" y="-497.2" font-family="Helvetica,sans-Serif" font-size="9.00" fill="#666666">17</text>
</g>
<g id="clust15" class="cluster">
<title>cluster_attention.Tile&#45;9</title>
<path fill="#e8f5e9" stroke="black" stroke-dasharray="5,2" d="M355,-764C355,-764 415,-764 415,-764 421,-764 427,-770 427,-776 427,-776 427,-821.75 427,-821.75 427,-827.75 421,-833.75 415,-833.75 415,-833.75 355,-833.75 355,-833.75 349,-833.75 343,-827.75 343,-821.75 343,-821.75 343,-776 343,-776 343,-770 349,-764 355,-764"/>
<text xml:space="preserve" text-anchor="middle" x="385" y="-821.2" font-family="Helvetica,sans-Serif" font-size="9.00" fill="#666666">9 &#160;(256 KB)</text>
</g>
<g id="clust16" class="cluster">
<title>cluster_attention.Tile&#45;10</title>
<path fill="#ffcccc" stroke="black" stroke-dasharray="5,2" d="M354,-877.5C354,-877.5 416,-877.5 416,-877.5 422,-877.5 428,-883.5 428,-889.5 428,-889.5 428,-935.25 428,-935.25 428,-941.25 422,-947.25 416,-947.25 416,-947.25 354,-947.25 354,-947.25 348,-947.25 342,-941.25 342,-935.25 342,-935.25 342,-889.5 342,-889.5 342,-883.5 348,-877.5 354,-877.5"/>
<text xml:space="preserve" text-anchor="middle" x="385" y="-934.7" font-family="Helvetica,sans-Serif" font-size="9.00" fill="#666666">10 &#160;(256 KB)</text>
</g>
<!-- legend -->
<g id="node1" class="node">
<title>legend</title>
<polygon fill="#ffffee" stroke="black" points="294.25,-927 15.75,-927 15.75,-880 300.25,-880 300.25,-921 294.25,-927"/>
<polyline fill="none" stroke="black" points="294.25,-927 294.25,-921"/>
<polyline fill="none" stroke="black" points="300.25,-921 294.25,-921"/>
<text xml:space="preserve" text-anchor="middle" x="158" y="-914.45" font-family="Helvetica,sans-Serif" font-size="9.00">Costs shown are for ILP&#45;optimal DAG path(s).</text>
<text xml:space="preserve" text-anchor="middle" x="158" y="-904.7" font-family="Helvetica,sans-Serif" font-size="9.00">Total traffic: 1,056 KB (1,081,344 bytes)</text>
<text xml:space="preserve" text-anchor="middle" x="158" y="-894.95" font-family="Helvetica,sans-Serif" font-size="9.00">2 optimal solutions found (same cost).</text>
<text xml:space="preserve" text-anchor="middle" x="158" y="-885.2" font-family="Helvetica,sans-Serif" font-size="9.00">Green = in ALL solutions &#160;| &#160;Yellow = in SOME &#160;| &#160;Gray = not chosen</text>
</g>
<!-- function&#45;0&#45;attention_Tile_input -->
<g id="node2" class="node">
<title>function&#45;0&#45;attention_Tile_input</title>
<polygon fill="#c8e6c9" stroke="none" points="577.88,-21.38 577.88,-46.62 702.12,-46.62 702.12,-21.38 577.88,-21.38"/>
<text xml:space="preserve" text-anchor="start" x="584.88" y="-30.12" font-family="Helvetica,sans-Serif" font-size="10.00">Tile.input(&quot;Q&quot;, 128, 64, 2)</text>
<polygon fill="none" stroke="#2e7d32" points="577.88,-21.38 577.88,-46.62 702.12,-46.62 702.12,-21.38 577.88,-21.38"/>
</g>
<!-- function&#45;1&#45;attention_Tile_input -->
<g id="node3" class="node">
<title>function&#45;1&#45;attention_Tile_input</title>
<polygon fill="#c8e6c9" stroke="none" points="834.25,-237.38 834.25,-262.62 957.75,-262.62 957.75,-237.38 834.25,-237.38"/>
<text xml:space="preserve" text-anchor="start" x="841.25" y="-246.12" font-family="Helvetica,sans-Serif" font-size="10.00">Tile.input(&quot;K&quot;, 64, 128, 2)</text>
<polygon fill="none" stroke="#2e7d32" points="834.25,-237.38 834.25,-262.62 957.75,-262.62 957.75,-237.38 834.25,-237.38"/>
</g>
<!-- function&#45;2&#45;attention_Tile_input -->
<g id="node4" class="node">
<title>function&#45;2&#45;attention_Tile_input</title>
<polygon fill="#c8e6c9" stroke="none" points="103.25,-453.38 103.25,-478.62 226.75,-478.62 226.75,-453.38 103.25,-453.38"/>
<text xml:space="preserve" text-anchor="start" x="110.25" y="-462.12" font-family="Helvetica,sans-Serif" font-size="10.00">Tile.input(&quot;V&quot;, 128, 64, 2)</text>
<polygon fill="none" stroke="#2e7d32" points="103.25,-453.38 103.25,-478.62 226.75,-478.62 226.75,-453.38 103.25,-453.38"/>
</g>
<!-- function&#45;0&#45;attention_Tile_LDS -->
<g id="node5" class="node">
<title>function&#45;0&#45;attention_Tile_LDS</title>
<polygon fill="#c8e6c9" stroke="none" points="613.88,-129.38 613.88,-154.62 666.12,-154.62 666.12,-129.38 613.88,-129.38"/>
<text xml:space="preserve" text-anchor="start" x="620.88" y="-138.12" font-family="Helvetica,sans-Serif" font-size="10.00">Tile.LDS</text>
<polygon fill="none" stroke="#2e7d32" points="613.88,-129.38 613.88,-154.62 666.12,-154.62 666.12,-129.38 613.88,-129.38"/>
</g>
<!-- function&#45;0&#45;attention_Tile_LDS&#45;&gt;function&#45;0&#45;attention_Tile_input -->
<g id="edge1" class="edge">
<title>function&#45;0&#45;attention_Tile_LDS&#45;&gt;function&#45;0&#45;attention_Tile_input</title>
<path fill="none" stroke="black" d="M640,-124.44C640,-108.04 640,-82.63 640,-63.08"/>
<polygon fill="black" stroke="black" points="643.5,-63.31 640,-53.31 636.5,-63.31 643.5,-63.31"/>
</g>
<!-- function&#45;1&#45;attention_Tile_LDS -->
<g id="node6" class="node">
<title>function&#45;1&#45;attention_Tile_LDS</title>
<polygon fill="#c8e6c9" stroke="none" points="869.88,-345.38 869.88,-370.62 922.12,-370.62 922.12,-345.38 869.88,-345.38"/>
<text xml:space="preserve" text-anchor="start" x="876.88" y="-354.12" font-family="Helvetica,sans-Serif" font-size="10.00">Tile.LDS</text>
<polygon fill="none" stroke="#2e7d32" points="869.88,-345.38 869.88,-370.62 922.12,-370.62 922.12,-345.38 869.88,-345.38"/>
</g>
<!-- function&#45;1&#45;attention_Tile_LDS&#45;&gt;function&#45;1&#45;attention_Tile_input -->
<g id="edge2" class="edge">
<title>function&#45;1&#45;attention_Tile_LDS&#45;&gt;function&#45;1&#45;attention_Tile_input</title>
<path fill="none" stroke="black" d="M896,-340.44C896,-324.04 896,-298.63 896,-279.08"/>
<polygon fill="black" stroke="black" points="899.5,-279.31 896,-269.31 892.5,-279.31 899.5,-279.31"/>
</g>
<!-- function&#45;2&#45;attention_Tile_LDS -->
<g id="node7" class="node">
<title>function&#45;2&#45;attention_Tile_LDS</title>
<polygon fill="#c8e6c9" stroke="none" points="216.88,-561.38 216.88,-586.62 269.12,-586.62 269.12,-561.38 216.88,-561.38"/>
<text xml:space="preserve" text-anchor="start" x="223.88" y="-570.12" font-family="Helvetica,sans-Serif" font-size="10.00">Tile.LDS</text>
<polygon fill="none" stroke="#2e7d32" points="216.88,-561.38 216.88,-586.62 269.12,-586.62 269.12,-561.38 216.88,-561.38"/>
</g>
<!-- function&#45;2&#45;attention_Tile_LDS&#45;&gt;function&#45;2&#45;attention_Tile_input -->
<g id="edge3" class="edge">
<title>function&#45;2&#45;attention_Tile_LDS&#45;&gt;function&#45;2&#45;attention_Tile_input</title>
<path fill="none" stroke="black" d="M230.81,-556.44C218.29,-539.42 198.63,-512.7 184.05,-492.89"/>
<polygon fill="black" stroke="black" points="187,-491 178.26,-485.02 181.36,-495.14 187,-491"/>
</g>
<!-- function&#45;0&#45;attention_Tile_LDR -->
<g id="node8" class="node">
<title>function&#45;0&#45;attention_Tile_LDR</title>
<polygon fill="#c8e6c9" stroke="none" points="528.5,-237.38 528.5,-262.62 581.5,-262.62 581.5,-237.38 528.5,-237.38"/>
<text xml:space="preserve" text-anchor="start" x="535.5" y="-246.12" font-family="Helvetica,sans-Serif" font-size="10.00">Tile.LDR</text>
<polygon fill="none" stroke="#2e7d32" points="528.5,-237.38 528.5,-262.62 581.5,-262.62 581.5,-237.38 528.5,-237.38"/>
</g>
<!-- function&#45;0&#45;attention_Tile_LDR&#45;&gt;function&#45;0&#45;attention_Tile_LDS -->
<g id="edge4" class="edge">
<title>function&#45;0&#45;attention_Tile_LDR&#45;&gt;function&#45;0&#45;attention_Tile_LDS</title>
<path fill="none" stroke="black" d="M568.28,-232.44C581.99,-215.35 603.55,-188.46 619.45,-168.62"/>
<polygon fill="black" stroke="black" points="622.06,-170.97 625.58,-160.98 616.6,-166.59 622.06,-170.97"/>
</g>
<!-- function&#45;1&#45;attention_Tile_LDR -->
<g id="node9" class="node">
<title>function&#45;1&#45;attention_Tile_LDR</title>
<polygon fill="#e0e0e0" stroke="none" points="468.5,-345.38 468.5,-370.62 521.5,-370.62 521.5,-345.38 468.5,-345.38"/>
<text xml:space="preserve" text-anchor="start" x="475.5" y="-354.12" font-family="Helvetica,sans-Serif" font-size="10.00" fill="#888888">Tile.LDR</text>
<polygon fill="none" stroke="#bdbdbd" points="468.5,-345.38 468.5,-370.62 521.5,-370.62 521.5,-345.38 468.5,-345.38"/>
</g>
<!-- function&#45;1&#45;attention_Tile_LDR&#45;&gt;function&#45;0&#45;attention_Tile_LDR -->
<g id="edge5" class="edge">
<title>function&#45;1&#45;attention_Tile_LDR&#45;&gt;function&#45;0&#45;attention_Tile_LDR</title>
<path fill="none" stroke="black" d="M504.38,-340.44C513.87,-323.66 528.72,-297.43 539.88,-277.71"/>
<polygon fill="black" stroke="black" points="542.87,-279.54 544.75,-269.11 536.78,-276.09 542.87,-279.54"/>
</g>
<!-- function&#45;0&#45;attention_Tile_WGMMA -->
<g id="node10" class="node">
<title>function&#45;0&#45;attention_Tile_WGMMA</title>
<polygon fill="#e0e0e0" stroke="none" points="741.38,-453.38 741.38,-478.62 814.62,-478.62 814.62,-453.38 741.38,-453.38"/>
<text xml:space="preserve" text-anchor="start" x="748.38" y="-462.12" font-family="Helvetica,sans-Serif" font-size="10.00" fill="#888888">Tile.WGMMA</text>
<polygon fill="none" stroke="#bdbdbd" points="741.38,-453.38 741.38,-478.62 814.62,-478.62 814.62,-453.38 741.38,-453.38"/>
</g>
<!-- function&#45;0&#45;attention_Tile_WGMMA&#45;&gt;function&#45;0&#45;attention_Tile_LDS -->
<g id="edge6" class="edge">
<title>function&#45;0&#45;attention_Tile_WGMMA&#45;&gt;function&#45;0&#45;attention_Tile_LDS</title>
<path fill="none" stroke="black" d="M770.77,-448.14C748.28,-395.65 679.34,-234.8 651.67,-170.24"/>
<polygon fill="black" stroke="black" points="654.91,-168.9 647.75,-161.08 648.47,-171.65 654.91,-168.9"/>
</g>
<!-- function&#45;0&#45;attention_Tile_WGMMA&#45;&gt;function&#45;1&#45;attention_Tile_LDS -->
<g id="edge7" class="edge">
<title>function&#45;0&#45;attention_Tile_WGMMA&#45;&gt;function&#45;1&#45;attention_Tile_LDS</title>
<path fill="none" stroke="black" d="M796.7,-448.2C816.2,-430.68 846.97,-403.05 869.09,-383.18"/>
<polygon fill="black" stroke="black" points="871.16,-386.02 876.26,-376.73 866.49,-380.81 871.16,-386.02"/>
</g>
<!-- function&#45;3&#45;attention_Tile_WGMMA -->
<g id="node11" class="node">
<title>function&#45;3&#45;attention_Tile_WGMMA</title>
<polygon fill="#fff9c4" stroke="none" points="602.38,-453.38 602.38,-478.62 675.62,-478.62 675.62,-453.38 602.38,-453.38"/>
<text xml:space="preserve" text-anchor="start" x="609.38" y="-462.12" font-family="Helvetica,sans-Serif" font-size="10.00">Tile.WGMMA</text>
<polygon fill="none" stroke="#f9a825" points="602.38,-453.38 602.38,-478.62 675.62,-478.62 675.62,-453.38 602.38,-453.38"/>
</g>
<!-- function&#45;3&#45;attention_Tile_WGMMA&#45;&gt;function&#45;1&#45;attention_Tile_LDS -->
<g id="edge13" class="edge">
<title>function&#45;3&#45;attention_Tile_WGMMA&#45;&gt;function&#45;1&#45;attention_Tile_LDS</title>
<path fill="none" stroke="black" d="M680.01,-448.09C726.91,-428.74 803.43,-397.18 851.68,-377.28"/>
<polygon fill="black" stroke="black" points="852.81,-380.6 860.72,-373.55 850.14,-374.13 852.81,-380.6"/>
</g>
<!-- function&#45;3&#45;attention_Tile_WGMMA&#45;&gt;function&#45;0&#45;attention_Tile_LDR -->
<g id="edge12" class="edge">
<title>function&#45;3&#45;attention_Tile_WGMMA&#45;&gt;function&#45;0&#45;attention_Tile_LDR</title>
<path fill="none" stroke="black" d="M632.41,-448.21C617.96,-411.41 583.4,-323.36 565.76,-278.41"/>
<polygon fill="black" stroke="black" points="569.03,-277.15 562.11,-269.12 562.51,-279.71 569.03,-277.15"/>
</g>
<!-- function&#45;1&#45;attention_Tile_WGMMA -->
<g id="node12" class="node">
<title>function&#45;1&#45;attention_Tile_WGMMA</title>
<polygon fill="#c8e6c9" stroke="none" points="348.38,-669.38 348.38,-694.62 421.62,-694.62 421.62,-669.38 348.38,-669.38"/>
<text xml:space="preserve" text-anchor="start" x="355.38" y="-678.12" font-family="Helvetica,sans-Serif" font-size="10.00">Tile.WGMMA</text>
<polygon fill="none" stroke="#2e7d32" points="348.38,-669.38 348.38,-694.62 421.62,-694.62 421.62,-669.38 348.38,-669.38"/>
</g>
<!-- function&#45;1&#45;attention_Tile_WGMMA&#45;&gt;function&#45;2&#45;attention_Tile_LDS -->
<g id="edge9" class="edge">
<title>function&#45;1&#45;attention_Tile_WGMMA&#45;&gt;function&#45;2&#45;attention_Tile_LDS</title>
<path fill="none" stroke="black" d="M362.5,-664.2C338.71,-646.45 301.02,-618.31 274.33,-598.39"/>
<polygon fill="black" stroke="black" points="276.72,-595.8 266.61,-592.62 272.53,-601.41 276.72,-595.8"/>
</g>
<!-- function&#45;2&#45;attention_Tile_WGMMA -->
<g id="node13" class="node">
<title>function&#45;2&#45;attention_Tile_WGMMA</title>
<polygon fill="#fff9c4" stroke="none" points="634.38,-561.38 634.38,-586.62 707.62,-586.62 707.62,-561.38 634.38,-561.38"/>
<text xml:space="preserve" text-anchor="start" x="641.38" y="-570.12" font-family="Helvetica,sans-Serif" font-size="10.00">Tile.WGMMA</text>
<polygon fill="none" stroke="#f9a825" points="634.38,-561.38 634.38,-586.62 707.62,-586.62 707.62,-561.38 634.38,-561.38"/>
</g>
<!-- function&#45;1&#45;attention_Tile_WGMMA&#45;&gt;function&#45;2&#45;attention_Tile_WGMMA -->
<g id="edge8" class="edge">
<title>function&#45;1&#45;attention_Tile_WGMMA&#45;&gt;function&#45;2&#45;attention_Tile_WGMMA</title>
<path fill="none" stroke="black" d="M429.47,-671.77C474.22,-661.62 544.65,-643.3 602,-617.75 614.12,-612.35 626.66,-605.14 637.67,-598.18"/>
<polygon fill="black" stroke="black" points="639.56,-601.13 646.03,-592.74 635.74,-595.26 639.56,-601.13"/>
</g>
<!-- function&#45;2&#45;attention_Tile_WGMMA&#45;&gt;function&#45;1&#45;attention_Tile_LDS -->
<g id="edge11" class="edge">
<title>function&#45;2&#45;attention_Tile_WGMMA&#45;&gt;function&#45;1&#45;attention_Tile_LDS</title>
<path fill="none" stroke="black" d="M715.34,-556.95C765.91,-538.61 841.81,-510.96 843,-509.75 876.13,-476.14 888.63,-420.64 893.29,-387.17"/>
<polygon fill="black" stroke="black" points="896.75,-387.78 894.49,-377.42 889.8,-386.92 896.75,-387.78"/>
</g>
<!-- function&#45;1&#45;attention_Tile_Elementwise -->
<g id="node16" class="node">
<title>function&#45;1&#45;attention_Tile_Elementwise</title>
<polygon fill="#fff9c4" stroke="none" points="292.5,-453.38 292.5,-478.62 381.5,-478.62 381.5,-453.38 292.5,-453.38"/>
<text xml:space="preserve" text-anchor="start" x="299.5" y="-462.12" font-family="Helvetica,sans-Serif" font-size="10.00">Tile.Elementwise</text>
<polygon fill="none" stroke="#f9a825" points="292.5,-453.38 292.5,-478.62 381.5,-478.62 381.5,-453.38 292.5,-453.38"/>
</g>
<!-- function&#45;2&#45;attention_Tile_WGMMA&#45;&gt;function&#45;1&#45;attention_Tile_Elementwise -->
<g id="edge10" class="edge">
<title>function&#45;2&#45;attention_Tile_WGMMA&#45;&gt;function&#45;1&#45;attention_Tile_Elementwise</title>
<path fill="none" stroke="black" d="M627.13,-556.06C618.85,-553.16 610.21,-550.33 602,-548 522.07,-525.29 497.24,-537.72 419,-509.75 403.94,-504.37 388.19,-496.7 374.56,-489.34"/>
<polygon fill="black" stroke="black" points="376.36,-486.34 365.92,-484.55 372.97,-492.46 376.36,-486.34"/>
</g>
<!-- function&#45;4&#45;attention_Tile_WGMMA -->
<g id="node14" class="node">
<title>function&#45;4&#45;attention_Tile_WGMMA</title>
<polygon fill="#e0e0e0" stroke="none" points="773.38,-561.38 773.38,-586.62 846.62,-586.62 846.62,-561.38 773.38,-561.38"/>
<text xml:space="preserve" text-anchor="start" x="780.38" y="-570.12" font-family="Helvetica,sans-Serif" font-size="10.00" fill="#888888">Tile.WGMMA</text>
<polygon fill="none" stroke="#bdbdbd" points="773.38,-561.38 773.38,-586.62 846.62,-586.62 846.62,-561.38 773.38,-561.38"/>
</g>
<!-- function&#45;4&#45;attention_Tile_WGMMA&#45;&gt;function&#45;1&#45;attention_Tile_LDS -->
<g id="edge15" class="edge">
<title>function&#45;4&#45;attention_Tile_WGMMA&#45;&gt;function&#45;1&#45;attention_Tile_LDS</title>
<path fill="none" stroke="black" d="M854.35,-563.59C883.34,-554.89 919.04,-538.76 937,-509.75 961.35,-470.42 935.06,-416.59 914.8,-385.03"/>
<polygon fill="black" stroke="black" points="917.81,-383.24 909.34,-376.87 911.99,-387.13 917.81,-383.24"/>
</g>
<!-- function&#45;2&#45;attention_Tile_Elementwise -->
<g id="node17" class="node">
<title>function&#45;2&#45;attention_Tile_Elementwise</title>
<polygon fill="#e0e0e0" stroke="none" points="447.5,-453.38 447.5,-478.62 536.5,-478.62 536.5,-453.38 447.5,-453.38"/>
<text xml:space="preserve" text-anchor="start" x="454.5" y="-462.12" font-family="Helvetica,sans-Serif" font-size="10.00" fill="#888888">Tile.Elementwise</text>
<polygon fill="none" stroke="#bdbdbd" points="447.5,-453.38 447.5,-478.62 536.5,-478.62 536.5,-453.38 447.5,-453.38"/>
</g>
<!-- function&#45;4&#45;attention_Tile_WGMMA&#45;&gt;function&#45;2&#45;attention_Tile_Elementwise -->
<g id="edge14" class="edge">
<title>function&#45;4&#45;attention_Tile_WGMMA&#45;&gt;function&#45;2&#45;attention_Tile_Elementwise</title>
<path fill="none" stroke="black" d="M765.72,-556.05C757.56,-553.19 749.07,-550.38 741,-548 667.96,-526.49 645.45,-536.06 574,-509.75 559.11,-504.27 543.5,-496.65 529.94,-489.36"/>
<polygon fill="black" stroke="black" points="531.79,-486.38 521.35,-484.62 528.41,-492.51 531.79,-486.38"/>
</g>
<!-- function&#45;0&#45;attention_Tile_Elementwise -->
<g id="node15" class="node">
<title>function&#45;0&#45;attention_Tile_Elementwise</title>
<polygon fill="#fff9c4" stroke="none" points="479.5,-561.38 479.5,-586.62 568.5,-586.62 568.5,-561.38 479.5,-561.38"/>
<text xml:space="preserve" text-anchor="start" x="486.5" y="-570.12" font-family="Helvetica,sans-Serif" font-size="10.00">Tile.Elementwise</text>
<polygon fill="none" stroke="#f9a825" points="479.5,-561.38 479.5,-586.62 568.5,-586.62 568.5,-561.38 479.5,-561.38"/>
</g>
<!-- function&#45;0&#45;attention_Tile_Elementwise&#45;&gt;function&#45;0&#45;attention_Tile_WGMMA -->
<g id="edge16" class="edge">
<title>function&#45;0&#45;attention_Tile_Elementwise&#45;&gt;function&#45;0&#45;attention_Tile_WGMMA</title>
<path fill="none" stroke="black" d="M575.49,-556.06C625.79,-539.4 696.57,-515.63 709,-509.75 720.9,-504.12 733.3,-496.91 744.25,-490.01"/>
<polygon fill="black" stroke="black" points="746.07,-493.01 752.58,-484.65 742.27,-487.13 746.07,-493.01"/>
</g>
<!-- function&#45;1&#45;attention_Tile_Elementwise&#45;&gt;function&#45;0&#45;attention_Tile_LDR -->
<g id="edge17" class="edge">
<title>function&#45;1&#45;attention_Tile_Elementwise&#45;&gt;function&#45;0&#45;attention_Tile_LDR</title>
<path fill="none" stroke="black" d="M347.64,-448.17C364.94,-421.59 401.15,-369.13 440,-332 463.33,-309.71 493.21,-288.85 516.66,-273.88"/>
<polygon fill="black" stroke="black" points="518.4,-276.93 525,-268.65 514.67,-271 518.4,-276.93"/>
</g>
<!-- function&#45;2&#45;attention_Tile_Elementwise&#45;&gt;function&#45;1&#45;attention_Tile_LDR -->
<g id="edge18" class="edge">
<title>function&#45;2&#45;attention_Tile_Elementwise&#45;&gt;function&#45;1&#45;attention_Tile_LDR</title>
<path fill="none" stroke="black" d="M492.47,-448.44C492.93,-432.04 493.65,-406.63 494.21,-387.08"/>
<polygon fill="black" stroke="black" points="497.7,-387.4 494.48,-377.31 490.7,-387.21 497.7,-387.4"/>
</g>
<!-- function&#45;0&#45;attention_Tile_STS -->
<g id="node18" class="node">
<title>function&#45;0&#45;attention_Tile_STS</title>
<polygon fill="#c8e6c9" stroke="none" points="358.88,-777.38 358.88,-802.62 411.12,-802.62 411.12,-777.38 358.88,-777.38"/>
<text xml:space="preserve" text-anchor="start" x="365.88" y="-786.12" font-family="Helvetica,sans-Serif" font-size="10.00">Tile.STS</text>
<polygon fill="none" stroke="#2e7d32" points="358.88,-777.38 358.88,-802.62 411.12,-802.62 411.12,-777.38 358.88,-777.38"/>
</g>
<!-- function&#45;0&#45;attention_Tile_STS&#45;&gt;function&#45;1&#45;attention_Tile_WGMMA -->
<g id="edge19" class="edge">
<title>function&#45;0&#45;attention_Tile_STS&#45;&gt;function&#45;1&#45;attention_Tile_WGMMA</title>
<path fill="none" stroke="black" d="M385,-772.44C385,-756.04 385,-730.63 385,-711.08"/>
<polygon fill="black" stroke="black" points="388.5,-711.31 385,-701.31 381.5,-711.31 388.5,-711.31"/>
</g>
<!-- function&#45;0&#45;attention_Tile_STG -->
<g id="node19" class="node">
<title>function&#45;0&#45;attention_Tile_STG</title>
<polygon fill="#c8e6c9" stroke="none" points="358.5,-890.88 358.5,-916.12 411.5,-916.12 411.5,-890.88 358.5,-890.88"/>
<text xml:space="preserve" text-anchor="start" x="365.5" y="-899.62" font-family="Helvetica,sans-Serif" font-size="10.00">Tile.STG</text>
<polygon fill="none" stroke="#2e7d32" points="358.5,-890.88 358.5,-916.12 411.5,-916.12 411.5,-890.88 358.5,-890.88"/>
</g>
<!-- function&#45;0&#45;attention_Tile_STG&#45;&gt;function&#45;0&#45;attention_Tile_STS -->
<g id="edge20" class="edge">
<title>function&#45;0&#45;attention_Tile_STG&#45;&gt;function&#45;0&#45;attention_Tile_STS</title>
<path fill="none" stroke="black" d="M385,-885.57C385,-867.94 385,-840.05 385,-819.12"/>
<polygon fill="black" stroke="black" points="388.5,-819.24 385,-809.24 381.5,-819.24 388.5,-819.24"/>
</g>
</g>
</svg>
