<?xml version="1.0" encoding="UTF-8" standalone="no"?>
<!DOCTYPE svg PUBLIC "-//W3C//DTD SVG 1.1//EN"
 "http://www.w3.org/Graphics/SVG/1.1/DTD/svg11.dtd">
<!-- Generated by graphviz version 2.50.0 (0)
 -->
<!-- Pages: 1 -->
<svg width="539pt" height="647pt"
 viewBox="0.00 0.00 539.00 647.00" xmlns="http://www.w3.org/2000/svg" xmlns:xlink="http://www.w3.org/1999/xlink">
<g id="graph0" class="graph" transform="scale(1 1) rotate(0) translate(4 643)">
<polygon fill="white" stroke="transparent" points="-4,4 -4,-643 535,-643 535,4 -4,4"/>
<g id="clust13" class="cluster">
<title>cluster_attention.Tile&#45;10</title>
<path fill="#ffcccc" stroke="black" stroke-dasharray="5,2" d="M208,-561C208,-561 270,-561 270,-561 276,-561 282,-567 282,-573 282,-573 282,-619 282,-619 282,-625 276,-631 270,-631 270,-631 208,-631 208,-631 202,-631 196,-625 196,-619 196,-619 196,-573 196,-573 196,-567 202,-561 208,-561"/>
<text text-anchor="middle" x="239" y="-619.8" font-family="Helvetica,sans-Serif" font-size="9.00" fill="#666666">10</text>
</g>
<g id="clust7" class="cluster">
<title>cluster_attention.Tile&#45;12</title>
<path fill="#e8e8e8" stroke="black" stroke-dasharray="5,2" d="M215,-166C215,-166 277,-166 277,-166 283,-166 289,-172 289,-178 289,-178 289,-224 289,-224 289,-230 283,-236 277,-236 277,-236 215,-236 215,-236 209,-236 203,-230 203,-224 203,-224 203,-178 203,-178 203,-172 209,-166 215,-166"/>
<text text-anchor="middle" x="246" y="-224.8" font-family="Helvetica,sans-Serif" font-size="9.00" fill="#666666">12</text>
</g>
<g id="clust11" class="cluster">
<title>cluster_attention.Tile&#45;13</title>
<path fill="#e8e8e8" stroke="black" stroke-dasharray="5,2" d="M189,-245C189,-245 287,-245 287,-245 293,-245 299,-251 299,-257 299,-257 299,-303 299,-303 299,-309 293,-315 287,-315 287,-315 189,-315 189,-315 183,-315 177,-309 177,-303 177,-303 177,-257 177,-257 177,-251 183,-245 189,-245"/>
<text text-anchor="middle" x="238" y="-303.8" font-family="Helvetica,sans-Serif" font-size="9.00" fill="#666666">13</text>
</g>
<g id="clust1" class="cluster">
<title>cluster_attention.Tile&#45;0</title>
<path fill="#e8e8e8" stroke="black" stroke-dasharray="5,2" d="M212,-8C212,-8 346,-8 346,-8 352,-8 358,-14 358,-20 358,-20 358,-66 358,-66 358,-72 352,-78 346,-78 346,-78 212,-78 212,-78 206,-78 200,-72 200,-66 200,-66 200,-20 200,-20 200,-14 206,-8 212,-8"/>
<text text-anchor="middle" x="279" y="-66.8" font-family="Helvetica,sans-Serif" font-size="9.00" fill="#666666">0</text>
</g>
<g id="clust3" class="cluster">
<title>cluster_attention.Tile&#45;2</title>
<path fill="#e8e8e8" stroke="black" stroke-dasharray="5,2" d="M20,-245C20,-245 152,-245 152,-245 158,-245 164,-251 164,-257 164,-257 164,-303 164,-303 164,-309 158,-315 152,-315 152,-315 20,-315 20,-315 14,-315 8,-309 8,-303 8,-303 8,-257 8,-257 8,-251 14,-245 20,-245"/>
<text text-anchor="middle" x="86" y="-303.8" font-family="Helvetica,sans-Serif" font-size="9.00" fill="#666666">2</text>
</g>
<g id="clust2" class="cluster">
<title>cluster_attention.Tile&#45;1</title>
<path fill="#e8e8e8" stroke="black" stroke-dasharray="5,2" d="M379,-87C379,-87 511,-87 511,-87 517,-87 523,-93 523,-99 523,-99 523,-145 523,-145 523,-151 517,-157 511,-157 511,-157 379,-157 379,-157 373,-157 367,-151 367,-145 367,-145 367,-99 367,-99 367,-93 373,-87 379,-87"/>
<text text-anchor="middle" x="445" y="-145.8" font-family="Helvetica,sans-Serif" font-size="9.00" fill="#666666">1</text>
</g>
<g id="clust4" class="cluster">
<title>cluster_attention.Tile&#45;3</title>
<path fill="#e8e8e8" stroke="black" stroke-dasharray="5,2" d="M248,-87C248,-87 310,-87 310,-87 316,-87 322,-93 322,-99 322,-99 322,-145 322,-145 322,-151 316,-157 310,-157 310,-157 248,-157 248,-157 242,-157 236,-151 236,-145 236,-145 236,-99 236,-99 236,-93 242,-87 248,-87"/>
<text text-anchor="middle" x="279" y="-145.8" font-family="Helvetica,sans-Serif" font-size="9.00" fill="#666666">3</text>
</g>
<g id="clust5" class="cluster">
<title>cluster_attention.Tile&#45;4</title>
<path fill="#e8e8e8" stroke="black" stroke-dasharray="5,2" d="M414,-166C414,-166 476,-166 476,-166 482,-166 488,-172 488,-178 488,-178 488,-224 488,-224 488,-230 482,-236 476,-236 476,-236 414,-236 414,-236 408,-236 402,-230 402,-224 402,-224 402,-178 402,-178 402,-172 408,-166 414,-166"/>
<text text-anchor="middle" x="445" y="-224.8" font-family="Helvetica,sans-Serif" font-size="9.00" fill="#666666">4</text>
</g>
<g id="clust6" class="cluster">
<title>cluster_attention.Tile&#45;7</title>
<path fill="#e8e8e8" stroke="black" stroke-dasharray="5,2" d="M86,-324C86,-324 148,-324 148,-324 154,-324 160,-330 160,-336 160,-336 160,-382 160,-382 160,-388 154,-394 148,-394 148,-394 86,-394 86,-394 80,-394 74,-388 74,-382 74,-382 74,-336 74,-336 74,-330 80,-324 86,-324"/>
<text text-anchor="middle" x="117" y="-382.8" font-family="Helvetica,sans-Serif" font-size="9.00" fill="#666666">7</text>
</g>
<g id="clust8" class="cluster">
<title>cluster_attention.Tile&#45;5</title>
<path fill="#e8e8e8" stroke="black" stroke-dasharray="5,2" d="M324,-245C324,-245 406,-245 406,-245 412,-245 418,-251 418,-257 418,-257 418,-303 418,-303 418,-309 412,-315 406,-315 406,-315 324,-315 324,-315 318,-315 312,-309 312,-303 312,-303 312,-257 312,-257 312,-251 318,-245 324,-245"/>
<text text-anchor="middle" x="365" y="-303.8" font-family="Helvetica,sans-Serif" font-size="9.00" fill="#666666">5</text>
</g>
<g id="clust9" class="cluster">
<title>cluster_attention.Tile&#45;8</title>
<path fill="#e8e8e8" stroke="black" stroke-dasharray="5,2" d="M198,-403C198,-403 280,-403 280,-403 286,-403 292,-409 292,-415 292,-415 292,-461 292,-461 292,-467 286,-473 280,-473 280,-473 198,-473 198,-473 192,-473 186,-467 186,-461 186,-461 186,-415 186,-415 186,-409 192,-403 198,-403"/>
<text text-anchor="middle" x="239" y="-461.8" font-family="Helvetica,sans-Serif" font-size="9.00" fill="#666666">8</text>
</g>
<g id="clust10" class="cluster">
<title>cluster_attention.Tile&#45;6</title>
<path fill="#e8e8e8" stroke="black" stroke-dasharray="5,2" d="M247,-324C247,-324 464,-324 464,-324 470,-324 476,-330 476,-336 476,-336 476,-382 476,-382 476,-388 470,-394 464,-394 464,-394 247,-394 247,-394 241,-394 235,-388 235,-382 235,-382 235,-336 235,-336 235,-330 241,-324 247,-324"/>
<text text-anchor="middle" x="355.5" y="-382.8" font-family="Helvetica,sans-Serif" font-size="9.00" fill="#666666">6</text>
</g>
<g id="clust12" class="cluster">
<title>cluster_attention.Tile&#45;9</title>
<path fill="#e8e8e8" stroke="black" stroke-dasharray="5,2" d="M208,-482C208,-482 270,-482 270,-482 276,-482 282,-488 282,-494 282,-494 282,-540 282,-540 282,-546 276,-552 270,-552 270,-552 208,-552 208,-552 202,-552 196,-546 196,-540 196,-540 196,-494 196,-494 196,-488 202,-482 208,-482"/>
<text text-anchor="middle" x="239" y="-540.8" font-family="Helvetica,sans-Serif" font-size="9.00" fill="#666666">9</text>
</g>
<!-- function&#45;0&#45;attention_Tile_input -->
<g id="node1" class="node">
<title>function&#45;0&#45;attention_Tile_input</title>
<polygon fill="white" stroke="transparent" points="216.5,-21.5 216.5,-46.5 341.5,-46.5 341.5,-21.5 216.5,-21.5"/>
<text text-anchor="start" x="224" y="-31" font-family="Helvetica,sans-Serif" font-size="10.00">Tile.input(&quot;Q&quot;, 128, 64, 2)</text>
<polygon fill="none" stroke="black" points="216.5,-21.5 216.5,-46.5 341.5,-46.5 341.5,-21.5 216.5,-21.5"/>
</g>
<!-- function&#45;1&#45;attention_Tile_input -->
<g id="node2" class="node">
<title>function&#45;1&#45;attention_Tile_input</title>
<polygon fill="white" stroke="transparent" points="383,-100.5 383,-125.5 507,-125.5 507,-100.5 383,-100.5"/>
<text text-anchor="start" x="390" y="-110" font-family="Helvetica,sans-Serif" font-size="10.00">Tile.input(&quot;K&quot;, 64, 128, 2)</text>
<polygon fill="none" stroke="black" points="383,-100.5 383,-125.5 507,-125.5 507,-100.5 383,-100.5"/>
</g>
<!-- function&#45;2&#45;attention_Tile_input -->
<g id="node3" class="node">
<title>function&#45;2&#45;attention_Tile_input</title>
<polygon fill="white" stroke="transparent" points="24,-258.5 24,-283.5 148,-283.5 148,-258.5 24,-258.5"/>
<text text-anchor="start" x="31" y="-268" font-family="Helvetica,sans-Serif" font-size="10.00">Tile.input(&quot;V&quot;, 128, 64, 2)</text>
<polygon fill="none" stroke="black" points="24,-258.5 24,-283.5 148,-283.5 148,-258.5 24,-258.5"/>
</g>
<!-- function&#45;0&#45;attention_Tile_LDS -->
<g id="node4" class="node">
<title>function&#45;0&#45;attention_Tile_LDS</title>
<polygon fill="white" stroke="transparent" points="252.5,-100.5 252.5,-125.5 305.5,-125.5 305.5,-100.5 252.5,-100.5"/>
<text text-anchor="start" x="260" y="-110" font-family="Helvetica,sans-Serif" font-size="10.00">Tile.LDS</text>
<polygon fill="none" stroke="black" points="252.5,-100.5 252.5,-125.5 305.5,-125.5 305.5,-100.5 252.5,-100.5"/>
</g>
<!-- function&#45;0&#45;attention_Tile_LDS&#45;&gt;function&#45;0&#45;attention_Tile_input -->
<g id="edge1" class="edge">
<title>function&#45;0&#45;attention_Tile_LDS&#45;&gt;function&#45;0&#45;attention_Tile_input</title>
<path fill="none" stroke="black" d="M279,-94.91C279,-85.34 279,-73.18 279,-62.32"/>
<polygon fill="black" stroke="black" points="282.5,-62.04 279,-52.04 275.5,-62.04 282.5,-62.04"/>
</g>
<!-- function&#45;1&#45;attention_Tile_LDS -->
<g id="node5" class="node">
<title>function&#45;1&#45;attention_Tile_LDS</title>
<polygon fill="white" stroke="transparent" points="418.5,-179.5 418.5,-204.5 471.5,-204.5 471.5,-179.5 418.5,-179.5"/>
<text text-anchor="start" x="426" y="-189" font-family="Helvetica,sans-Serif" font-size="10.00">Tile.LDS</text>
<polygon fill="none" stroke="black" points="418.5,-179.5 418.5,-204.5 471.5,-204.5 471.5,-179.5 418.5,-179.5"/>
</g>
<!-- function&#45;1&#45;attention_Tile_LDS&#45;&gt;function&#45;1&#45;attention_Tile_input -->
<g id="edge2" class="edge">
<title>function&#45;1&#45;attention_Tile_LDS&#45;&gt;function&#45;1&#45;attention_Tile_input</title>
<path fill="none" stroke="black" d="M445,-173.91C445,-164.34 445,-152.18 445,-141.32"/>
<polygon fill="black" stroke="black" points="448.5,-141.04 445,-131.04 441.5,-141.04 448.5,-141.04"/>
</g>
<!-- function&#45;2&#45;attention_Tile_LDS -->
<g id="node6" class="node">
<title>function&#45;2&#45;attention_Tile_LDS</title>
<polygon fill="white" stroke="transparent" points="90.5,-337.5 90.5,-362.5 143.5,-362.5 143.5,-337.5 90.5,-337.5"/>
<text text-anchor="start" x="98" y="-347" font-family="Helvetica,sans-Serif" font-size="10.00">Tile.LDS</text>
<polygon fill="none" stroke="black" points="90.5,-337.5 90.5,-362.5 143.5,-362.5 143.5,-337.5 90.5,-337.5"/>
</g>
<!-- function&#45;2&#45;attention_Tile_LDS&#45;&gt;function&#45;2&#45;attention_Tile_input -->
<g id="edge3" class="edge">
<title>function&#45;2&#45;attention_Tile_LDS&#45;&gt;function&#45;2&#45;attention_Tile_input</title>
<path fill="none" stroke="black" d="M110.12,-331.91C106.19,-322.14 101.17,-309.68 96.73,-298.65"/>
<polygon fill="black" stroke="black" points="99.84,-297.01 92.86,-289.04 93.35,-299.62 99.84,-297.01"/>
</g>
<!-- function&#45;0&#45;attention_Tile_LDR -->
<g id="node7" class="node">
<title>function&#45;0&#45;attention_Tile_LDR</title>
<polygon fill="white" stroke="transparent" points="219,-179.5 219,-204.5 273,-204.5 273,-179.5 219,-179.5"/>
<text text-anchor="start" x="226" y="-189" font-family="Helvetica,sans-Serif" font-size="10.00">Tile.LDR</text>
<polygon fill="none" stroke="black" points="219,-179.5 219,-204.5 273,-204.5 273,-179.5 219,-179.5"/>
</g>
<!-- function&#45;0&#45;attention_Tile_LDR&#45;&gt;function&#45;0&#45;attention_Tile_LDS -->
<g id="edge4" class="edge">
<title>function&#45;0&#45;attention_Tile_LDR&#45;&gt;function&#45;0&#45;attention_Tile_LDS</title>
<path fill="none" stroke="black" d="M253.32,-173.91C257.55,-164.04 262.96,-151.42 267.72,-140.31"/>
<polygon fill="black" stroke="black" points="270.97,-141.61 271.7,-131.04 264.54,-138.85 270.97,-141.61"/>
</g>
<!-- function&#45;0&#45;attention_Tile_WGMMA -->
<g id="node8" class="node">
<title>function&#45;0&#45;attention_Tile_WGMMA</title>
<polygon fill="white" stroke="transparent" points="328,-258.5 328,-283.5 402,-283.5 402,-258.5 328,-258.5"/>
<text text-anchor="start" x="335" y="-268" font-family="Helvetica,sans-Serif" font-size="10.00">Tile.WGMMA</text>
<polygon fill="none" stroke="black" points="328,-258.5 328,-283.5 402,-283.5 402,-258.5 328,-258.5"/>
</g>
<!-- function&#45;0&#45;attention_Tile_WGMMA&#45;&gt;function&#45;0&#45;attention_Tile_LDS -->
<g id="edge5" class="edge">
<title>function&#45;0&#45;attention_Tile_WGMMA&#45;&gt;function&#45;0&#45;attention_Tile_LDS</title>
<path fill="none" stroke="black" d="M355.47,-252.71C340.42,-225.42 311.07,-172.17 293.43,-140.18"/>
<polygon fill="black" stroke="black" points="296.47,-138.44 288.57,-131.37 290.34,-141.82 296.47,-138.44"/>
</g>
<!-- function&#45;0&#45;attention_Tile_WGMMA&#45;&gt;function&#45;1&#45;attention_Tile_LDS -->
<g id="edge6" class="edge">
<title>function&#45;0&#45;attention_Tile_WGMMA&#45;&gt;function&#45;1&#45;attention_Tile_LDS</title>
<path fill="none" stroke="black" d="M382.75,-252.91C393.73,-242.34 407.99,-228.62 420.09,-216.98"/>
<polygon fill="black" stroke="black" points="422.52,-219.5 427.3,-210.04 417.66,-214.45 422.52,-219.5"/>
</g>
<!-- function&#45;1&#45;attention_Tile_WGMMA -->
<g id="node9" class="node">
<title>function&#45;1&#45;attention_Tile_WGMMA</title>
<polygon fill="white" stroke="transparent" points="202,-416.5 202,-441.5 276,-441.5 276,-416.5 202,-416.5"/>
<text text-anchor="start" x="209" y="-426" font-family="Helvetica,sans-Serif" font-size="10.00">Tile.WGMMA</text>
<polygon fill="none" stroke="black" points="202,-416.5 202,-441.5 276,-441.5 276,-416.5 202,-416.5"/>
</g>
<!-- function&#45;1&#45;attention_Tile_WGMMA&#45;&gt;function&#45;2&#45;attention_Tile_LDS -->
<g id="edge8" class="edge">
<title>function&#45;1&#45;attention_Tile_WGMMA&#45;&gt;function&#45;2&#45;attention_Tile_LDS</title>
<path fill="none" stroke="black" d="M211.92,-410.91C194.47,-399.9 171.58,-385.45 152.66,-373.51"/>
<polygon fill="black" stroke="black" points="154.32,-370.42 144,-368.04 150.59,-376.34 154.32,-370.42"/>
</g>
<!-- function&#45;2&#45;attention_Tile_WGMMA -->
<g id="node10" class="node">
<title>function&#45;2&#45;attention_Tile_WGMMA</title>
<polygon fill="white" stroke="transparent" points="386,-337.5 386,-362.5 460,-362.5 460,-337.5 386,-337.5"/>
<text text-anchor="start" x="393" y="-347" font-family="Helvetica,sans-Serif" font-size="10.00">Tile.WGMMA</text>
<polygon fill="none" stroke="black" points="386,-337.5 386,-362.5 460,-362.5 460,-337.5 386,-337.5"/>
</g>
<!-- function&#45;1&#45;attention_Tile_WGMMA&#45;&gt;function&#45;2&#45;attention_Tile_WGMMA -->
<g id="edge7" class="edge">
<title>function&#45;1&#45;attention_Tile_WGMMA&#45;&gt;function&#45;2&#45;attention_Tile_WGMMA</title>
<path fill="none" stroke="black" d="M284.08,-419.9C308.5,-414.49 338.76,-406.12 364,-394 374.96,-388.74 385.99,-381.38 395.49,-374.24"/>
<polygon fill="black" stroke="black" points="397.67,-376.98 403.42,-368.08 393.38,-371.46 397.67,-376.98"/>
</g>
<!-- function&#45;2&#45;attention_Tile_WGMMA&#45;&gt;function&#45;1&#45;attention_Tile_LDS -->
<g id="edge10" class="edge">
<title>function&#45;2&#45;attention_Tile_WGMMA&#45;&gt;function&#45;1&#45;attention_Tile_LDS</title>
<path fill="none" stroke="black" d="M425.44,-331.71C429.24,-304.77 436.6,-252.54 441.13,-220.42"/>
<polygon fill="black" stroke="black" points="444.62,-220.76 442.55,-210.37 437.69,-219.78 444.62,-220.76"/>
</g>
<!-- function&#45;1&#45;attention_Tile_Elementwise -->
<g id="node12" class="node">
<title>function&#45;1&#45;attention_Tile_Elementwise</title>
<polygon fill="white" stroke="transparent" points="193,-258.5 193,-283.5 283,-283.5 283,-258.5 193,-258.5"/>
<text text-anchor="start" x="200" y="-268" font-family="Helvetica,sans-Serif" font-size="10.00">Tile.Elementwise</text>
<polygon fill="none" stroke="black" points="193,-258.5 193,-283.5 283,-283.5 283,-258.5 193,-258.5"/>
</g>
<!-- function&#45;2&#45;attention_Tile_WGMMA&#45;&gt;function&#45;1&#45;attention_Tile_Elementwise -->
<g id="edge9" class="edge">
<title>function&#45;2&#45;attention_Tile_WGMMA&#45;&gt;function&#45;1&#45;attention_Tile_Elementwise</title>
<path fill="none" stroke="black" d="M386.69,-331.95C379.3,-328.95 371.49,-326.12 364,-324 338.48,-316.77 329.82,-324.37 305,-315 292.04,-310.11 278.96,-302.46 267.84,-294.96"/>
<polygon fill="black" stroke="black" points="269.58,-291.9 259.38,-289.03 265.56,-297.63 269.58,-291.9"/>
</g>
<!-- function&#45;0&#45;attention_Tile_Elementwise -->
<g id="node11" class="node">
<title>function&#45;0&#45;attention_Tile_Elementwise</title>
<polygon fill="white" stroke="transparent" points="251,-337.5 251,-362.5 341,-362.5 341,-337.5 251,-337.5"/>
<text text-anchor="start" x="258" y="-347" font-family="Helvetica,sans-Serif" font-size="10.00">Tile.Elementwise</text>
<polygon fill="none" stroke="black" points="251,-337.5 251,-362.5 341,-362.5 341,-337.5 251,-337.5"/>
</g>
<!-- function&#45;0&#45;attention_Tile_Elementwise&#45;&gt;function&#45;0&#45;attention_Tile_WGMMA -->
<g id="edge11" class="edge">
<title>function&#45;0&#45;attention_Tile_Elementwise&#45;&gt;function&#45;0&#45;attention_Tile_WGMMA</title>
<path fill="none" stroke="black" d="M311.31,-331.91C320.6,-321.54 332.62,-308.14 342.92,-296.64"/>
<polygon fill="black" stroke="black" points="345.66,-298.82 349.73,-289.04 340.45,-294.15 345.66,-298.82"/>
</g>
<!-- function&#45;1&#45;attention_Tile_Elementwise&#45;&gt;function&#45;0&#45;attention_Tile_LDR -->
<g id="edge12" class="edge">
<title>function&#45;1&#45;attention_Tile_Elementwise&#45;&gt;function&#45;0&#45;attention_Tile_LDR</title>
<path fill="none" stroke="black" d="M239.78,-252.91C240.77,-243.34 242.03,-231.18 243.16,-220.32"/>
<polygon fill="black" stroke="black" points="246.68,-220.35 244.23,-210.04 239.71,-219.63 246.68,-220.35"/>
</g>
<!-- function&#45;0&#45;attention_Tile_STS -->
<g id="node13" class="node">
<title>function&#45;0&#45;attention_Tile_STS</title>
<polygon fill="white" stroke="transparent" points="212.5,-495.5 212.5,-520.5 265.5,-520.5 265.5,-495.5 212.5,-495.5"/>
<text text-anchor="start" x="220" y="-505" font-family="Helvetica,sans-Serif" font-size="10.00">Tile.STS</text>
<polygon fill="none" stroke="black" points="212.5,-495.5 212.5,-520.5 265.5,-520.5 265.5,-495.5 212.5,-495.5"/>
</g>
<!-- function&#45;0&#45;attention_Tile_STS&#45;&gt;function&#45;1&#45;attention_Tile_WGMMA -->
<g id="edge13" class="edge">
<title>function&#45;0&#45;attention_Tile_STS&#45;&gt;function&#45;1&#45;attention_Tile_WGMMA</title>
<path fill="none" stroke="black" d="M239,-489.91C239,-480.34 239,-468.18 239,-457.32"/>
<polygon fill="black" stroke="black" points="242.5,-457.04 239,-447.04 235.5,-457.04 242.5,-457.04"/>
</g>
<!-- function&#45;0&#45;attention_Tile_STG -->
<g id="node14" class="node">
<title>function&#45;0&#45;attention_Tile_STG</title>
<polygon fill="white" stroke="transparent" points="212,-574.5 212,-599.5 266,-599.5 266,-574.5 212,-574.5"/>
<text text-anchor="start" x="219" y="-584" font-family="Helvetica,sans-Serif" font-size="10.00">Tile.STG</text>
<polygon fill="none" stroke="black" points="212,-574.5 212,-599.5 266,-599.5 266,-574.5 212,-574.5"/>
</g>
<!-- function&#45;0&#45;attention_Tile_STG&#45;&gt;function&#45;0&#45;attention_Tile_STS -->
<g id="edge14" class="edge">
<title>function&#45;0&#45;attention_Tile_STG&#45;&gt;function&#45;0&#45;attention_Tile_STS</title>
<path fill="none" stroke="black" d="M239,-568.91C239,-559.34 239,-547.18 239,-536.32"/>
<polygon fill="black" stroke="black" points="242.5,-536.04 239,-526.04 235.5,-536.04 242.5,-536.04"/>
</g>
</g>
</svg>
