<?xml version="1.0" encoding="UTF-8" standalone="no"?>
<!DOCTYPE svg PUBLIC "-//W3C//DTD SVG 1.1//EN"
 "http://www.w3.org/Graphics/SVG/1.1/DTD/svg11.dtd">
<!-- Generated by graphviz version 13.1.2 (20250808.2320)
 -->
<!-- Pages: 1 -->
<svg width="911pt" height="958pt"
 viewBox="0.00 0.00 911.00 958.00" xmlns="http://www.w3.org/2000/svg" xmlns:xlink="http://www.w3.org/1999/xlink">
<g id="graph0" class="graph" transform="scale(1 1) rotate(0) translate(4 953.75)">
<polygon fill="white" stroke="none" points="-4,4 -4,-953.75 907,-953.75 907,4 -4,4"/>
<g id="clust1" class="cluster">
<title>cluster_attention.Tile&#45;0</title>
<path fill="#e8e8e8" stroke="black" stroke-dasharray="5,2" d="M495,-8C495,-8 627,-8 627,-8 633,-8 639,-14 639,-20 639,-20 639,-65.75 639,-65.75 639,-71.75 633,-77.75 627,-77.75 627,-77.75 495,-77.75 495,-77.75 489,-77.75 483,-71.75 483,-65.75 483,-65.75 483,-20 483,-20 483,-14 489,-8 495,-8"/>
<text xml:space="preserve" text-anchor="middle" x="561" y="-65.2" font-family="Helvetica,sans-Serif" font-size="9.00" fill="#666666">0</text>
</g>
<g id="clust2" class="cluster">
<title>cluster_attention.Tile&#45;1</title>
<path fill="#e8e8e8" stroke="black" stroke-dasharray="5,2" d="M751,-224C751,-224 883,-224 883,-224 889,-224 895,-230 895,-236 895,-236 895,-281.75 895,-281.75 895,-287.75 889,-293.75 883,-293.75 883,-293.75 751,-293.75 751,-293.75 745,-293.75 739,-287.75 739,-281.75 739,-281.75 739,-236 739,-236 739,-230 745,-224 751,-224"/>
<text xml:space="preserve" text-anchor="middle" x="817" y="-281.2" font-family="Helvetica,sans-Serif" font-size="9.00" fill="#666666">1</text>
</g>
<g id="clust3" class="cluster">
<title>cluster_attention.Tile&#45;2</title>
<path fill="#e8e8e8" stroke="black" stroke-dasharray="5,2" d="M20,-440C20,-440 152,-440 152,-440 158,-440 164,-446 164,-452 164,-452 164,-497.75 164,-497.75 164,-503.75 158,-509.75 152,-509.75 152,-509.75 20,-509.75 20,-509.75 14,-509.75 8,-503.75 8,-497.75 8,-497.75 8,-452 8,-452 8,-446 14,-440 20,-440"/>
<text xml:space="preserve" text-anchor="middle" x="86" y="-497.2" font-family="Helvetica,sans-Serif" font-size="9.00" fill="#666666">2</text>
</g>
<g id="clust4" class="cluster">
<title>cluster_attention.Tile&#45;3</title>
<path fill="#e8e8e8" stroke="black" stroke-dasharray="5,2" d="M531,-116C531,-116 591,-116 591,-116 597,-116 603,-122 603,-128 603,-128 603,-173.75 603,-173.75 603,-179.75 597,-185.75 591,-185.75 591,-185.75 531,-185.75 531,-185.75 525,-185.75 519,-179.75 519,-173.75 519,-173.75 519,-128 519,-128 519,-122 525,-116 531,-116"/>
<text xml:space="preserve" text-anchor="middle" x="561" y="-173.2" font-family="Helvetica,sans-Serif" font-size="9.00" fill="#666666">3</text>
</g>
<g id="clust5" class="cluster">
<title>cluster_attention.Tile&#45;4</title>
<path fill="#e8e8e8" stroke="black" stroke-dasharray="5,2" d="M787,-332C787,-332 847,-332 847,-332 853,-332 859,-338 859,-344 859,-344 859,-389.75 859,-389.75 859,-395.75 853,-401.75 847,-401.75 847,-401.75 787,-401.75 787,-401.75 781,-401.75 775,-395.75 775,-389.75 775,-389.75 775,-344 775,-344 775,-338 781,-332 787,-332"/>
<text xml:space="preserve" text-anchor="middle" x="817" y="-389.2" font-family="Helvetica,sans-Serif" font-size="9.00" fill="#666666">4</text>
</g>
<g id="clust6" class="cluster">
<title>cluster_attention.Tile&#45;7</title>
<path fill="#e8e8e8" stroke="black" stroke-dasharray="5,2" d="M150,-548C150,-548 210,-548 210,-548 216,-548 222,-554 222,-560 222,-560 222,-605.75 222,-605.75 222,-611.75 216,-617.75 210,-617.75 210,-617.75 150,-617.75 150,-617.75 144,-617.75 138,-611.75 138,-605.75 138,-605.75 138,-560 138,-560 138,-554 144,-548 150,-548"/>
<text xml:space="preserve" text-anchor="middle" x="180" y="-605.2" font-family="Helvetica,sans-Serif" font-size="9.00" fill="#666666">7</text>
</g>
<g id="clust7" class="cluster">
<title>cluster_attention.Tile&#45;12</title>
<path fill="#e8e8e8" stroke="black" stroke-dasharray="5,2" d="M445,-224C445,-224 507,-224 507,-224 513,-224 519,-230 519,-236 519,-236 519,-281.75 519,-281.75 519,-287.75 513,-293.75 507,-293.75 507,-293.75 445,-293.75 445,-293.75 439,-293.75 433,-287.75 433,-281.75 433,-281.75 433,-236 433,-236 433,-230 439,-224 445,-224"/>
<text xml:space="preserve" text-anchor="middle" x="476" y="-281.2" font-family="Helvetica,sans-Serif" font-size="9.00" fill="#666666">12</text>
</g>
<g id="clust8" class="cluster">
<title>cluster_attention.Tile&#45;16</title>
<path fill="#e8e8e8" stroke="black" stroke-dasharray="5,2" d="M385,-332C385,-332 447,-332 447,-332 453,-332 459,-338 459,-344 459,-344 459,-389.75 459,-389.75 459,-395.75 453,-401.75 447,-401.75 447,-401.75 385,-401.75 385,-401.75 379,-401.75 373,-395.75 373,-389.75 373,-389.75 373,-344 373,-344 373,-338 379,-332 385,-332"/>
<text xml:space="preserve" text-anchor="middle" x="416" y="-389.2" font-family="Helvetica,sans-Serif" font-size="9.00" fill="#666666">16</text>
</g>
<g id="clust9" class="cluster">
<title>cluster_attention.Tile&#45;5</title>
<path fill="#e8e8e8" stroke="black" stroke-dasharray="5,2" d="M519,-440C519,-440 740,-440 740,-440 746,-440 752,-446 752,-452 752,-452 752,-497.75 752,-497.75 752,-503.75 746,-509.75 740,-509.75 740,-509.75 519,-509.75 519,-509.75 513,-509.75 507,-503.75 507,-497.75 507,-497.75 507,-452 507,-452 507,-446 513,-440 519,-440"/>
<text xml:space="preserve" text-anchor="middle" x="629.5" y="-497.2" font-family="Helvetica,sans-Serif" font-size="9.00" fill="#666666">5</text>
</g>
<g id="clust10" class="cluster">
<title>cluster_attention.Tile&#45;8</title>
<path fill="#e8e8e8" stroke="black" stroke-dasharray="5,2" d="M281,-656C281,-656 363,-656 363,-656 369,-656 375,-662 375,-668 375,-668 375,-713.75 375,-713.75 375,-719.75 369,-725.75 363,-725.75 363,-725.75 281,-725.75 281,-725.75 275,-725.75 269,-719.75 269,-713.75 269,-713.75 269,-668 269,-668 269,-662 275,-656 281,-656"/>
<text xml:space="preserve" text-anchor="middle" x="322" y="-713.2" font-family="Helvetica,sans-Serif" font-size="9.00" fill="#666666">8</text>
</g>
<g id="clust11" class="cluster">
<title>cluster_attention.Tile&#45;6</title>
<path fill="#e8e8e8" stroke="black" stroke-dasharray="5,2" d="M412,-548C412,-548 788,-548 788,-548 794,-548 800,-554 800,-560 800,-560 800,-605.75 800,-605.75 800,-611.75 794,-617.75 788,-617.75 788,-617.75 412,-617.75 412,-617.75 406,-617.75 400,-611.75 400,-605.75 400,-605.75 400,-560 400,-560 400,-554 406,-548 412,-548"/>
<text xml:space="preserve" text-anchor="middle" x="600" y="-605.2" font-family="Helvetica,sans-Serif" font-size="9.00" fill="#666666">6</text>
</g>
<g id="clust12" class="cluster">
<title>cluster_attention.Tile&#45;13</title>
<path fill="#e8e8e8" stroke="black" stroke-dasharray="5,2" d="M209,-440C209,-440 307,-440 307,-440 313,-440 319,-446 319,-452 319,-452 319,-497.75 319,-497.75 319,-503.75 313,-509.75 307,-509.75 307,-509.75 209,-509.75 209,-509.75 203,-509.75 197,-503.75 197,-497.75 197,-497.75 197,-452 197,-452 197,-446 203,-440 209,-440"/>
<text xml:space="preserve" text-anchor="middle" x="258" y="-497.2" font-family="Helvetica,sans-Serif" font-size="9.00" fill="#666666">13</text>
</g>
<g id="clust13" class="cluster">
<title>cluster_attention.Tile&#45;17</title>
<path fill="#e8e8e8" stroke="black" stroke-dasharray="5,2" d="M364,-440C364,-440 462,-440 462,-440 468,-440 474,-446 474,-452 474,-452 474,-497.75 474,-497.75 474,-503.75 468,-509.75 462,-509.75 462,-509.75 364,-509.75 364,-509.75 358,-509.75 352,-503.75 352,-497.75 352,-497.75 352,-452 352,-452 352,-446 358,-440 364,-440"/>
<text xml:space="preserve" text-anchor="middle" x="413" y="-497.2" font-family="Helvetica,sans-Serif" font-size="9.00" fill="#666666">17</text>
</g>
<g id="clust14" class="cluster">
<title>cluster_attention.Tile&#45;9</title>
<path fill="#e8e8e8" stroke="black" stroke-dasharray="5,2" d="M292,-764C292,-764 352,-764 352,-764 358,-764 364,-770 364,-776 364,-776 364,-821.75 364,-821.75 364,-827.75 358,-833.75 352,-833.75 352,-833.75 292,-833.75 292,-833.75 286,-833.75 280,-827.75 280,-821.75 280,-821.75 280,-776 280,-776 280,-770 286,-764 292,-764"/>
<text xml:space="preserve" text-anchor="middle" x="322" y="-821.2" font-family="Helvetica,sans-Serif" font-size="9.00" fill="#666666">9</text>
</g>
<g id="clust15" class="cluster">
<title>cluster_attention.Tile&#45;10</title>
<path fill="#ffcccc" stroke="black" stroke-dasharray="5,2" d="M291,-872C291,-872 353,-872 353,-872 359,-872 365,-878 365,-884 365,-884 365,-929.75 365,-929.75 365,-935.75 359,-941.75 353,-941.75 353,-941.75 291,-941.75 291,-941.75 285,-941.75 279,-935.75 279,-929.75 279,-929.75 279,-884 279,-884 279,-878 285,-872 291,-872"/>
<text xml:space="preserve" text-anchor="middle" x="322" y="-929.2" font-family="Helvetica,sans-Serif" font-size="9.00" fill="#666666">10</text>
</g>
<!-- function&#45;0&#45;attention_Tile_input -->
<g id="node1" class="node">
<title>function&#45;0&#45;attention_Tile_input</title>
<polygon fill="white" stroke="none" points="498.88,-21.38 498.88,-46.62 623.12,-46.62 623.12,-21.38 498.88,-21.38"/>
<text xml:space="preserve" text-anchor="start" x="505.88" y="-30.12" font-family="Helvetica,sans-Serif" font-size="10.00">Tile.input(&quot;Q&quot;, 128, 64, 2)</text>
<polygon fill="none" stroke="black" points="498.88,-21.38 498.88,-46.62 623.12,-46.62 623.12,-21.38 498.88,-21.38"/>
</g>
<!-- function&#45;1&#45;attention_Tile_input -->
<g id="node2" class="node">
<title>function&#45;1&#45;attention_Tile_input</title>
<polygon fill="white" stroke="none" points="755.25,-237.38 755.25,-262.62 878.75,-262.62 878.75,-237.38 755.25,-237.38"/>
<text xml:space="preserve" text-anchor="start" x="762.25" y="-246.12" font-family="Helvetica,sans-Serif" font-size="10.00">Tile.input(&quot;K&quot;, 64, 128, 2)</text>
<polygon fill="none" stroke="black" points="755.25,-237.38 755.25,-262.62 878.75,-262.62 878.75,-237.38 755.25,-237.38"/>
</g>
<!-- function&#45;2&#45;attention_Tile_input -->
<g id="node3" class="node">
<title>function&#45;2&#45;attention_Tile_input</title>
<polygon fill="white" stroke="none" points="24.25,-453.38 24.25,-478.62 147.75,-478.62 147.75,-453.38 24.25,-453.38"/>
<text xml:space="preserve" text-anchor="start" x="31.25" y="-462.12" font-family="Helvetica,sans-Serif" font-size="10.00">Tile.input(&quot;V&quot;, 128, 64, 2)</text>
<polygon fill="none" stroke="black" points="24.25,-453.38 24.25,-478.62 147.75,-478.62 147.75,-453.38 24.25,-453.38"/>
</g>
<!-- function&#45;0&#45;attention_Tile_LDS -->
<g id="node4" class="node">
<title>function&#45;0&#45;attention_Tile_LDS</title>
<polygon fill="white" stroke="none" points="534.88,-129.38 534.88,-154.62 587.12,-154.62 587.12,-129.38 534.88,-129.38"/>
<text xml:space="preserve" text-anchor="start" x="541.88" y="-138.12" font-family="Helvetica,sans-Serif" font-size="10.00">Tile.LDS</text>
<polygon fill="none" stroke="black" points="534.88,-129.38 534.88,-154.62 587.12,-154.62 587.12,-129.38 534.88,-129.38"/>
</g>
<!-- function&#45;0&#45;attention_Tile_LDS&#45;&gt;function&#45;0&#45;attention_Tile_input -->
<g id="edge1" class="edge">
<title>function&#45;0&#45;attention_Tile_LDS&#45;&gt;function&#45;0&#45;attention_Tile_input</title>
<path fill="none" stroke="black" d="M561,-124.44C561,-108.04 561,-82.63 561,-63.08"/>
<polygon fill="black" stroke="black" points="564.5,-63.31 561,-53.31 557.5,-63.31 564.5,-63.31"/>
</g>
<!-- function&#45;1&#45;attention_Tile_LDS -->
<g id="node5" class="node">
<title>function&#45;1&#45;attention_Tile_LDS</title>
<polygon fill="white" stroke="none" points="790.88,-345.38 790.88,-370.62 843.12,-370.62 843.12,-345.38 790.88,-345.38"/>
<text xml:space="preserve" text-anchor="start" x="797.88" y="-354.12" font-family="Helvetica,sans-Serif" font-size="10.00">Tile.LDS</text>
<polygon fill="none" stroke="black" points="790.88,-345.38 790.88,-370.62 843.12,-370.62 843.12,-345.38 790.88,-345.38"/>
</g>
<!-- function&#45;1&#45;attention_Tile_LDS&#45;&gt;function&#45;1&#45;attention_Tile_input -->
<g id="edge2" class="edge">
<title>function&#45;1&#45;attention_Tile_LDS&#45;&gt;function&#45;1&#45;attention_Tile_input</title>
<path fill="none" stroke="black" d="M817,-340.44C817,-324.04 817,-298.63 817,-279.08"/>
<polygon fill="black" stroke="black" points="820.5,-279.31 817,-269.31 813.5,-279.31 820.5,-279.31"/>
</g>
<!-- function&#45;2&#45;attention_Tile_LDS -->
<g id="node6" class="node">
<title>function&#45;2&#45;attention_Tile_LDS</title>
<polygon fill="white" stroke="none" points="153.88,-561.38 153.88,-586.62 206.12,-586.62 206.12,-561.38 153.88,-561.38"/>
<text xml:space="preserve" text-anchor="start" x="160.88" y="-570.12" font-family="Helvetica,sans-Serif" font-size="10.00">Tile.LDS</text>
<polygon fill="none" stroke="black" points="153.88,-561.38 153.88,-586.62 206.12,-586.62 206.12,-561.38 153.88,-561.38"/>
</g>
<!-- function&#45;2&#45;attention_Tile_LDS&#45;&gt;function&#45;2&#45;attention_Tile_input -->
<g id="edge3" class="edge">
<title>function&#45;2&#45;attention_Tile_LDS&#45;&gt;function&#45;2&#45;attention_Tile_input</title>
<path fill="none" stroke="black" d="M165.31,-556.44C150.09,-539.27 126.1,-512.21 108.48,-492.35"/>
<polygon fill="black" stroke="black" points="111.15,-490.09 101.9,-484.93 105.92,-494.73 111.15,-490.09"/>
</g>
<!-- function&#45;0&#45;attention_Tile_LDR -->
<g id="node7" class="node">
<title>function&#45;0&#45;attention_Tile_LDR</title>
<polygon fill="white" stroke="none" points="449.5,-237.38 449.5,-262.62 502.5,-262.62 502.5,-237.38 449.5,-237.38"/>
<text xml:space="preserve" text-anchor="start" x="456.5" y="-246.12" font-family="Helvetica,sans-Serif" font-size="10.00">Tile.LDR</text>
<polygon fill="none" stroke="black" points="449.5,-237.38 449.5,-262.62 502.5,-262.62 502.5,-237.38 449.5,-237.38"/>
</g>
<!-- function&#45;0&#45;attention_Tile_LDR&#45;&gt;function&#45;0&#45;attention_Tile_LDS -->
<g id="edge4" class="edge">
<title>function&#45;0&#45;attention_Tile_LDR&#45;&gt;function&#45;0&#45;attention_Tile_LDS</title>
<path fill="none" stroke="black" d="M489.28,-232.44C502.99,-215.35 524.55,-188.46 540.45,-168.62"/>
<polygon fill="black" stroke="black" points="543.06,-170.97 546.58,-160.98 537.6,-166.59 543.06,-170.97"/>
</g>
<!-- function&#45;1&#45;attention_Tile_LDR -->
<g id="node8" class="node">
<title>function&#45;1&#45;attention_Tile_LDR</title>
<polygon fill="white" stroke="none" points="389.5,-345.38 389.5,-370.62 442.5,-370.62 442.5,-345.38 389.5,-345.38"/>
<text xml:space="preserve" text-anchor="start" x="396.5" y="-354.12" font-family="Helvetica,sans-Serif" font-size="10.00">Tile.LDR</text>
<polygon fill="none" stroke="black" points="389.5,-345.38 389.5,-370.62 442.5,-370.62 442.5,-345.38 389.5,-345.38"/>
</g>
<!-- function&#45;1&#45;attention_Tile_LDR&#45;&gt;function&#45;0&#45;attention_Tile_LDR -->
<g id="edge5" class="edge">
<title>function&#45;1&#45;attention_Tile_LDR&#45;&gt;function&#45;0&#45;attention_Tile_LDR</title>
<path fill="none" stroke="black" d="M425.38,-340.44C434.87,-323.66 449.72,-297.43 460.88,-277.71"/>
<polygon fill="black" stroke="black" points="463.87,-279.54 465.75,-269.11 457.78,-276.09 463.87,-279.54"/>
</g>
<!-- function&#45;0&#45;attention_Tile_WGMMA -->
<g id="node9" class="node">
<title>function&#45;0&#45;attention_Tile_WGMMA</title>
<polygon fill="white" stroke="none" points="662.38,-453.38 662.38,-478.62 735.62,-478.62 735.62,-453.38 662.38,-453.38"/>
<text xml:space="preserve" text-anchor="start" x="669.38" y="-462.12" font-family="Helvetica,sans-Serif" font-size="10.00">Tile.WGMMA</text>
<polygon fill="none" stroke="black" points="662.38,-453.38 662.38,-478.62 735.62,-478.62 735.62,-453.38 662.38,-453.38"/>
</g>
<!-- function&#45;0&#45;attention_Tile_WGMMA&#45;&gt;function&#45;0&#45;attention_Tile_LDS -->
<g id="edge6" class="edge">
<title>function&#45;0&#45;attention_Tile_WGMMA&#45;&gt;function&#45;0&#45;attention_Tile_LDS</title>
<path fill="none" stroke="black" d="M691.77,-448.14C669.28,-395.65 600.34,-234.8 572.67,-170.24"/>
<polygon fill="black" stroke="black" points="575.91,-168.9 568.75,-161.08 569.47,-171.65 575.91,-168.9"/>
</g>
<!-- function&#45;0&#45;attention_Tile_WGMMA&#45;&gt;function&#45;1&#45;attention_Tile_LDS -->
<g id="edge7" class="edge">
<title>function&#45;0&#45;attention_Tile_WGMMA&#45;&gt;function&#45;1&#45;attention_Tile_LDS</title>
<path fill="none" stroke="black" d="M717.7,-448.2C737.2,-430.68 767.97,-403.05 790.09,-383.18"/>
<polygon fill="black" stroke="black" points="792.16,-386.02 797.26,-376.73 787.49,-380.81 792.16,-386.02"/>
</g>
<!-- function&#45;3&#45;attention_Tile_WGMMA -->
<g id="node10" class="node">
<title>function&#45;3&#45;attention_Tile_WGMMA</title>
<polygon fill="white" stroke="none" points="523.38,-453.38 523.38,-478.62 596.62,-478.62 596.62,-453.38 523.38,-453.38"/>
<text xml:space="preserve" text-anchor="start" x="530.38" y="-462.12" font-family="Helvetica,sans-Serif" font-size="10.00">Tile.WGMMA</text>
<polygon fill="none" stroke="black" points="523.38,-453.38 523.38,-478.62 596.62,-478.62 596.62,-453.38 523.38,-453.38"/>
</g>
<!-- function&#45;3&#45;attention_Tile_WGMMA&#45;&gt;function&#45;1&#45;attention_Tile_LDS -->
<g id="edge13" class="edge">
<title>function&#45;3&#45;attention_Tile_WGMMA&#45;&gt;function&#45;1&#45;attention_Tile_LDS</title>
<path fill="none" stroke="black" d="M601.01,-448.09C647.91,-428.74 724.43,-397.18 772.68,-377.28"/>
<polygon fill="black" stroke="black" points="773.81,-380.6 781.72,-373.55 771.14,-374.13 773.81,-380.6"/>
</g>
<!-- function&#45;3&#45;attention_Tile_WGMMA&#45;&gt;function&#45;0&#45;attention_Tile_LDR -->
<g id="edge12" class="edge">
<title>function&#45;3&#45;attention_Tile_WGMMA&#45;&gt;function&#45;0&#45;attention_Tile_LDR</title>
<path fill="none" stroke="black" d="M553.41,-448.21C538.96,-411.41 504.4,-323.36 486.76,-278.41"/>
<polygon fill="black" stroke="black" points="490.03,-277.15 483.11,-269.12 483.51,-279.71 490.03,-277.15"/>
</g>
<!-- function&#45;1&#45;attention_Tile_WGMMA -->
<g id="node11" class="node">
<title>function&#45;1&#45;attention_Tile_WGMMA</title>
<polygon fill="white" stroke="none" points="285.38,-669.38 285.38,-694.62 358.62,-694.62 358.62,-669.38 285.38,-669.38"/>
<text xml:space="preserve" text-anchor="start" x="292.38" y="-678.12" font-family="Helvetica,sans-Serif" font-size="10.00">Tile.WGMMA</text>
<polygon fill="none" stroke="black" points="285.38,-669.38 285.38,-694.62 358.62,-694.62 358.62,-669.38 285.38,-669.38"/>
</g>
<!-- function&#45;1&#45;attention_Tile_WGMMA&#45;&gt;function&#45;2&#45;attention_Tile_LDS -->
<g id="edge9" class="edge">
<title>function&#45;1&#45;attention_Tile_WGMMA&#45;&gt;function&#45;2&#45;attention_Tile_LDS</title>
<path fill="none" stroke="black" d="M299.5,-664.2C275.71,-646.45 238.02,-618.31 211.33,-598.39"/>
<polygon fill="black" stroke="black" points="213.72,-595.8 203.61,-592.62 209.53,-601.41 213.72,-595.8"/>
</g>
<!-- function&#45;2&#45;attention_Tile_WGMMA -->
<g id="node12" class="node">
<title>function&#45;2&#45;attention_Tile_WGMMA</title>
<polygon fill="white" stroke="none" points="571.38,-561.38 571.38,-586.62 644.62,-586.62 644.62,-561.38 571.38,-561.38"/>
<text xml:space="preserve" text-anchor="start" x="578.38" y="-570.12" font-family="Helvetica,sans-Serif" font-size="10.00">Tile.WGMMA</text>
<polygon fill="none" stroke="black" points="571.38,-561.38 571.38,-586.62 644.62,-586.62 644.62,-561.38 571.38,-561.38"/>
</g>
<!-- function&#45;1&#45;attention_Tile_WGMMA&#45;&gt;function&#45;2&#45;attention_Tile_WGMMA -->
<g id="edge8" class="edge">
<title>function&#45;1&#45;attention_Tile_WGMMA&#45;&gt;function&#45;2&#45;attention_Tile_WGMMA</title>
<path fill="none" stroke="black" d="M366.47,-671.77C411.22,-661.62 481.65,-643.3 539,-617.75 551.12,-612.35 563.66,-605.14 574.67,-598.18"/>
<polygon fill="black" stroke="black" points="576.56,-601.13 583.03,-592.74 572.74,-595.26 576.56,-601.13"/>
</g>
<!-- function&#45;2&#45;attention_Tile_WGMMA&#45;&gt;function&#45;1&#45;attention_Tile_LDS -->
<g id="edge11" class="edge">
<title>function&#45;2&#45;attention_Tile_WGMMA&#45;&gt;function&#45;1&#45;attention_Tile_LDS</title>
<path fill="none" stroke="black" d="M652.36,-556.04C697.01,-538.82 759.86,-514.08 764,-509.75 796.57,-475.6 809.26,-420.27 814.11,-386.99"/>
<polygon fill="black" stroke="black" points="817.55,-387.67 815.36,-377.31 810.6,-386.77 817.55,-387.67"/>
</g>
<!-- function&#45;1&#45;attention_Tile_Elementwise -->
<g id="node15" class="node">
<title>function&#45;1&#45;attention_Tile_Elementwise</title>
<polygon fill="white" stroke="none" points="213.5,-453.38 213.5,-478.62 302.5,-478.62 302.5,-453.38 213.5,-453.38"/>
<text xml:space="preserve" text-anchor="start" x="220.5" y="-462.12" font-family="Helvetica,sans-Serif" font-size="10.00">Tile.Elementwise</text>
<polygon fill="none" stroke="black" points="213.5,-453.38 213.5,-478.62 302.5,-478.62 302.5,-453.38 213.5,-453.38"/>
</g>
<!-- function&#45;2&#45;attention_Tile_WGMMA&#45;&gt;function&#45;1&#45;attention_Tile_Elementwise -->
<g id="edge10" class="edge">
<title>function&#45;2&#45;attention_Tile_WGMMA&#45;&gt;function&#45;1&#45;attention_Tile_Elementwise</title>
<path fill="none" stroke="black" d="M564.53,-556.08C556.14,-553.14 547.35,-550.3 539,-548 452.17,-524.09 425.05,-539.38 340,-509.75 324.9,-504.49 309.13,-496.85 295.51,-489.48"/>
<polygon fill="black" stroke="black" points="297.32,-486.48 286.88,-484.68 293.91,-492.6 297.32,-486.48"/>
</g>
<!-- function&#45;4&#45;attention_Tile_WGMMA -->
<g id="node13" class="node">
<title>function&#45;4&#45;attention_Tile_WGMMA</title>
<polygon fill="white" stroke="none" points="710.38,-561.38 710.38,-586.62 783.62,-586.62 783.62,-561.38 710.38,-561.38"/>
<text xml:space="preserve" text-anchor="start" x="717.38" y="-570.12" font-family="Helvetica,sans-Serif" font-size="10.00">Tile.WGMMA</text>
<polygon fill="none" stroke="black" points="710.38,-561.38 710.38,-586.62 783.62,-586.62 783.62,-561.38 710.38,-561.38"/>
</g>
<!-- function&#45;4&#45;attention_Tile_WGMMA&#45;&gt;function&#45;1&#45;attention_Tile_LDS -->
<g id="edge15" class="edge">
<title>function&#45;4&#45;attention_Tile_WGMMA&#45;&gt;function&#45;1&#45;attention_Tile_LDS</title>
<path fill="none" stroke="black" d="M791.52,-559.9C815.77,-550.23 843.68,-534.39 858,-509.75 881.12,-469.97 855.59,-416.71 835.74,-385.31"/>
<polygon fill="black" stroke="black" points="838.82,-383.62 830.4,-377.19 832.97,-387.47 838.82,-383.62"/>
</g>
<!-- function&#45;2&#45;attention_Tile_Elementwise -->
<g id="node16" class="node">
<title>function&#45;2&#45;attention_Tile_Elementwise</title>
<polygon fill="white" stroke="none" points="368.5,-453.38 368.5,-478.62 457.5,-478.62 457.5,-453.38 368.5,-453.38"/>
<text xml:space="preserve" text-anchor="start" x="375.5" y="-462.12" font-family="Helvetica,sans-Serif" font-size="10.00">Tile.Elementwise</text>
<polygon fill="none" stroke="black" points="368.5,-453.38 368.5,-478.62 457.5,-478.62 457.5,-453.38 368.5,-453.38"/>
</g>
<!-- function&#45;4&#45;attention_Tile_WGMMA&#45;&gt;function&#45;2&#45;attention_Tile_Elementwise -->
<g id="edge14" class="edge">
<title>function&#45;4&#45;attention_Tile_WGMMA&#45;&gt;function&#45;2&#45;attention_Tile_Elementwise</title>
<path fill="none" stroke="black" d="M703.13,-556.06C694.85,-553.16 686.21,-550.33 678,-548 598.07,-525.29 573.24,-537.72 495,-509.75 479.94,-504.37 464.19,-496.7 450.56,-489.34"/>
<polygon fill="black" stroke="black" points="452.36,-486.34 441.92,-484.55 448.97,-492.46 452.36,-486.34"/>
</g>
<!-- function&#45;0&#45;attention_Tile_Elementwise -->
<g id="node14" class="node">
<title>function&#45;0&#45;attention_Tile_Elementwise</title>
<polygon fill="white" stroke="none" points="416.5,-561.38 416.5,-586.62 505.5,-586.62 505.5,-561.38 416.5,-561.38"/>
<text xml:space="preserve" text-anchor="start" x="423.5" y="-570.12" font-family="Helvetica,sans-Serif" font-size="10.00">Tile.Elementwise</text>
<polygon fill="none" stroke="black" points="416.5,-561.38 416.5,-586.62 505.5,-586.62 505.5,-561.38 416.5,-561.38"/>
</g>
<!-- function&#45;0&#45;attention_Tile_Elementwise&#45;&gt;function&#45;0&#45;attention_Tile_WGMMA -->
<g id="edge16" class="edge">
<title>function&#45;0&#45;attention_Tile_Elementwise&#45;&gt;function&#45;0&#45;attention_Tile_WGMMA</title>
<path fill="none" stroke="black" d="M513.13,-556.46C547.12,-544.96 592.04,-528.39 630,-509.75 641.72,-504 653.99,-496.81 664.88,-489.98"/>
<polygon fill="black" stroke="black" points="666.63,-493.01 673.17,-484.67 662.86,-487.12 666.63,-493.01"/>
</g>
<!-- function&#45;1&#45;attention_Tile_Elementwise&#45;&gt;function&#45;0&#45;attention_Tile_LDR -->
<g id="edge17" class="edge">
<title>function&#45;1&#45;attention_Tile_Elementwise&#45;&gt;function&#45;0&#45;attention_Tile_LDR</title>
<path fill="none" stroke="black" d="M268.64,-448.17C285.94,-421.59 322.15,-369.13 361,-332 384.33,-309.71 414.21,-288.85 437.66,-273.88"/>
<polygon fill="black" stroke="black" points="439.4,-276.93 446,-268.65 435.67,-271 439.4,-276.93"/>
</g>
<!-- function&#45;2&#45;attention_Tile_Elementwise&#45;&gt;function&#45;1&#45;attention_Tile_LDR -->
<g id="edge18" class="edge">
<title>function&#45;2&#45;attention_Tile_Elementwise&#45;&gt;function&#45;1&#45;attention_Tile_LDR</title>
<path fill="none" stroke="black" d="M413.47,-448.44C413.93,-432.04 414.65,-406.63 415.21,-387.08"/>
<polygon fill="black" stroke="black" points="418.7,-387.4 415.48,-377.31 411.7,-387.21 418.7,-387.4"/>
</g>
<!-- function&#45;0&#45;attention_Tile_STS -->
<g id="node17" class="node">
<title>function&#45;0&#45;attention_Tile_STS</title>
<polygon fill="white" stroke="none" points="295.88,-777.38 295.88,-802.62 348.12,-802.62 348.12,-777.38 295.88,-777.38"/>
<text xml:space="preserve" text-anchor="start" x="302.88" y="-786.12" font-family="Helvetica,sans-Serif" font-size="10.00">Tile.STS</text>
<polygon fill="none" stroke="black" points="295.88,-777.38 295.88,-802.62 348.12,-802.62 348.12,-777.38 295.88,-777.38"/>
</g>
<!-- function&#45;0&#45;attention_Tile_STS&#45;&gt;function&#45;1&#45;attention_Tile_WGMMA -->
<g id="edge19" class="edge">
<title>function&#45;0&#45;attention_Tile_STS&#45;&gt;function&#45;1&#45;attention_Tile_WGMMA</title>
<path fill="none" stroke="black" d="M322,-772.44C322,-756.04 322,-730.63 322,-711.08"/>
<polygon fill="black" stroke="black" points="325.5,-711.31 322,-701.31 318.5,-711.31 325.5,-711.31"/>
</g>
<!-- function&#45;0&#45;attention_Tile_STG -->
<g id="node18" class="node">
<title>function&#45;0&#45;attention_Tile_STG</title>
<polygon fill="white" stroke="none" points="295.5,-885.38 295.5,-910.62 348.5,-910.62 348.5,-885.38 295.5,-885.38"/>
<text xml:space="preserve" text-anchor="start" x="302.5" y="-894.12" font-family="Helvetica,sans-Serif" font-size="10.00">Tile.STG</text>
<polygon fill="none" stroke="black" points="295.5,-885.38 295.5,-910.62 348.5,-910.62 348.5,-885.38 295.5,-885.38"/>
</g>
<!-- function&#45;0&#45;attention_Tile_STG&#45;&gt;function&#45;0&#45;attention_Tile_STS -->
<g id="edge20" class="edge">
<title>function&#45;0&#45;attention_Tile_STG&#45;&gt;function&#45;0&#45;attention_Tile_STS</title>
<path fill="none" stroke="black" d="M322,-880.44C322,-864.04 322,-838.63 322,-819.08"/>
<polygon fill="black" stroke="black" points="325.5,-819.31 322,-809.31 318.5,-819.31 325.5,-819.31"/>
</g>
</g>
</svg>
