<?xml version="1.0" encoding="UTF-8" standalone="no"?>
<!DOCTYPE svg PUBLIC "-//W3C//DTD SVG 1.1//EN"
 "http://www.w3.org/Graphics/SVG/1.1/DTD/svg11.dtd">
<!-- Generated by graphviz version 2.50.0 (0)
 -->
<!-- Pages: 1 -->
<svg width="718pt" height="850pt"
 viewBox="0.00 0.00 718.00 850.00" xmlns="http://www.w3.org/2000/svg" xmlns:xlink="http://www.w3.org/1999/xlink">
<g id="graph0" class="graph" transform="scale(1 1) rotate(0) translate(4 846)">
<polygon fill="white" stroke="transparent" points="-4,4 -4,-846 714,-846 714,4 -4,4"/>
<g id="clust1" class="cluster">
<title>cluster_attention.Tile&#45;0</title>
<path fill="#e8e8e8" stroke="black" stroke-dasharray="5,2" d="M433,-8C433,-8 567,-8 567,-8 573,-8 579,-14 579,-20 579,-20 579,-66 579,-66 579,-72 573,-78 567,-78 567,-78 433,-78 433,-78 427,-78 421,-72 421,-66 421,-66 421,-20 421,-20 421,-14 427,-8 433,-8"/>
<text text-anchor="middle" x="500" y="-66.8" font-family="Helvetica,sans-Serif" font-size="9.00" fill="#666666">0</text>
</g>
<g id="clust3" class="cluster">
<title>cluster_attention.Tile&#45;2</title>
<path fill="#e8e8e8" stroke="black" stroke-dasharray="5,2" d="M20,-332C20,-332 152,-332 152,-332 158,-332 164,-338 164,-344 164,-344 164,-390 164,-390 164,-396 158,-402 152,-402 152,-402 20,-402 20,-402 14,-402 8,-396 8,-390 8,-390 8,-344 8,-344 8,-338 14,-332 20,-332"/>
<text text-anchor="middle" x="86" y="-390.8" font-family="Helvetica,sans-Serif" font-size="9.00" fill="#666666">2</text>
</g>
<g id="clust2" class="cluster">
<title>cluster_attention.Tile&#45;1</title>
<path fill="#e8e8e8" stroke="black" stroke-dasharray="5,2" d="M246,-116C246,-116 378,-116 378,-116 384,-116 390,-122 390,-128 390,-128 390,-174 390,-174 390,-180 384,-186 378,-186 378,-186 246,-186 246,-186 240,-186 234,-180 234,-174 234,-174 234,-128 234,-128 234,-122 240,-116 246,-116"/>
<text text-anchor="middle" x="312" y="-174.8" font-family="Helvetica,sans-Serif" font-size="9.00" fill="#666666">1</text>
</g>
<g id="clust4" class="cluster">
<title>cluster_attention.Tile&#45;3</title>
<path fill="#e8e8e8" stroke="black" stroke-dasharray="5,2" d="M469,-116C469,-116 531,-116 531,-116 537,-116 543,-122 543,-128 543,-128 543,-174 543,-174 543,-180 537,-186 531,-186 531,-186 469,-186 469,-186 463,-186 457,-180 457,-174 457,-174 457,-128 457,-128 457,-122 463,-116 469,-116"/>
<text text-anchor="middle" x="500" y="-174.8" font-family="Helvetica,sans-Serif" font-size="9.00" fill="#666666">3</text>
</g>
<g id="clust5" class="cluster">
<title>cluster_attention.Tile&#45;4</title>
<path fill="#e8e8e8" stroke="black" stroke-dasharray="5,2" d="M281,-224C281,-224 343,-224 343,-224 349,-224 355,-230 355,-236 355,-236 355,-282 355,-282 355,-288 349,-294 343,-294 343,-294 281,-294 281,-294 275,-294 269,-288 269,-282 269,-282 269,-236 269,-236 269,-230 275,-224 281,-224"/>
<text text-anchor="middle" x="312" y="-282.8" font-family="Helvetica,sans-Serif" font-size="9.00" fill="#666666">4</text>
</g>
<g id="clust6" class="cluster">
<title>cluster_attention.Tile&#45;7</title>
<path fill="#e8e8e8" stroke="black" stroke-dasharray="5,2" d="M59,-440C59,-440 121,-440 121,-440 127,-440 133,-446 133,-452 133,-452 133,-498 133,-498 133,-504 127,-510 121,-510 121,-510 59,-510 59,-510 53,-510 47,-504 47,-498 47,-498 47,-452 47,-452 47,-446 53,-440 59,-440"/>
<text text-anchor="middle" x="90" y="-498.8" font-family="Helvetica,sans-Serif" font-size="9.00" fill="#666666">7</text>
</g>
<g id="clust8" class="cluster">
<title>cluster_attention.Tile&#45;5</title>
<path fill="#e8e8e8" stroke="black" stroke-dasharray="5,2" d="M312,-332C312,-332 534,-332 534,-332 540,-332 546,-338 546,-344 546,-344 546,-390 546,-390 546,-396 540,-402 534,-402 534,-402 312,-402 312,-402 306,-402 300,-396 300,-390 300,-390 300,-344 300,-344 300,-338 306,-332 312,-332"/>
<text text-anchor="middle" x="423" y="-390.8" font-family="Helvetica,sans-Serif" font-size="9.00" fill="#666666">5</text>
</g>
<g id="clust9" class="cluster">
<title>cluster_attention.Tile&#45;8</title>
<path fill="#e8e8e8" stroke="black" stroke-dasharray="5,2" d="M114,-548C114,-548 196,-548 196,-548 202,-548 208,-554 208,-560 208,-560 208,-606 208,-606 208,-612 202,-618 196,-618 196,-618 114,-618 114,-618 108,-618 102,-612 102,-606 102,-606 102,-560 102,-560 102,-554 108,-548 114,-548"/>
<text text-anchor="middle" x="155" y="-606.8" font-family="Helvetica,sans-Serif" font-size="9.00" fill="#666666">8</text>
</g>
<g id="clust10" class="cluster">
<title>cluster_attention.Tile&#45;6</title>
<path fill="#e8e8e8" stroke="black" stroke-dasharray="5,2" d="M187,-440C187,-440 425,-440 425,-440 431,-440 437,-446 437,-452 437,-452 437,-498 437,-498 437,-504 431,-510 425,-510 425,-510 187,-510 187,-510 181,-510 175,-504 175,-498 175,-498 175,-452 175,-452 175,-446 181,-440 187,-440"/>
<text text-anchor="middle" x="306" y="-498.8" font-family="Helvetica,sans-Serif" font-size="9.00" fill="#666666">6</text>
</g>
<g id="clust12" class="cluster">
<title>cluster_attention.Tile&#45;9</title>
<path fill="#e8e8e8" stroke="black" stroke-dasharray="5,2" d="M124,-656C124,-656 186,-656 186,-656 192,-656 198,-662 198,-668 198,-668 198,-714 198,-714 198,-720 192,-726 186,-726 186,-726 124,-726 124,-726 118,-726 112,-720 112,-714 112,-714 112,-668 112,-668 112,-662 118,-656 124,-656"/>
<text text-anchor="middle" x="155" y="-714.8" font-family="Helvetica,sans-Serif" font-size="9.00" fill="#666666">9</text>
</g>
<g id="clust13" class="cluster">
<title>cluster_attention.Tile&#45;10</title>
<path fill="#ffcccc" stroke="black" stroke-dasharray="5,2" d="M124,-764C124,-764 186,-764 186,-764 192,-764 198,-770 198,-776 198,-776 198,-822 198,-822 198,-828 192,-834 186,-834 186,-834 124,-834 124,-834 118,-834 112,-828 112,-822 112,-822 112,-776 112,-776 112,-770 118,-764 124,-764"/>
<text text-anchor="middle" x="155" y="-822.8" font-family="Helvetica,sans-Serif" font-size="9.00" fill="#666666">10</text>
</g>
<g id="clust7" class="cluster">
<title>cluster_attention.Tile&#45;14</title>
<path fill="#e8e8e8" stroke="black" stroke-dasharray="5,2" d="M503,-224C503,-224 565,-224 565,-224 571,-224 577,-230 577,-236 577,-236 577,-282 577,-282 577,-288 571,-294 565,-294 565,-294 503,-294 503,-294 497,-294 491,-288 491,-282 491,-282 491,-236 491,-236 491,-230 497,-224 503,-224"/>
<text text-anchor="middle" x="534" y="-282.8" font-family="Helvetica,sans-Serif" font-size="9.00" fill="#666666">14</text>
</g>
<g id="clust11" class="cluster">
<title>cluster_attention.Tile&#45;15</title>
<path fill="#e8e8e8" stroke="black" stroke-dasharray="5,2" d="M592,-332C592,-332 690,-332 690,-332 696,-332 702,-338 702,-344 702,-344 702,-390 702,-390 702,-396 696,-402 690,-402 690,-402 592,-402 592,-402 586,-402 580,-396 580,-390 580,-390 580,-344 580,-344 580,-338 586,-332 592,-332"/>
<text text-anchor="middle" x="641" y="-390.8" font-family="Helvetica,sans-Serif" font-size="9.00" fill="#666666">15</text>
</g>
<!-- function&#45;0&#45;attention_Tile_input -->
<g id="node1" class="node">
<title>function&#45;0&#45;attention_Tile_input</title>
<polygon fill="white" stroke="transparent" points="437.5,-21.5 437.5,-46.5 562.5,-46.5 562.5,-21.5 437.5,-21.5"/>
<text text-anchor="start" x="445" y="-31" font-family="Helvetica,sans-Serif" font-size="10.00">Tile.input(&quot;Q&quot;, 128, 64, 2)</text>
<polygon fill="none" stroke="black" points="437.5,-21.5 437.5,-46.5 562.5,-46.5 562.5,-21.5 437.5,-21.5"/>
</g>
<!-- function&#45;1&#45;attention_Tile_input -->
<g id="node2" class="node">
<title>function&#45;1&#45;attention_Tile_input</title>
<polygon fill="white" stroke="transparent" points="250,-129.5 250,-154.5 374,-154.5 374,-129.5 250,-129.5"/>
<text text-anchor="start" x="257" y="-139" font-family="Helvetica,sans-Serif" font-size="10.00">Tile.input(&quot;K&quot;, 64, 128, 2)</text>
<polygon fill="none" stroke="black" points="250,-129.5 250,-154.5 374,-154.5 374,-129.5 250,-129.5"/>
</g>
<!-- function&#45;2&#45;attention_Tile_input -->
<g id="node3" class="node">
<title>function&#45;2&#45;attention_Tile_input</title>
<polygon fill="white" stroke="transparent" points="24,-345.5 24,-370.5 148,-370.5 148,-345.5 24,-345.5"/>
<text text-anchor="start" x="31" y="-355" font-family="Helvetica,sans-Serif" font-size="10.00">Tile.input(&quot;V&quot;, 128, 64, 2)</text>
<polygon fill="none" stroke="black" points="24,-345.5 24,-370.5 148,-370.5 148,-345.5 24,-345.5"/>
</g>
<!-- function&#45;0&#45;attention_Tile_LDS -->
<g id="node4" class="node">
<title>function&#45;0&#45;attention_Tile_LDS</title>
<polygon fill="white" stroke="transparent" points="473.5,-129.5 473.5,-154.5 526.5,-154.5 526.5,-129.5 473.5,-129.5"/>
<text text-anchor="start" x="481" y="-139" font-family="Helvetica,sans-Serif" font-size="10.00">Tile.LDS</text>
<polygon fill="none" stroke="black" points="473.5,-129.5 473.5,-154.5 526.5,-154.5 526.5,-129.5 473.5,-129.5"/>
</g>
<!-- function&#45;0&#45;attention_Tile_LDS&#45;&gt;function&#45;0&#45;attention_Tile_input -->
<g id="edge1" class="edge">
<title>function&#45;0&#45;attention_Tile_LDS&#45;&gt;function&#45;0&#45;attention_Tile_input</title>
<path fill="none" stroke="black" d="M500,-123.97C500,-107.38 500,-81.88 500,-62.43"/>
<polygon fill="black" stroke="black" points="503.5,-62.34 500,-52.34 496.5,-62.34 503.5,-62.34"/>
</g>
<!-- function&#45;1&#45;attention_Tile_LDS -->
<g id="node5" class="node">
<title>function&#45;1&#45;attention_Tile_LDS</title>
<polygon fill="white" stroke="transparent" points="285.5,-237.5 285.5,-262.5 338.5,-262.5 338.5,-237.5 285.5,-237.5"/>
<text text-anchor="start" x="293" y="-247" font-family="Helvetica,sans-Serif" font-size="10.00">Tile.LDS</text>
<polygon fill="none" stroke="black" points="285.5,-237.5 285.5,-262.5 338.5,-262.5 338.5,-237.5 285.5,-237.5"/>
</g>
<!-- function&#45;1&#45;attention_Tile_LDS&#45;&gt;function&#45;1&#45;attention_Tile_input -->
<g id="edge2" class="edge">
<title>function&#45;1&#45;attention_Tile_LDS&#45;&gt;function&#45;1&#45;attention_Tile_input</title>
<path fill="none" stroke="black" d="M312,-231.97C312,-215.38 312,-189.88 312,-170.43"/>
<polygon fill="black" stroke="black" points="315.5,-170.34 312,-160.34 308.5,-170.34 315.5,-170.34"/>
</g>
<!-- function&#45;2&#45;attention_Tile_LDS -->
<g id="node6" class="node">
<title>function&#45;2&#45;attention_Tile_LDS</title>
<polygon fill="white" stroke="transparent" points="63.5,-453.5 63.5,-478.5 116.5,-478.5 116.5,-453.5 63.5,-453.5"/>
<text text-anchor="start" x="71" y="-463" font-family="Helvetica,sans-Serif" font-size="10.00">Tile.LDS</text>
<polygon fill="none" stroke="black" points="63.5,-453.5 63.5,-478.5 116.5,-478.5 116.5,-453.5 63.5,-453.5"/>
</g>
<!-- function&#45;2&#45;attention_Tile_LDS&#45;&gt;function&#45;2&#45;attention_Tile_input -->
<g id="edge3" class="edge">
<title>function&#45;2&#45;attention_Tile_LDS&#45;&gt;function&#45;2&#45;attention_Tile_input</title>
<path fill="none" stroke="black" d="M89.36,-447.97C88.73,-431.38 87.77,-405.88 87.04,-386.43"/>
<polygon fill="black" stroke="black" points="90.53,-386.2 86.65,-376.34 83.53,-386.47 90.53,-386.2"/>
</g>
<!-- function&#45;0&#45;attention_Tile_LDR -->
<g id="node7" class="node">
<title>function&#45;0&#45;attention_Tile_LDR</title>
<polygon fill="white" stroke="transparent" points="507,-237.5 507,-262.5 561,-262.5 561,-237.5 507,-237.5"/>
<text text-anchor="start" x="514" y="-247" font-family="Helvetica,sans-Serif" font-size="10.00">Tile.LDR</text>
<polygon fill="none" stroke="black" points="507,-237.5 507,-262.5 561,-262.5 561,-237.5 507,-237.5"/>
</g>
<!-- function&#45;0&#45;attention_Tile_LDR&#45;&gt;function&#45;0&#45;attention_Tile_LDS -->
<g id="edge4" class="edge">
<title>function&#45;0&#45;attention_Tile_LDR&#45;&gt;function&#45;0&#45;attention_Tile_LDS</title>
<path fill="none" stroke="black" d="M528.54,-231.97C523.17,-215.22 514.89,-189.41 508.63,-169.89"/>
<polygon fill="black" stroke="black" points="511.95,-168.79 505.56,-160.34 505.28,-170.93 511.95,-168.79"/>
</g>
<!-- function&#45;0&#45;attention_Tile_WGMMA -->
<g id="node8" class="node">
<title>function&#45;0&#45;attention_Tile_WGMMA</title>
<polygon fill="white" stroke="transparent" points="316,-345.5 316,-370.5 390,-370.5 390,-345.5 316,-345.5"/>
<text text-anchor="start" x="323" y="-355" font-family="Helvetica,sans-Serif" font-size="10.00">Tile.WGMMA</text>
<polygon fill="none" stroke="black" points="316,-345.5 316,-370.5 390,-370.5 390,-345.5 316,-345.5"/>
</g>
<!-- function&#45;0&#45;attention_Tile_WGMMA&#45;&gt;function&#45;0&#45;attention_Tile_LDS -->
<g id="edge5" class="edge">
<title>function&#45;0&#45;attention_Tile_WGMMA&#45;&gt;function&#45;0&#45;attention_Tile_LDS</title>
<path fill="none" stroke="black" d="M364.78,-339.85C390.53,-302.36 451.95,-212.95 482.34,-168.7"/>
<polygon fill="black" stroke="black" points="485.39,-170.46 488.16,-160.23 479.62,-166.49 485.39,-170.46"/>
</g>
<!-- function&#45;0&#45;attention_Tile_WGMMA&#45;&gt;function&#45;1&#45;attention_Tile_LDS -->
<g id="edge6" class="edge">
<title>function&#45;0&#45;attention_Tile_WGMMA&#45;&gt;function&#45;1&#45;attention_Tile_LDS</title>
<path fill="none" stroke="black" d="M346.41,-339.97C339.94,-323.22 329.95,-297.41 322.4,-277.89"/>
<polygon fill="black" stroke="black" points="325.58,-276.4 318.71,-268.34 319.05,-278.93 325.58,-276.4"/>
</g>
<!-- function&#45;3&#45;attention_Tile_WGMMA -->
<g id="node9" class="node">
<title>function&#45;3&#45;attention_Tile_WGMMA</title>
<polygon fill="white" stroke="transparent" points="456,-345.5 456,-370.5 530,-370.5 530,-345.5 456,-345.5"/>
<text text-anchor="start" x="463" y="-355" font-family="Helvetica,sans-Serif" font-size="10.00">Tile.WGMMA</text>
<polygon fill="none" stroke="black" points="456,-345.5 456,-370.5 530,-370.5 530,-345.5 456,-345.5"/>
</g>
<!-- function&#45;3&#45;attention_Tile_WGMMA&#45;&gt;function&#45;1&#45;attention_Tile_LDS -->
<g id="edge12" class="edge">
<title>function&#45;3&#45;attention_Tile_WGMMA&#45;&gt;function&#45;1&#45;attention_Tile_LDS</title>
<path fill="none" stroke="black" d="M463.92,-339.97C433.01,-321.86 383.99,-293.16 350.03,-273.27"/>
<polygon fill="black" stroke="black" points="351.71,-270.2 341.31,-268.16 348.17,-276.24 351.71,-270.2"/>
</g>
<!-- function&#45;3&#45;attention_Tile_WGMMA&#45;&gt;function&#45;0&#45;attention_Tile_LDR -->
<g id="edge11" class="edge">
<title>function&#45;3&#45;attention_Tile_WGMMA&#45;&gt;function&#45;0&#45;attention_Tile_LDR</title>
<path fill="none" stroke="black" d="M499.59,-339.97C506.06,-323.22 516.05,-297.41 523.6,-277.89"/>
<polygon fill="black" stroke="black" points="526.95,-278.93 527.29,-268.34 520.42,-276.4 526.95,-278.93"/>
</g>
<!-- function&#45;1&#45;attention_Tile_WGMMA -->
<g id="node10" class="node">
<title>function&#45;1&#45;attention_Tile_WGMMA</title>
<polygon fill="white" stroke="transparent" points="118,-561.5 118,-586.5 192,-586.5 192,-561.5 118,-561.5"/>
<text text-anchor="start" x="125" y="-571" font-family="Helvetica,sans-Serif" font-size="10.00">Tile.WGMMA</text>
<polygon fill="none" stroke="black" points="118,-561.5 118,-586.5 192,-586.5 192,-561.5 118,-561.5"/>
</g>
<!-- function&#45;1&#45;attention_Tile_WGMMA&#45;&gt;function&#45;2&#45;attention_Tile_LDS -->
<g id="edge8" class="edge">
<title>function&#45;1&#45;attention_Tile_WGMMA&#45;&gt;function&#45;2&#45;attention_Tile_LDS</title>
<path fill="none" stroke="black" d="M144.56,-555.97C134.15,-538.99 118.02,-512.7 106,-493.09"/>
<polygon fill="black" stroke="black" points="108.84,-491.04 100.63,-484.34 102.88,-494.7 108.84,-491.04"/>
</g>
<!-- function&#45;2&#45;attention_Tile_WGMMA -->
<g id="node11" class="node">
<title>function&#45;2&#45;attention_Tile_WGMMA</title>
<polygon fill="white" stroke="transparent" points="191,-453.5 191,-478.5 265,-478.5 265,-453.5 191,-453.5"/>
<text text-anchor="start" x="198" y="-463" font-family="Helvetica,sans-Serif" font-size="10.00">Tile.WGMMA</text>
<polygon fill="none" stroke="black" points="191,-453.5 191,-478.5 265,-478.5 265,-453.5 191,-453.5"/>
</g>
<!-- function&#45;1&#45;attention_Tile_WGMMA&#45;&gt;function&#45;2&#45;attention_Tile_WGMMA -->
<g id="edge7" class="edge">
<title>function&#45;1&#45;attention_Tile_WGMMA&#45;&gt;function&#45;2&#45;attention_Tile_WGMMA</title>
<path fill="none" stroke="black" d="M166.73,-555.97C178.47,-538.92 196.69,-512.46 210.22,-492.82"/>
<polygon fill="black" stroke="black" points="213.27,-494.56 216.06,-484.34 207.5,-490.59 213.27,-494.56"/>
</g>
<!-- function&#45;2&#45;attention_Tile_WGMMA&#45;&gt;function&#45;1&#45;attention_Tile_LDS -->
<g id="edge10" class="edge">
<title>function&#45;2&#45;attention_Tile_WGMMA&#45;&gt;function&#45;1&#45;attention_Tile_LDS</title>
<path fill="none" stroke="black" d="M234.73,-447.85C249.32,-410.68 283.96,-322.44 301.47,-277.82"/>
<polygon fill="black" stroke="black" points="304.84,-278.82 305.24,-268.23 298.32,-276.26 304.84,-278.82"/>
</g>
<!-- function&#45;1&#45;attention_Tile_Elementwise -->
<g id="node13" class="node">
<title>function&#45;1&#45;attention_Tile_Elementwise</title>
<polygon fill="white" stroke="transparent" points="596,-345.5 596,-370.5 686,-370.5 686,-345.5 596,-345.5"/>
<text text-anchor="start" x="603" y="-355" font-family="Helvetica,sans-Serif" font-size="10.00">Tile.Elementwise</text>
<polygon fill="none" stroke="black" points="596,-345.5 596,-370.5 686,-370.5 686,-345.5 596,-345.5"/>
</g>
<!-- function&#45;2&#45;attention_Tile_WGMMA&#45;&gt;function&#45;1&#45;attention_Tile_Elementwise -->
<g id="edge9" class="edge">
<title>function&#45;2&#45;attention_Tile_WGMMA&#45;&gt;function&#45;1&#45;attention_Tile_Elementwise</title>
<path fill="none" stroke="black" d="M271.65,-447.91C280.29,-444.96 289.36,-442.15 298,-440 411.32,-411.78 446.84,-437.8 558,-402 573.97,-396.86 590.57,-388.86 604.69,-381.15"/>
<polygon fill="black" stroke="black" points="606.58,-384.1 613.58,-376.15 603.15,-378 606.58,-384.1"/>
</g>
<!-- function&#45;0&#45;attention_Tile_Elementwise -->
<g id="node12" class="node">
<title>function&#45;0&#45;attention_Tile_Elementwise</title>
<polygon fill="white" stroke="transparent" points="331,-453.5 331,-478.5 421,-478.5 421,-453.5 331,-453.5"/>
<text text-anchor="start" x="338" y="-463" font-family="Helvetica,sans-Serif" font-size="10.00">Tile.Elementwise</text>
<polygon fill="none" stroke="black" points="331,-453.5 331,-478.5 421,-478.5 421,-453.5 331,-453.5"/>
</g>
<!-- function&#45;0&#45;attention_Tile_Elementwise&#45;&gt;function&#45;0&#45;attention_Tile_WGMMA -->
<g id="edge13" class="edge">
<title>function&#45;0&#45;attention_Tile_Elementwise&#45;&gt;function&#45;0&#45;attention_Tile_WGMMA</title>
<path fill="none" stroke="black" d="M372.3,-447.97C368.69,-431.3 363.12,-405.65 358.89,-386.16"/>
<polygon fill="black" stroke="black" points="362.3,-385.37 356.76,-376.34 355.46,-386.86 362.3,-385.37"/>
</g>
<!-- function&#45;1&#45;attention_Tile_Elementwise&#45;&gt;function&#45;0&#45;attention_Tile_LDR -->
<g id="edge14" class="edge">
<title>function&#45;1&#45;attention_Tile_Elementwise&#45;&gt;function&#45;0&#45;attention_Tile_LDR</title>
<path fill="none" stroke="black" d="M623.81,-339.97C606.21,-322.53 578.68,-295.26 558.74,-275.51"/>
<polygon fill="black" stroke="black" points="561.07,-272.89 551.5,-268.34 556.15,-277.86 561.07,-272.89"/>
</g>
<!-- function&#45;0&#45;attention_Tile_STS -->
<g id="node14" class="node">
<title>function&#45;0&#45;attention_Tile_STS</title>
<polygon fill="white" stroke="transparent" points="128.5,-669.5 128.5,-694.5 181.5,-694.5 181.5,-669.5 128.5,-669.5"/>
<text text-anchor="start" x="136" y="-679" font-family="Helvetica,sans-Serif" font-size="10.00">Tile.STS</text>
<polygon fill="none" stroke="black" points="128.5,-669.5 128.5,-694.5 181.5,-694.5 181.5,-669.5 128.5,-669.5"/>
</g>
<!-- function&#45;0&#45;attention_Tile_STS&#45;&gt;function&#45;1&#45;attention_Tile_WGMMA -->
<g id="edge15" class="edge">
<title>function&#45;0&#45;attention_Tile_STS&#45;&gt;function&#45;1&#45;attention_Tile_WGMMA</title>
<path fill="none" stroke="black" d="M155,-663.97C155,-647.38 155,-621.88 155,-602.43"/>
<polygon fill="black" stroke="black" points="158.5,-602.34 155,-592.34 151.5,-602.34 158.5,-602.34"/>
</g>
<!-- function&#45;0&#45;attention_Tile_STG -->
<g id="node15" class="node">
<title>function&#45;0&#45;attention_Tile_STG</title>
<polygon fill="white" stroke="transparent" points="128,-777.5 128,-802.5 182,-802.5 182,-777.5 128,-777.5"/>
<text text-anchor="start" x="135" y="-787" font-family="Helvetica,sans-Serif" font-size="10.00">Tile.STG</text>
<polygon fill="none" stroke="black" points="128,-777.5 128,-802.5 182,-802.5 182,-777.5 128,-777.5"/>
</g>
<!-- function&#45;0&#45;attention_Tile_STG&#45;&gt;function&#45;0&#45;attention_Tile_STS -->
<g id="edge16" class="edge">
<title>function&#45;0&#45;attention_Tile_STG&#45;&gt;function&#45;0&#45;attention_Tile_STS</title>
<path fill="none" stroke="black" d="M155,-771.97C155,-755.38 155,-729.88 155,-710.43"/>
<polygon fill="black" stroke="black" points="158.5,-710.34 155,-700.34 151.5,-710.34 158.5,-710.34"/>
</g>
</g>
</svg>
