<?xml version="1.0" encoding="UTF-8" standalone="no"?>
<?xml-stylesheet href="/var/folders/cv/0rgfl8cs40g0lnwkzp8sskhh0000gn/T/graphviz-styles.css" type="text/css"?>
<!DOCTYPE svg PUBLIC "-//W3C//DTD SVG 1.1//EN"
 "http://www.w3.org/Graphics/SVG/1.1/DTD/svg11.dtd">
<!-- Generated by graphviz version 13.1.2 (20250808.2320)
 -->
<!-- Pages: 1 -->
<svg width="230pt" height="331pt"
 viewBox="0.00 0.00 230.00 331.00" xmlns="http://www.w3.org/2000/svg" xmlns:xlink="http://www.w3.org/1999/xlink">
<g id="graph0" class="graph" transform="scale(1 1) rotate(0) translate(4 326.75)">
<polygon fill="white" stroke="none" points="-4,4 -4,-326.75 226,-326.75 226,4 -4,4"/>
<g id="clust1" class="cluster">
<title>outer_cluster_String&#45;0</title>
</g>
<g id="clust2" class="cluster">
<title>cluster_String&#45;0</title>
<path fill="#ffffb3" stroke="black" stroke-dasharray="5,2" d="M27,-11C27,-11 63,-11 63,-11 69,-11 75,-17 75,-23 75,-23 75,-41 75,-41 75,-47 69,-53 63,-53 63,-53 27,-53 27,-53 21,-53 15,-47 15,-41 15,-41 15,-23 15,-23 15,-17 21,-11 27,-11"/>
</g>
<g id="clust4" class="cluster">
<title>outer_cluster___main__.Num&#45;2</title>
</g>
<g id="clust5" class="cluster">
<title>cluster___main__.Num&#45;2</title>
<path fill="#bebada" stroke="black" stroke-dasharray="5,2" d="M32,-169C32,-169 126,-169 126,-169 132,-169 138,-175 138,-181 138,-181 138,-199 138,-199 138,-205 132,-211 126,-211 126,-211 32,-211 32,-211 26,-211 20,-205 20,-199 20,-199 20,-181 20,-181 20,-175 26,-169 32,-169"/>
</g>
<g id="clust7" class="cluster">
<title>outer_cluster___main__.Num&#45;0</title>
</g>
<g id="clust8" class="cluster">
<title>cluster___main__.Num&#45;0</title>
<path fill="#bebada" stroke="black" stroke-dasharray="5,2" d="M23,-90C23,-90 67,-90 67,-90 73,-90 79,-96 79,-102 79,-102 79,-120 79,-120 79,-126 73,-132 67,-132 67,-132 23,-132 23,-132 17,-132 11,-126 11,-120 11,-120 11,-102 11,-102 11,-96 17,-90 23,-90"/>
</g>
<g id="clust10" class="cluster">
<title>outer_cluster___main__.Num&#45;4</title>
</g>
<g id="clust11" class="cluster">
<title>cluster___main__.Num&#45;4</title>
<path fill="#bebada" stroke="black" stroke-dasharray="5,2" d="M124,-248C124,-248 160,-248 160,-248 166,-248 172,-254 172,-260 172,-260 172,-299.75 172,-299.75 172,-305.75 166,-311.75 160,-311.75 160,-311.75 124,-311.75 124,-311.75 118,-311.75 112,-305.75 112,-299.75 112,-299.75 112,-260 112,-260 112,-254 118,-248 124,-248"/>
<text xml:space="preserve" text-anchor="start" x="126.12" y="-297.2" font-family="Helvetica,sans-Serif" font-size="9.00">let</text>
<text xml:space="preserve" text-anchor="start" x="139.88" y="-297.2" font-family="Helvetica,sans-Serif" font-size="9.00">expr</text>
</g>
<g id="clust13" class="cluster">
<title>outer_cluster___main__.Num&#45;1</title>
</g>
<g id="clust14" class="cluster">
<title>cluster___main__.Num&#45;1</title>
<path fill="#bebada" stroke="black" stroke-dasharray="5,2" d="M97,-90C97,-90 133,-90 133,-90 139,-90 145,-96 145,-102 145,-102 145,-120 145,-120 145,-126 139,-132 133,-132 133,-132 97,-132 97,-132 91,-132 85,-126 85,-120 85,-120 85,-102 85,-102 85,-96 91,-90 97,-90"/>
</g>
<g id="clust16" class="cluster">
<title>outer_cluster___main__.Num&#45;3</title>
</g>
<g id="clust17" class="cluster">
<title>cluster___main__.Num&#45;3</title>
<path fill="#bebada" stroke="black" stroke-dasharray="5,2" d="M159,-169C159,-169 195,-169 195,-169 201,-169 207,-175 207,-181 207,-181 207,-199 207,-199 207,-205 201,-211 195,-211 195,-211 159,-211 159,-211 153,-211 147,-205 147,-199 147,-199 147,-181 147,-181 147,-175 153,-169 159,-169"/>
</g>
<g id="clust19" class="cluster">
<title>outer_cluster_i64&#45;2</title>
</g>
<g id="clust20" class="cluster">
<title>cluster_i64&#45;2</title>
<path fill="#fb8072" stroke="black" stroke-dasharray="5,2" d="M97,-11C97,-11 133,-11 133,-11 139,-11 145,-17 145,-23 145,-23 145,-41 145,-41 145,-47 139,-53 133,-53 133,-53 97,-53 97,-53 91,-53 85,-47 85,-41 85,-41 85,-23 85,-23 85,-17 91,-11 97,-11"/>
</g>
<g id="clust22" class="cluster">
<title>outer_cluster_i64&#45;1</title>
</g>
<g id="clust23" class="cluster">
<title>cluster_i64&#45;1</title>
<path fill="#fb8072" stroke="black" stroke-dasharray="5,2" d="M163,-90C163,-90 199,-90 199,-90 205,-90 211,-96 211,-102 211,-102 211,-120 211,-120 211,-126 205,-132 199,-132 199,-132 163,-132 163,-132 157,-132 151,-126 151,-120 151,-120 151,-102 151,-102 151,-96 157,-90 163,-90"/>
</g>
<!-- function&#45;1&#45;__main___Num___add__&#45;&gt;function&#45;0&#45;__main___Num_var -->
<g id="edge1" class="edge">
<title>function&#45;1&#45;__main___Num___add__:s&#45;&gt;function&#45;0&#45;__main___Num_var</title>
<path fill="none" stroke="black" d="M42.19,-174C42.19,-161.09 42.8,-146.68 43.46,-135.01"/>
<polygon fill="black" stroke="black" points="44.78,-138.68 43.64,-133.5 41.3,-138.26 44.78,-138.68"/>
</g>
<!-- function&#45;1&#45;__main___Num___add__&#45;&gt;function&#45;0&#45;__main___Num_var -->
<g id="edge2" class="edge">
<title>function&#45;1&#45;__main___Num___add__:s&#45;&gt;function&#45;0&#45;__main___Num_var</title>
<path fill="none" stroke="black" d="M57.81,-174C57.81,-160.92 55.05,-146.61 52.08,-135.04"/>
<polygon fill="black" stroke="black" points="54.51,-138 51.75,-133.48 51.09,-138.74 54.51,-138"/>
</g>
<!-- function&#45;0&#45;__main___Num_var&#45;&gt;primitive&#45;String&#45;0 -->
<g id="edge5" class="edge">
<title>function&#45;0&#45;__main___Num_var:s&#45;&gt;primitive&#45;String&#45;0</title>
<path fill="none" stroke="black" d="M45,-95C45,-82.22 45,-67.96 45,-56.35"/>
<polygon fill="black" stroke="black" points="46.75,-59.51 45,-54.51 43.25,-59.51 46.75,-59.51"/>
</g>
<!-- function&#45;0&#45;__main___Num___mul__&#45;&gt;function&#45;0&#45;__main___Num_var -->
<g id="edge3" class="edge">
<title>function&#45;0&#45;__main___Num___mul__:s&#45;&gt;function&#45;0&#45;__main___Num_var</title>
<path fill="none" stroke="black" d="M100.5,-174C100.5,-157.55 89.52,-143.46 77.32,-132.9"/>
<polygon fill="black" stroke="black" points="82.27,-135.37 77.5,-133.07 79.8,-137.84 82.27,-135.37"/>
</g>
<!-- function&#45;0&#45;__main___Num___mul__&#45;&gt;function&#45;0&#45;__main___Num___init__ -->
<g id="edge4" class="edge">
<title>function&#45;0&#45;__main___Num___mul__:s&#45;&gt;function&#45;0&#45;__main___Num___init__</title>
<path fill="none" stroke="black" d="M115.5,-174C115.5,-161.22 115.39,-146.96 115.28,-135.35"/>
<polygon fill="black" stroke="black" points="117.09,-138.48 115.24,-133.51 113.59,-138.55 117.09,-138.48"/>
</g>
<!-- function&#45;0&#45;__main___Num___init__&#45;&gt;primitive&#45;i64&#45;2 -->
<g id="edge8" class="edge">
<title>function&#45;0&#45;__main___Num___init__:s&#45;&gt;primitive&#45;i64&#45;2</title>
<path fill="none" stroke="black" d="M115,-95C115,-82.22 115,-67.96 115,-56.35"/>
<polygon fill="black" stroke="black" points="116.75,-59.51 115,-54.51 113.25,-59.51 116.75,-59.51"/>
</g>
<!-- function&#45;0&#45;__main___Num___add__&#45;&gt;function&#45;0&#45;__main___Num___mul__ -->
<g id="edge6" class="edge">
<title>function&#45;0&#45;__main___Num___add__:s&#45;&gt;function&#45;0&#45;__main___Num___mul__</title>
<path fill="none" stroke="black" d="M134.19,-253C134.19,-239.17 128.59,-224.87 122.57,-213.5"/>
<polygon fill="black" stroke="black" points="125.74,-216.17 122.05,-212.37 122.56,-217.65 125.74,-216.17"/>
</g>
<!-- function&#45;0&#45;__main___Num___add__&#45;&gt;function&#45;1&#45;__main___Num___init__ -->
<g id="edge7" class="edge">
<title>function&#45;0&#45;__main___Num___add__:s&#45;&gt;function&#45;1&#45;__main___Num___init__</title>
<path fill="none" stroke="black" d="M149.81,-253C149.81,-238.96 155.73,-224.52 162.05,-213.12"/>
<polygon fill="black" stroke="black" points="161.69,-217.58 162.45,-212.34 158.58,-215.96 161.69,-217.58"/>
</g>
<!-- function&#45;1&#45;__main___Num___init__&#45;&gt;primitive&#45;i64&#45;1 -->
<g id="edge9" class="edge">
<title>function&#45;1&#45;__main___Num___init__:s&#45;&gt;primitive&#45;i64&#45;1</title>
<path fill="none" stroke="black" d="M177,-174C177,-161.08 177.88,-146.67 178.81,-135"/>
<polygon fill="black" stroke="black" points="179.94,-138.72 179.07,-133.49 176.49,-138.12 179.94,-138.72"/>
</g>
<!-- primitive&#45;String&#45;0 -->
<g id="node1" class="node">
<title>primitive&#45;String&#45;0</title>
<g id="a_node1"><a xlink:title="String&#45;0: primitive&#45;String&#45;0">
<path fill="white" stroke="none" d="M39.67,-16C39.67,-16 50.33,-16 50.33,-16 55.67,-16 61,-21.33 61,-26.67 61,-26.67 61,-37.33 61,-37.33 61,-42.67 55.67,-48 50.33,-48 50.33,-48 39.67,-48 39.67,-48 34.33,-48 29,-42.67 29,-37.33 29,-37.33 29,-26.67 29,-26.67 29,-21.33 34.33,-16 39.67,-16"/>
<text xml:space="preserve" text-anchor="start" x="36.38" y="-26.2" font-family="Helvetica,sans-Serif" font-size="14.00">&quot;x&quot;</text>
<path fill="none" stroke="black" d="M39.67,-16C39.67,-16 50.33,-16 50.33,-16 55.67,-16 61,-21.33 61,-26.67 61,-26.67 61,-37.33 61,-37.33 61,-42.67 55.67,-48 50.33,-48 50.33,-48 39.67,-48 39.67,-48 34.33,-48 29,-42.67 29,-37.33 29,-37.33 29,-26.67 29,-26.67 29,-21.33 34.33,-16 39.67,-16"/>
</a>
</g>
</g>
<!-- function&#45;1&#45;__main___Num___add__ -->
<g id="node2" class="node">
<title>function&#45;1&#45;__main___Num___add__</title>
<g id="a_node2"><a xlink:title="__main__.Num&#45;2: function&#45;1&#45;__main___Num___add__">
<path fill="white" stroke="none" d="M44.04,-174C44.04,-174 55.96,-174 55.96,-174 61.29,-174 66.62,-179.33 66.62,-184.67 66.62,-184.67 66.62,-195.33 66.62,-195.33 66.62,-200.67 61.29,-206 55.96,-206 55.96,-206 44.04,-206 44.04,-206 38.71,-206 33.38,-200.67 33.38,-195.33 33.38,-195.33 33.38,-184.67 33.38,-184.67 33.38,-179.33 38.71,-174 44.04,-174"/>
<text xml:space="preserve" text-anchor="start" x="38.38" y="-184.2" font-family="Helvetica,sans-Serif" font-size="14.00">· + ·</text>
<path fill="none" stroke="black" d="M44.04,-174C44.04,-174 55.96,-174 55.96,-174 61.29,-174 66.62,-179.33 66.62,-184.67 66.62,-184.67 66.62,-195.33 66.62,-195.33 66.62,-200.67 61.29,-206 55.96,-206 55.96,-206 44.04,-206 44.04,-206 38.71,-206 33.38,-200.67 33.38,-195.33 33.38,-195.33 33.38,-184.67 33.38,-184.67 33.38,-179.33 38.71,-174 44.04,-174"/>
</a>
</g>
</g>
<!-- function&#45;0&#45;__main___Num_var -->
<g id="node3" class="node">
<title>function&#45;0&#45;__main___Num_var</title>
<g id="a_node3"><a xlink:title="__main__.Num&#45;0: function&#45;0&#45;__main___Num_var">
<path fill="white" stroke="none" d="M24.79,-95C24.79,-95 65.21,-95 65.21,-95 70.54,-95 75.88,-100.33 75.88,-105.67 75.88,-105.67 75.88,-116.33 75.88,-116.33 75.88,-121.67 70.54,-127 65.21,-127 65.21,-127 24.79,-127 24.79,-127 19.46,-127 14.12,-121.67 14.12,-116.33 14.12,-116.33 14.12,-105.67 14.12,-105.67 14.12,-100.33 19.46,-95 24.79,-95"/>
<text xml:space="preserve" text-anchor="start" x="19.12" y="-105.2" font-family="Helvetica,sans-Serif" font-size="14.00">Num.var</text>
<path fill="none" stroke="black" d="M24.79,-95C24.79,-95 65.21,-95 65.21,-95 70.54,-95 75.88,-100.33 75.88,-105.67 75.88,-105.67 75.88,-116.33 75.88,-116.33 75.88,-121.67 70.54,-127 65.21,-127 65.21,-127 24.79,-127 24.79,-127 19.46,-127 14.12,-121.67 14.12,-116.33 14.12,-116.33 14.12,-105.67 14.12,-105.67 14.12,-100.33 19.46,-95 24.79,-95"/>
</a>
</g>
</g>
<!-- function&#45;0&#45;__main___Num___mul__ -->
<g id="node4" class="node">
<title>function&#45;0&#45;__main___Num___mul__</title>
<g id="a_node4"><a xlink:title="__main__.Num&#45;2: function&#45;0&#45;__main___Num___mul__">
<path fill="white" stroke="none" d="M102.67,-174C102.67,-174 113.33,-174 113.33,-174 118.67,-174 124,-179.33 124,-184.67 124,-184.67 124,-195.33 124,-195.33 124,-200.67 118.67,-206 113.33,-206 113.33,-206 102.67,-206 102.67,-206 97.33,-206 92,-200.67 92,-195.33 92,-195.33 92,-184.67 92,-184.67 92,-179.33 97.33,-174 102.67,-174"/>
<text xml:space="preserve" text-anchor="start" x="97.88" y="-184.2" font-family="Helvetica,sans-Serif" font-size="14.00">· * ·</text>
<path fill="none" stroke="black" d="M102.67,-174C102.67,-174 113.33,-174 113.33,-174 118.67,-174 124,-179.33 124,-184.67 124,-184.67 124,-195.33 124,-195.33 124,-200.67 118.67,-206 113.33,-206 113.33,-206 102.67,-206 102.67,-206 97.33,-206 92,-200.67 92,-195.33 92,-195.33 92,-184.67 92,-184.67 92,-179.33 97.33,-174 102.67,-174"/>
</a>
</g>
</g>
<!-- function&#45;0&#45;__main___Num___init__ -->
<g id="node5" class="node">
<title>function&#45;0&#45;__main___Num___init__</title>
<g id="a_node5"><a xlink:title="__main__.Num&#45;1: function&#45;0&#45;__main___Num___init__">
<path fill="white" stroke="none" d="M106.04,-95C106.04,-95 123.96,-95 123.96,-95 129.29,-95 134.62,-100.33 134.62,-105.67 134.62,-105.67 134.62,-116.33 134.62,-116.33 134.62,-121.67 129.29,-127 123.96,-127 123.96,-127 106.04,-127 106.04,-127 100.71,-127 95.38,-121.67 95.38,-116.33 95.38,-116.33 95.38,-105.67 95.38,-105.67 95.38,-100.33 100.71,-95 106.04,-95"/>
<text xml:space="preserve" text-anchor="start" x="100.38" y="-105.2" font-family="Helvetica,sans-Serif" font-size="14.00">Num</text>
<path fill="none" stroke="black" d="M106.04,-95C106.04,-95 123.96,-95 123.96,-95 129.29,-95 134.62,-100.33 134.62,-105.67 134.62,-105.67 134.62,-116.33 134.62,-116.33 134.62,-121.67 129.29,-127 123.96,-127 123.96,-127 106.04,-127 106.04,-127 100.71,-127 95.38,-121.67 95.38,-116.33 95.38,-116.33 95.38,-105.67 95.38,-105.67 95.38,-100.33 100.71,-95 106.04,-95"/>
</a>
</g>
</g>
<!-- function&#45;0&#45;__main___Num___add__ -->
<g id="node6" class="node">
<title>function&#45;0&#45;__main___Num___add__</title>
<g id="a_node6"><a xlink:title="__main__.Num&#45;4: function&#45;0&#45;__main___Num___add__">
<path fill="white" stroke="none" d="M136.04,-253C136.04,-253 147.96,-253 147.96,-253 153.29,-253 158.62,-258.33 158.62,-263.67 158.62,-263.67 158.62,-274.33 158.62,-274.33 158.62,-279.67 153.29,-285 147.96,-285 147.96,-285 136.04,-285 136.04,-285 130.71,-285 125.38,-279.67 125.38,-274.33 125.38,-274.33 125.38,-263.67 125.38,-263.67 125.38,-258.33 130.71,-253 136.04,-253"/>
<text xml:space="preserve" text-anchor="start" x="130.38" y="-263.2" font-family="Helvetica,sans-Serif" font-size="14.00">· + ·</text>
<path fill="none" stroke="black" d="M136.04,-253C136.04,-253 147.96,-253 147.96,-253 153.29,-253 158.62,-258.33 158.62,-263.67 158.62,-263.67 158.62,-274.33 158.62,-274.33 158.62,-279.67 153.29,-285 147.96,-285 147.96,-285 136.04,-285 136.04,-285 130.71,-285 125.38,-279.67 125.38,-274.33 125.38,-274.33 125.38,-263.67 125.38,-263.67 125.38,-258.33 130.71,-253 136.04,-253"/>
</a>
</g>
</g>
<!-- function&#45;1&#45;__main___Num___init__ -->
<g id="node7" class="node">
<title>function&#45;1&#45;__main___Num___init__</title>
<g id="a_node7"><a xlink:title="__main__.Num&#45;3: function&#45;1&#45;__main___Num___init__">
<path fill="white" stroke="none" d="M168.04,-174C168.04,-174 185.96,-174 185.96,-174 191.29,-174 196.62,-179.33 196.62,-184.67 196.62,-184.67 196.62,-195.33 196.62,-195.33 196.62,-200.67 191.29,-206 185.96,-206 185.96,-206 168.04,-206 168.04,-206 162.71,-206 157.38,-200.67 157.38,-195.33 157.38,-195.33 157.38,-184.67 157.38,-184.67 157.38,-179.33 162.71,-174 168.04,-174"/>
<text xml:space="preserve" text-anchor="start" x="162.38" y="-184.2" font-family="Helvetica,sans-Serif" font-size="14.00">Num</text>
<path fill="none" stroke="black" d="M168.04,-174C168.04,-174 185.96,-174 185.96,-174 191.29,-174 196.62,-179.33 196.62,-184.67 196.62,-184.67 196.62,-195.33 196.62,-195.33 196.62,-200.67 191.29,-206 185.96,-206 185.96,-206 168.04,-206 168.04,-206 162.71,-206 157.38,-200.67 157.38,-195.33 157.38,-195.33 157.38,-184.67 157.38,-184.67 157.38,-179.33 162.71,-174 168.04,-174"/>
</a>
</g>
</g>
<!-- primitive&#45;i64&#45;2 -->
<g id="node8" class="node">
<title>primitive&#45;i64&#45;2</title>
<g id="a_node8"><a xlink:title="i64&#45;2: primitive&#45;i64&#45;2">
<path fill="white" stroke="none" d="M109.67,-16C109.67,-16 120.33,-16 120.33,-16 125.67,-16 131,-21.33 131,-26.67 131,-26.67 131,-37.33 131,-37.33 131,-42.67 125.67,-48 120.33,-48 120.33,-48 109.67,-48 109.67,-48 104.33,-48 99,-42.67 99,-37.33 99,-37.33 99,-26.67 99,-26.67 99,-21.33 104.33,-16 109.67,-16"/>
<text xml:space="preserve" text-anchor="start" x="111.25" y="-26.2" font-family="Helvetica,sans-Serif" font-size="14.00">2</text>
<path fill="none" stroke="black" d="M109.67,-16C109.67,-16 120.33,-16 120.33,-16 125.67,-16 131,-21.33 131,-26.67 131,-26.67 131,-37.33 131,-37.33 131,-42.67 125.67,-48 120.33,-48 120.33,-48 109.67,-48 109.67,-48 104.33,-48 99,-42.67 99,-37.33 99,-37.33 99,-26.67 99,-26.67 99,-21.33 104.33,-16 109.67,-16"/>
</a>
</g>
</g>
<!-- primitive&#45;i64&#45;1 -->
<g id="node9" class="node">
<title>primitive&#45;i64&#45;1</title>
<g id="a_node9"><a xlink:title="i64&#45;1: primitive&#45;i64&#45;1">
<path fill="white" stroke="none" d="M175.67,-95C175.67,-95 186.33,-95 186.33,-95 191.67,-95 197,-100.33 197,-105.67 197,-105.67 197,-116.33 197,-116.33 197,-121.67 191.67,-127 186.33,-127 186.33,-127 175.67,-127 175.67,-127 170.33,-127 165,-121.67 165,-116.33 165,-116.33 165,-105.67 165,-105.67 165,-100.33 170.33,-95 175.67,-95"/>
<text xml:space="preserve" text-anchor="start" x="177.25" y="-105.2" font-family="Helvetica,sans-Serif" font-size="14.00">1</text>
<path fill="none" stroke="black" d="M175.67,-95C175.67,-95 186.33,-95 186.33,-95 191.67,-95 197,-100.33 197,-105.67 197,-105.67 197,-116.33 197,-116.33 197,-121.67 191.67,-127 186.33,-127 186.33,-127 175.67,-127 175.67,-127 170.33,-127 165,-121.67 165,-116.33 165,-116.33 165,-105.67 165,-105.67 165,-100.33 170.33,-95 175.67,-95"/>
</a>
</g>
</g>
</g>
</svg>
